  0
SECTION
  2
HEADER
  9
$ACADVER
  1
AC1015
  9
$ACADMAINTVER
 70
     6
  9
$DWGCODEPAGE
  3
ANSI_1252
  9
$INSBASE
 10
0.0
 20
0.0
 30
0.0
  9
$EXTMIN
 10
-73969.4340416201
 20
-64739.5
 30
0.0
  9
$EXTMAX
 10
76030.5659583799
 20
4260.5
 30
0.0
  9
$LIMMIN
 10
0.0
 20
0.0
  9
$LIMMAX
 10
420.0
 20
297.0
  9
$ORTHOMODE
 70
     0
  9
$REGENMODE
 70
     1
  9
$FILLMODE
 70
     1
  9
$QTEXTMODE
 70
     0
  9
$MIRRTEXT
 70
     1
  9
$LTSCALE
 40
1.0
  9
$ATTMODE
 70
     1
  9
$TEXTSIZE
 40
3.5
  9
$TRACEWID
 40
1.0
  9
$TEXTSTYLE
  7
Standard
  9
$CLAYER
  8
0
  9
$CELTYPE
  6
ByLayer
  9
$CECOLOR
 62
   256
  9
$CELTSCALE
 40
1.0
  9
$DISPSILH
 70
     0
  9
$DIMSCALE
 40
1.0
  9
$DIMASZ
 40
3.302
  9
$DIMEXO
 40
1.0
  9
$DIMDLI
 40
3.75
  9
$DIMRND
 40
0.0
  9
$DIMDLE
 40
0.0
  9
$DIMEXE
 40
1.0
  9
$DIMTP
 40
0.0
  9
$DIMTM
 40
0.0
  9
$DIMTXT
 40
3.5
  9
$DIMCEN
 40
2.5
  9
$DIMTSZ
 40
0.0
  9
$DIMTOL
 70
     0
  9
$DIMLIM
 70
     0
  9
$DIMTIH
 70
     1
  9
$DIMTOH
 70
     1
  9
$DIMSE1
 70
     0
  9
$DIMSE2
 70
     0
  9
$DIMTAD
 70
     1
  9
$DIMZIN
 70
     0
  9
$DIMBLK
  1

  9
$DIMASO
 70
     1
  9
$DIMSHO
 70
     1
  9
$DIMPOST
  1

  9
$DIMAPOST
  1

  9
$DIMALT
 70
     0
  9
$DIMALTD
 70
     3
  9
$DIMALTF
 40
0.0393700787
  9
$DIMLFAC
 40
1.0
  9
$DIMTOFL
 70
     1
  9
$DIMTVP
 40
0.0
  9
$DIMTIX
 70
     0
  9
$DIMSOXD
 70
     0
  9
$DIMSAH
 70
     0
  9
$DIMBLK1
  1

  9
$DIMBLK2
  1

  9
$DIMSTYLE
  2
ISO-25
  9
$DIMCLRD
 70
     0
  9
$DIMCLRE
 70
     0
  9
$DIMCLRT
 70
     0
  9
$DIMTFAC
 40
1.0
  9
$DIMGAP
 40
1.524
  9
$DIMJUST
 70
     0
  9
$DIMSD1
 70
     0
  9
$DIMSD2
 70
     0
  9
$DIMTOLJ
 70
     0
  9
$DIMTZIN
 70
     0
  9
$DIMALTZ
 70
     0
  9
$DIMALTTZ
 70
     0
  9
$DIMUPT
 70
     0
  9
$DIMDEC
 70
     2
  9
$DIMTDEC
 70
     2
  9
$DIMALTU
 70
     2
  9
$DIMALTTD
 70
     3
  9
$DIMTXSTY
  7
Standard
  9
$DIMAUNIT
 70
     0
  9
$DIMADEC
 70
     2
  9
$DIMALTRND
 40
0.0
  9
$DIMAZIN
 70
     0
  9
$DIMDSEP
 70
    44
  9
$DIMATFIT
 70
     3
  9
$DIMFRAC
 70
     0
  9
$DIMLDRBLK
  1

  9
$DIMLUNIT
 70
     2
  9
$DIMLWD
 70
    -2
  9
$DIMLWE
 70
    -2
  9
$DIMTMOVE
 70
     0
  9
$LUNITS
 70
     2
  9
$LUPREC
 70
     2
  9
$SKETCHINC
 40
1.0
  9
$FILLETRAD
 40
10.0
  9
$AUNITS
 70
     0
  9
$AUPREC
 70
     2
  9
$MENU
  1
.
  9
$ELEVATION
 40
0.0
  9
$PELEVATION
 40
0.0
  9
$THICKNESS
 40
0.0
  9
$LIMCHECK
 70
     0
  9
$CHAMFERA
 40
0.0
  9
$CHAMFERB
 40
0.0
  9
$CHAMFERC
 40
0.0
  9
$CHAMFERD
 40
0.0
  9
$SKPOLY
 70
     0
  9
$TDCREATE
 40
2458729.392527408
  9
$TDUCREATE
 40
2458729.309194074
  9
$TDUPDATE
 40
2458729.392720046
  9
$TDUUPDATE
 40
2458729.309386713
  9
$TDINDWG
 40
0.0000000116
  9
$TDUSRTIMER
 40
0.0000000116
  9
$USRTIMER
 70
     1
  9
$ANGBASE
 50
0.0
  9
$ANGDIR
 70
     0
  9
$PDMODE
 70
     0
  9
$PDSIZE
 40
-1.0
  9
$PLINEWID
 40
0.0
  9
$SPLFRAME
 70
     0
  9
$SPLINETYPE
 70
     6
  9
$SPLINESEGS
 70
     8
  9
$HANDSEED
  5
620
  9
$SURFTAB1
 70
     6
  9
$SURFTAB2
 70
     6
  9
$SURFTYPE
 70
     6
  9
$SURFU
 70
     6
  9
$SURFV
 70
     6
  9
$UCSBASE
  2

  9
$UCSNAME
  2

  9
$UCSORG
 10
0.0
 20
0.0
 30
0.0
  9
$UCSXDIR
 10
1.0
 20
0.0
 30
0.0
  9
$UCSYDIR
 10
0.0
 20
1.0
 30
0.0
  9
$UCSORTHOREF
  2

  9
$UCSORTHOVIEW
 70
     0
  9
$UCSORGTOP
 10
0.0
 20
0.0
 30
0.0
  9
$UCSORGBOTTOM
 10
0.0
 20
0.0
 30
0.0
  9
$UCSORGLEFT
 10
0.0
 20
0.0
 30
0.0
  9
$UCSORGRIGHT
 10
0.0
 20
0.0
 30
0.0
  9
$UCSORGFRONT
 10
0.0
 20
0.0
 30
0.0
  9
$UCSORGBACK
 10
0.0
 20
0.0
 30
0.0
  9
$PUCSBASE
  2

  9
$PUCSNAME
  2

  9
$PUCSORG
 10
0.0
 20
0.0
 30
0.0
  9
$PUCSXDIR
 10
1.0
 20
0.0
 30
0.0
  9
$PUCSYDIR
 10
0.0
 20
1.0
 30
0.0
  9
$PUCSORTHOREF
  2

  9
$PUCSORTHOVIEW
 70
     0
  9
$PUCSORGTOP
 10
0.0
 20
0.0
 30
0.0
  9
$PUCSORGBOTTOM
 10
0.0
 20
0.0
 30
0.0
  9
$PUCSORGLEFT
 10
0.0
 20
0.0
 30
0.0
  9
$PUCSORGRIGHT
 10
0.0
 20
0.0
 30
0.0
  9
$PUCSORGFRONT
 10
0.0
 20
0.0
 30
0.0
  9
$PUCSORGBACK
 10
0.0
 20
0.0
 30
0.0
  9
$USERI1
 70
     0
  9
$USERI2
 70
     0
  9
$USERI3
 70
     0
  9
$USERI4
 70
     0
  9
$USERI5
 70
     0
  9
$USERR1
 40
0.0
  9
$USERR2
 40
0.0
  9
$USERR3
 40
0.0
  9
$USERR4
 40
0.0
  9
$USERR5
 40
0.0
  9
$WORLDVIEW
 70
     1
  9
$SHADEDGE
 70
     3
  9
$SHADEDIF
 70
    70
  9
$TILEMODE
 70
     1
  9
$MAXACTVP
 70
    64
  9
$PINSBASE
 10
0.0
 20
0.0
 30
0.0
  9
$PLIMCHECK
 70
     0
  9
$PEXTMIN
 10
1.0000000000E+20
 20
1.0000000000E+20
 30
1.0000000000E+20
  9
$PEXTMAX
 10
-1.0000000000E+20
 20
-1.0000000000E+20
 30
-1.0000000000E+20
  9
$PLIMMIN
 10
0.0
 20
0.0
  9
$PLIMMAX
 10
420.0
 20
297.0
  9
$UNITMODE
 70
     0
  9
$VISRETAIN
 70
     1
  9
$PLINEGEN
 70
     0
  9
$PSLTSCALE
 70
     1
  9
$TREEDEPTH
 70
  3020
  9
$CMLSTYLE
  2
Standard
  9
$CMLJUST
 70
     0
  9
$CMLSCALE
 40
20.0
  9
$PROXYGRAPHICS
 70
     1
  9
$MEASUREMENT
 70
     1
  9
$CELWEIGHT
370
    -1
  9
$ENDCAPS
280
     0
  9
$JOINSTYLE
280
     0
  9
$LWDISPLAY
290
     1
  9
$INSUNITS
 70
     4
  9
$HYPERLINKBASE
  1

  9
$STYLESHEET
  1

  9
$XEDIT
290
     1
  9
$CEPSNTYPE
380
     0
  9
$PSTYLEMODE
290
     1
  9
$FINGERPRINTGUID
  2
{888AB0EF-0BD6-44D5-8333-C88EB581A4E1}
  9
$VERSIONGUID
  2
{FAEB1C32-E019-11D5-929B-00C0DF256EC4}
  9
$EXTNAMES
290
     1
  9
$PSVPSCALE
 40
0.0
  9
$OLESTARTUP
290
     0
  0
ENDSEC
  0
SECTION
  2
CLASSES
  0
CLASS
  1
ACDBDICTIONARYWDFLT
  2
AcDbDictionaryWithDefault
  3
ObjectDBX Classes
 90
        0
280
     0
281
     0
  0
CLASS
  1
VISUALSTYLE
  2
AcDbVisualStyle
  3
ObjectDBX Classes
 90
     4095
280
     0
281
     0
  0
CLASS
  1
MATERIAL
  2
AcDbMaterial
  3
ObjectDBX Classes
 90
     1153
280
     0
281
     0
  0
CLASS
  1
SCALE
  2
AcDbScale
  3
ObjectDBX Classes
 90
     1153
280
     0
281
     0
  0
CLASS
  1
TABLESTYLE
  2
AcDbTableStyle
  3
ObjectDBX Classes
 90
     4095
280
     0
281
     0
  0
CLASS
  1
MLEADERSTYLE
  2
AcDbMLeaderStyle
  3
ACDB_MLEADERSTYLE_CLASS
 90
     4095
280
     0
281
     0
  0
CLASS
  1
SUN
  2
AcDbSun
  3
SCENEOE
 90
     1153
280
     0
281
     0
  0
CLASS
  1
ACDBPLACEHOLDER
  2
AcDbPlaceHolder
  3
ObjectDBX Classes
 90
        0
280
     0
281
     0
  0
CLASS
  1
LAYOUT
  2
AcDbLayout
  3
ObjectDBX Classes
 90
        0
280
     0
281
     0
  0
ENDSEC
  0
SECTION
  2
TABLES
  0
TABLE
  2
VPORT
  5
8
330
0
100
AcDbSymbolTable
 70
     1
  0
VPORT
  5
29
330
8
100
AcDbSymbolTableRecord
100
AcDbViewportTableRecord
  2
*Active
 70
     0
 10
0.0
 20
0.0
 11
1.0
 21
1.0
 12
1030.5659583799
 22
-30239.5
 13
0.0
 23
0.0
 14
10.0
 24
10.0
 15
10.0
 25
10.0
 16
0.0
 26
0.0
 36
1.0
 17
0.0
 27
0.0
 37
0.0
 40
70380.0
 41
2.1739130435
 42
50.0
 43
0.0
 44
0.0
 50
0.0
 51
0.0
 71
     0
 72
   100
 73
     1
 74
     3
 75
     0
 76
     0
 77
     0
 78
     0
281
     0
 65
     1
110
0.0
120
0.0
130
0.0
111
1.0
121
0.0
131
0.0
112
0.0
122
1.0
132
0.0
 79
     0
146
0.0
  0
ENDTAB
  0
TABLE
  2
LTYPE
  5
5
330
0
100
AcDbSymbolTable
 70
     6
  0
LTYPE
  5
14
330
5
100
AcDbSymbolTableRecord
100
AcDbLinetypeTableRecord
  2
ByBlock
 70
     0
  3

 72
    65
 73
     0
 40
0.0
  0
LTYPE
  5
15
330
5
100
AcDbSymbolTableRecord
100
AcDbLinetypeTableRecord
  2
ByLayer
 70
     0
  3

 72
    65
 73
     0
 40
0.0
  0
LTYPE
  5
16
330
5
100
AcDbSymbolTableRecord
100
AcDbLinetypeTableRecord
  2
Continuous
 70
     0
  3
Solid line
 72
    65
 73
     0
 40
0.0
  0
LTYPE
  5
6E
330
5
100
AcDbSymbolTableRecord
100
AcDbLinetypeTableRecord
  2
HIDDEN
 70
     0
  3
Hidden __ __ __ __ __ __ __ __ __ __ __ __ __ __
 72
    65
 73
     2
 40
1.905
 49
1.27
 74
     0
 49
-0.635
 74
     0
  0
LTYPE
  5
6F
330
5
100
AcDbSymbolTableRecord
100
AcDbLinetypeTableRecord
  2
PHANTOM
 70
     0
  3
Phantom ______  __  __  ______  __  __  ______
 72
    65
 73
     6
 40
12.7
 49
6.35
 74
     0
 49
-1.27
 74
     0
 49
1.27
 74
     0
 49
-1.27
 74
     0
 49
1.27
 74
     0
 49
-1.27
 74
     0
  0
LTYPE
  5
70
330
5
100
AcDbSymbolTableRecord
100
AcDbLinetypeTableRecord
  2
CENTER
 70
     0
  3
Center ____ _ ____ _ ____ _ ____ _ ____ _ ____
 72
    65
 73
     4
 40
10.16
 49
6.35
 74
     0
 49
-1.27
 74
     0
 49
1.27
 74
     0
 49
-1.27
 74
     0
  0
LTYPE
  5
71
330
5
100
AcDbSymbolTableRecord
100
AcDbLinetypeTableRecord
  2
CENTERX2
 70
     0
  3
Center (2x) ________  __  ________  __  _____
 72
    65
 73
     4
 40
20.32
 49
12.7
 74
     0
 49
-2.54
 74
     0
 49
2.54
 74
     0
 49
-2.54
 74
     0
  0
LTYPE
  5
72
330
5
100
AcDbSymbolTableRecord
100
AcDbLinetypeTableRecord
  2
DOT2
 70
     0
  3
Dot (.5x) ........................................
 72
    65
 73
     2
 40
0.635
 49
0.0
 74
     0
 49
-0.635
 74
     0
  0
ENDTAB
  0
TABLE
  2
LAYER
  5
2
330
0
100
AcDbSymbolTable
 70
     1
  0
LAYER
  5
10
330
2
100
AcDbSymbolTableRecord
100
AcDbLayerTableRecord
  2
0
 70
     0
 62
     7
  6
Continuous
370
    -3
390
F
  0
ENDTAB
  0
TABLE
  2
STYLE
  5
3
330
0
100
AcDbSymbolTable
 70
     1
  0
STYLE
  5
11
330
3
100
AcDbSymbolTableRecord
100
AcDbTextStyleTableRecord
  2
Standard
 70
     0
 40
0.0
 41
1.0
 50
0.0
 71
     0
 42
3.5
  3
txt
  4

  0
ENDTAB
  0
TABLE
  2
VIEW
  5
6
330
0
100
AcDbSymbolTable
 70
     0
  0
ENDTAB
  0
TABLE
  2
UCS
  5
7
330
0
100
AcDbSymbolTable
 70
     0
  0
ENDTAB
  0
TABLE
  2
APPID
  5
9
330
0
100
AcDbSymbolTable
 70
     1
  0
APPID
  5
12
330
9
100
AcDbSymbolTableRecord
100
AcDbRegAppTableRecord
  2
ACAD
 70
     0
  0
ENDTAB
  0
TABLE
  2
DIMSTYLE
  5
A
330
0
100
AcDbSymbolTable
 70
     1
100
AcDbDimStyleTable
  0
DIMSTYLE
105
27
330
A
100
AcDbSymbolTableRecord
100
AcDbDimStyleTableRecord
  2
ISO-25
 70
     0
 41
2.5
 42
0.625
 43
3.75
 44
1.25
 73
     0
 74
     0
 77
     1
 78
     8
140
2.5
141
2.5
143
0.0393700787
147
0.625
171
     3
172
     1
178
     0
271
     2
272
     2
274
     3
278
    44
283
     0
284
     8
340
11
  0
ENDTAB
  0
TABLE
  2
BLOCK_RECORD
  5
1
330
0
100
AcDbSymbolTable
 70
     1
  0
BLOCK_RECORD
  5
1F
330
1
100
AcDbSymbolTableRecord
100
AcDbBlockTableRecord
  2
*Model_Space
340
22
  0
BLOCK_RECORD
  5
1B
330
1
100
AcDbSymbolTableRecord
100
AcDbBlockTableRecord
  2
*Paper_Space
340
1E
  0
BLOCK_RECORD
  5
23
330
1
100
AcDbSymbolTableRecord
100
AcDbBlockTableRecord
  2
*Paper_Space0
340
26
  0
ENDTAB
  0
ENDSEC
  0
SECTION
  2
BLOCKS
  0
BLOCK
  5
20
330
1F
100
AcDbEntity
  8
0
100
AcDbBlockBegin
  2
*Model_Space
 70
     0
 10
0.0
 20
0.0
 30
0.0
  3
*Model_Space
  1

  0
ENDBLK
  5
21
330
1F
100
AcDbEntity
  8
0
100
AcDbBlockEnd
  0
BLOCK
  5
1C
330
1B
100
AcDbEntity
 67
     1
  8
0
100
AcDbBlockBegin
  2
*Paper_Space
 70
     0
 10
0.0
 20
0.0
 30
0.0
  3
*Paper_Space
  1

  0
ENDBLK
  5
1D
330
1B
100
AcDbEntity
 67
     1
  8
0
100
AcDbBlockEnd
  0
BLOCK
  5
24
330
23
100
AcDbEntity
  8
0
100
AcDbBlockBegin
  2
*Paper_Space0
 70
     0
 10
0.0
 20
0.0
 30
0.0
  3
*Paper_Space0
  1

  0
ENDBLK
  5
25
330
23
100
AcDbEntity
  8
0
100
AcDbBlockEnd
  0
ENDSEC
  0
SECTION
  2
ENTITIES
  0
CIRCLE
  5
BC
330
1F
100
AcDbEntity
  8
0
  6
Continuous
 62
     7
370
    15
100
AcDbCircle
 10
-24602.0000000002
 20
-51031.1117099914
 30
0.0
 40
149.9999999999927
  0
CIRCLE
  5
BD
330
1F
100
AcDbEntity
  8
0
  6
Continuous
 62
     7
370
    15
100
AcDbCircle
 10
-24602.0000000002
 20
-39031.1117099914
 30
0.0
 40
149.9999999999854
  0
CIRCLE
  5
BE
330
1F
100
AcDbEntity
  8
0
  6
Continuous
 62
     7
370
    15
100
AcDbCircle
 10
-24602.0000000001
 20
-27031.1117099914
 30
0.0
 40
150.0
  0
CIRCLE
  5
BF
330
1F
100
AcDbEntity
  8
0
  6
Continuous
 62
     7
370
    15
100
AcDbCircle
 10
-12602.0000000001
 20
-27031.1117099915
 30
0.0
 40
149.9999999999745
  0
CIRCLE
  5
C0
330
1F
100
AcDbEntity
  8
0
  6
Continuous
 62
     7
370
    15
100
AcDbCircle
 10
-12602.0000000001
 20
-39031.1117099914
 30
0.0
 40
150.0
  0
CIRCLE
  5
C1
330
1F
100
AcDbEntity
  8
0
  6
Continuous
 62
     7
370
    15
100
AcDbCircle
 10
-12601.9999999999
 20
-51031.1117099914
 30
0.0
 40
150.0000000000073
  0
CIRCLE
  5
C2
330
1F
100
AcDbEntity
  8
0
  6
Continuous
 62
     7
370
    15
100
AcDbCircle
 10
-601.9999999999
 20
-51031.1117099914
 30
0.0
 40
150.0000000000073
  0
CIRCLE
  5
C3
330
1F
100
AcDbEntity
  8
0
  6
Continuous
 62
     7
370
    15
100
AcDbCircle
 10
-602.0000000001
 20
-39031.1117099914
 30
0.0
 40
150.0
  0
CIRCLE
  5
C4
330
1F
100
AcDbEntity
  8
0
  6
Continuous
 62
     7
370
    15
100
AcDbCircle
 10
11397.9999999999
 20
-27031.1117099915
 30
0.0
 40
149.9999999999745
  0
CIRCLE
  5
C5
330
1F
100
AcDbEntity
  8
0
  6
Continuous
 62
     7
370
    15
100
AcDbCircle
 10
11397.9999999999
 20
-39031.1117099914
 30
0.0
 40
150.0
  0
CIRCLE
  5
C6
330
1F
100
AcDbEntity
  8
0
  6
Continuous
 62
     7
370
    15
100
AcDbCircle
 10
11398.0000000001
 20
-51031.1117099914
 30
0.0
 40
150.0000000000073
  0
CIRCLE
  5
C7
330
1F
100
AcDbEntity
  8
0
  6
Continuous
 62
     7
370
    15
100
AcDbCircle
 10
23397.9999999998
 20
-51031.1117099914
 30
0.0
 40
149.9999999999927
  0
CIRCLE
  5
C8
330
1F
100
AcDbEntity
  8
0
  6
Continuous
 62
     7
370
    15
100
AcDbCircle
 10
23397.9999999998
 20
-39031.1117099914
 30
0.0
 40
149.9999999999854
  0
CIRCLE
  5
C9
330
1F
100
AcDbEntity
  8
0
  6
Continuous
 62
     7
370
    15
100
AcDbCircle
 10
23397.9999999999
 20
-27031.1117099914
 30
0.0
 40
149.9999999999964
  0
CIRCLE
  5
CA
330
1F
100
AcDbEntity
  8
0
  6
Continuous
 62
     7
370
    15
100
AcDbCircle
 10
-60285.9283426499
 20
-55299.3012466097
 30
0.0
 40
205.0
  0
CIRCLE
  5
CF
330
1F
100
AcDbEntity
  8
0
  6
Continuous
 62
     7
370
    15
100
AcDbCircle
 10
65319.7538008467
 20
-62997.5280009192
 30
0.0
 40
204.9999999999927
  0
CIRCLE
  5
D0
330
1F
100
AcDbEntity
  8
0
  6
Continuous
 62
     7
370
    15
100
AcDbCircle
 10
71300.6915636309
 20
-62997.5280009193
 30
0.0
 40
204.9999999998763
  0
CIRCLE
  5
10D
330
1F
100
AcDbEntity
  8
0
  6
Continuous
 62
     7
370
    15
100
AcDbCircle
 10
23527.3195123103
 20
-62989.4132252133
 30
0.0
 40
205.0000000000291
  0
CIRCLE
  5
10E
330
1F
100
AcDbEntity
  8
0
  6
Continuous
 62
     7
370
    15
100
AcDbCircle
 10
35512.6682303058
 20
-62989.4132252134
 30
0.0
 40
205.0
  0
CIRCLE
  5
10F
330
1F
100
AcDbEntity
  8
0
  6
Continuous
 62
     7
370
    15
100
AcDbCircle
 10
47514.7780070592
 20
-62989.4132252134
 30
0.0
 40
205.0
  0
CIRCLE
  5
110
330
1F
100
AcDbEntity
  8
0
  6
Continuous
 62
     7
370
    15
100
AcDbCircle
 10
59514.9446011093
 20
-62989.4132252134
 30
0.0
 40
205.0
  0
CIRCLE
  5
111
330
1F
100
AcDbEntity
  8
0
  6
Continuous
 62
     7
370
    15
100
AcDbCircle
 10
11593.8340592524
 20
-62989.4132252134
 30
0.0
 40
204.9999999999854
  0
CIRCLE
  5
112
330
1F
100
AcDbEntity
  8
0
  6
Continuous
 62
     7
370
    15
100
AcDbCircle
 10
-48349.6174139626
 20
-62943.0795805926
 30
0.0
 40
205.0
  0
CIRCLE
  5
113
330
1F
100
AcDbEntity
  8
0
  6
Continuous
 62
     7
370
    15
100
AcDbCircle
 10
-36329.0340269422
 20
-62989.4132252134
 30
0.0
 40
205.0
  0
CIRCLE
  5
114
330
1F
100
AcDbEntity
  8
0
  6
Continuous
 62
     7
370
    15
100
AcDbCircle
 10
-24363.3467482951
 20
-62989.4132252134
 30
0.0
 40
204.9999999999854
  0
CIRCLE
  5
115
330
1F
100
AcDbEntity
  8
0
  6
Continuous
 62
     7
370
    15
100
AcDbCircle
 10
-12403.2683964548
 20
-62989.4132252134
 30
0.0
 40
204.9999999999782
  0
CIRCLE
  5
116
330
1F
100
AcDbEntity
  8
0
  6
Continuous
 62
     7
370
    15
100
AcDbCircle
 10
-60285.9283426497
 20
-62963.4512720597
 30
0.0
 40
205.0
  0
CIRCLE
  5
117
330
1F
100
AcDbEntity
  8
0
  6
Continuous
 62
     7
370
    15
100
AcDbCircle
 10
-405.9919853896
 20
-62989.4132252134
 30
0.0
 40
205.0
  0
CIRCLE
  5
1A6
330
1F
100
AcDbEntity
  8
0
  6
Continuous
 62
     7
370
    15
100
AcDbCircle
 10
-59859.069699066
 20
-26795.7599456046
 30
0.0
 40
205.0000000000036
  0
CIRCLE
  5
1A7
330
1F
100
AcDbEntity
  8
0
  6
Continuous
 62
     7
370
    15
100
AcDbCircle
 10
-59859.0696990658
 20
-38745.2110671771
 30
0.0
 40
205.0000000000073
  0
CIRCLE
  5
1A8
330
1F
100
AcDbEntity
  8
0
  6
Continuous
 62
     7
370
    15
100
AcDbCircle
 10
-59859.069699066
 20
-50670.6094162201
 30
0.0
 40
205.0
  0
CIRCLE
  5
1A9
330
1F
100
AcDbEntity
  8
0
  6
Continuous
 62
     7
370
    15
100
AcDbCircle
 10
-36602.0000000001
 20
-27031.1117099914
 30
0.0
 40
205.0000000000036
  0
CIRCLE
  5
1AA
330
1F
100
AcDbEntity
  8
0
  6
Continuous
 62
     7
370
    15
100
AcDbCircle
 10
-36602.0000000003
 20
-39031.1117099914
 30
0.0
 40
204.9999999999927
  0
CIRCLE
  5
1AB
330
1F
100
AcDbEntity
  8
0
  6
Continuous
 62
     7
370
    15
100
AcDbCircle
 10
-36602.0000000003
 20
-51031.1117099914
 30
0.0
 40
204.9999999999927
  0
CIRCLE
  5
1AC
330
1F
100
AcDbEntity
  8
0
  6
Continuous
 62
     7
370
    15
100
AcDbCircle
 10
-602.0000000001
 20
-27031.1117099914
 30
0.0
 40
150.0
  0
CIRCLE
  5
1AD
330
1F
100
AcDbEntity
  8
0
  6
Continuous
 62
     7
370
    15
100
AcDbCircle
 10
-47909.5458961704
 20
-38745.2110671771
 30
0.0
 40
205.0
  0
CIRCLE
  5
1AE
330
1F
100
AcDbEntity
  8
0
  6
Continuous
 62
     7
370
    15
100
AcDbCircle
 10
-47909.5458961707
 20
-26854.9433852032
 30
0.0
 40
205.0000000000036
  0
SPLINE
  5
26C
330
1F
100
AcDbEntity
  8
0
  6
Continuous
 62
     7
370
    15
100
AcDbSpline
210
0.0
220
0.0
230
1.0
 70
     8
 71
     3
 72
    11
 73
     7
 74
     0
 42
0.000000001
 43
0.00000001
 40
0.0
 40
0.0
 40
0.0
 40
0.0
 40
0.2785192552591804
 40
0.4004729645284201
 40
0.6586433918239232
 40
1.0
 40
1.0
 40
1.0
 40
1.0
 10
-28707.88704762149
 20
-20796.07973375181
 30
0.0
 10
-28830.56181015709
 20
-21026.88367253976
 30
0.0
 10
-28909.43998796002
 20
-21406.03300016958
 30
0.0
 10
-28827.65440034131
 20
-22018.90535068656
 30
0.0
 10
-28550.56023806965
 20
-22651.04270689406
 30
0.0
 10
-28142.26942117445
 20
-23051.22213278267
 30
0.0
 10
-27877.89011738361
 20
-23229.49075481294
 30
0.0
  0
SPLINE
  5
26E
330
1F
100
AcDbEntity
  8
0
  6
Continuous
 62
     7
370
    15
100
AcDbSpline
210
0.0
220
0.0
230
1.0
 70
     8
 71
     3
 72
    10
 73
     6
 74
     0
 42
0.000000001
 43
0.00000001
 40
0.0
 40
0.0
 40
0.0
 40
0.0
 40
0.3390328057507345
 40
0.5599261888414157
 40
1.0
 40
1.0
 40
1.0
 40
1.0
 10
-28322.29338044992
 20
-20796.07973375181
 30
0.0
 10
-28445.12757170602
 20
-21052.67782874425
 30
0.0
 10
-28522.2183493298
 20
-21526.66884106701
 30
0.0
 10
-28391.14672089253
 20
-22361.50512643527
 30
0.0
 10
-28035.39598920502
 20
-22834.0060457547
 30
0.0
 10
-27714.57166792921
 20
-23018.94266937093
 30
0.0
  0
SPLINE
  5
27B
330
1F
100
AcDbEntity
  8
0
  6
Continuous
 62
     7
370
    15
100
AcDbSpline
210
0.0
220
0.0
230
1.0
 70
     8
 71
     3
 72
     8
 73
     4
 74
     0
 42
0.000000001
 43
0.00000001
 40
0.0
 40
0.0
 40
0.0
 40
0.0
 40
1.0
 40
1.0
 40
1.0
 40
1.0
 10
-25406.66565286517
 20
-22307.32449871633
 30
0.0
 10
-25550.76795632809
 20
-22686.41402794233
 30
0.0
 10
-25851.66112688981
 20
-23015.85484568501
 30
0.0
 10
-26239.41810933193
 20
-23151.37298704614
 30
0.0
  0
SPLINE
  5
27C
330
1F
100
AcDbEntity
  8
0
  6
Continuous
 62
     7
370
    15
100
AcDbSpline
210
0.0
220
0.0
230
1.0
 70
     8
 71
     3
 72
    11
 73
     7
 74
     0
 42
0.000000001
 43
0.00000001
 40
0.0
 40
0.0
 40
0.0
 40
0.0
 40
0.4444484831179906
 40
0.6432646306711268
 40
0.7822029476373205
 40
1.0
 40
1.0
 40
1.0
 40
1.0
 10
-26570.36140028936
 20
-23632.19764842264
 30
0.0
 10
-26305.65359509373
 20
-23622.68950616529
 30
0.0
 10
-25917.61832476854
 20
-23518.99017393148
 30
0.0
 10
-25548.89066305012
 20
-23224.69462617977
 30
0.0
 10
-25316.61462954012
 20
-22986.92174076684
 30
0.0
 10
-25179.79089799415
 20
-22822.83499650351
 30
0.0
 10
-25096.25153497658
 20
-22722.93085175808
 30
0.0
  0
SPLINE
  5
2A0
330
1F
100
AcDbEntity
  8
0
  6
Continuous
 62
     7
370
    15
100
AcDbSpline
210
0.0
220
0.0
230
1.0
 70
     8
 71
     3
 72
    10
 73
     6
 74
     0
 42
0.000000001
 43
0.00000001
 40
0.0
 40
0.0
 40
0.0
 40
0.0
 40
0.2480258954102635
 40
0.4429045610095124
 40
1.0
 40
1.0
 40
1.0
 40
1.0
 10
-30231.59852501248
 20
-30331.80882420824
 30
0.0
 10
-30271.40170994115
 20
-29701.46127453126
 30
0.0
 10
-30124.09393288983
 20
-28585.65479990315
 30
0.0
 10
-29625.38906960406
 20
-26094.4137734453
 30
0.0
 10
-28635.49529170277
 20
-24403.11719065969
 30
0.0
 10
-27877.89011738361
 20
-23229.49075481295
 30
0.0
  0
SPLINE
  5
2A6
330
1F
100
AcDbEntity
  8
0
  6
Continuous
 62
     7
370
    15
100
AcDbSpline
210
0.0
220
0.0
230
1.0
 70
     8
 71
     3
 72
    10
 73
     6
 74
     0
 42
0.000000001
 43
0.00000001
 40
0.0
 40
0.0
 40
0.0
 40
0.0
 40
0.2966253500711018
 40
0.563968736488265
 40
1.0
 40
1.0
 40
1.0
 40
1.0
 10
-26570.36140028149
 20
-23632.19764842231
 30
0.0
 10
-26962.16038778351
 20
-24225.75451214789
 30
0.0
 10
-27814.32635572052
 20
-25306.14379194754
 30
0.0
 10
-28630.13269531774
 20
-27598.19857082222
 30
0.0
 10
-28931.77524503656
 20
-29269.02566589412
 30
0.0
 10
-28866.39727171577
 20
-30331.80882420824
 30
0.0
  0
SPLINE
  5
2B3
330
1F
100
AcDbEntity
  8
0
  6
Continuous
 62
     7
370
    15
100
AcDbSpline
210
0.0
220
0.0
230
1.0
 70
     8
 71
     3
 72
     8
 73
     4
 74
     0
 42
0.000000001
 43
0.00000001
 40
0.941595905927137
 40
0.941595905927137
 40
0.941595905927137
 40
0.941595905927137
 40
1.0
 40
1.0
 40
1.0
 40
1.0
 10
-25345.94201015628
 20
-23012.92880148149
 30
0.0
 10
-25262.31235522203
 20
-22923.2664321806
 30
0.0
 10
-25179.59748954268
 20
-22826.09425065972
 30
0.0
 10
-25096.25153497658
 20
-22722.93085175808
 30
0.0
  0
SPLINE
  5
2B4
330
1F
100
AcDbEntity
  8
0
  6
Continuous
 62
     7
370
    15
100
AcDbSpline
210
0.0
220
0.0
230
1.0
 70
     8
 71
     3
 72
     9
 73
     5
 74
     0
 42
0.000000001
 43
0.00000001
 40
0.6932035124671919
 40
0.6932035124671919
 40
0.6932035124671919
 40
0.6932035124671919
 40
0.767083541209569
 40
0.8255347868567758
 40
0.8255347868567758
 40
0.8255347868567758
 40
0.8255347868567758
 10
-26573.88734781282
 20
-23637.53631276585
 30
0.0
 10
-26430.52931037312
 20
-23634.726078902
 30
0.0
 10
-26181.52217980406
 20
-23598.50657360948
 30
0.0
 10
-25960.92493847572
 20
-23500.43821419869
 30
0.0
 10
-25867.47947874737
 20
-23446.57645082571
 30
0.0
  0
SPLINE
  5
2B6
330
1F
100
AcDbEntity
  8
0
  6
Continuous
 62
     7
370
    15
100
AcDbSpline
210
0.0
220
0.0
230
1.0
 70
     8
 71
     3
 72
    18
 73
    14
 74
     0
 42
0.000000001
 43
0.00000001
 40
0.0
 40
0.0
 40
0.0
 40
0.0
 40
0.0438570388174271
 40
0.1414525768806494
 40
0.2392631572164945
 40
0.3372791866927453
 40
0.4354910040029215
 40
0.5338890021684072
 40
0.6268265430876425
 40
0.7199135421558112
 40
0.8131426558663011
 40
0.9065069524177778
 40
1.0
 40
1.0
 40
1.0
 40
1.0
 10
-28320.13903623016
 20
-22849.92857713255
 30
0.0
 10
-28314.40662479804
 20
-22856.26235215037
 30
0.0
 10
-28295.9178168284
 20
-22876.69074453185
 30
0.0
 10
-28263.58625898782
 20
-22910.26749698331
 30
0.0
 10
-28223.18638731954
 20
-22950.69699082318
 30
0.0
 10
-28181.70322246454
 20
-22990.19425269314
 30
0.0
 10
-28139.23476683881
 20
-23028.79802725364
 30
0.0
 10
-28096.61651075957
 20
-23065.74403468048
 30
0.0
 10
-28053.93781267302
 20
-23101.07278126382
 30
0.0
 10
-28011.28127156207
 20
-23134.82963207438
 30
0.0
 10
-27967.80892146458
 20
-23167.66492724835
 30
0.0
 10
-27923.60334129154
 20
-23199.64714752128
 30
0.0
 10
-27893.52456054318
 20
-23220.14203339237
 30
0.0
 10
-27878.4748075203
 20
-23230.39653716273
 30
0.0
  0
SPLINE
  5
2B7
330
1F
100
AcDbEntity
  8
0
  6
Continuous
 62
     7
370
    15
100
AcDbSpline
210
0.0
220
0.0
230
1.0
 70
     8
 71
     3
 72
     8
 73
     4
 74
     0
 42
0.000000001
 43
0.00000001
 40
0.1575020102566164
 40
0.1575020102566164
 40
0.1575020102566164
 40
0.1575020102566164
 40
0.3131177246012473
 40
0.3131177246012473
 40
0.3131177246012473
 40
0.3131177246012473
 10
-28866.39727171556
 20
-21706.19733479921
 30
0.0
 10
-28832.08000073466
 20
-22005.50644144393
 30
0.0
 10
-28718.98134986162
 20
-22297.00919609035
 30
0.0
 10
-28546.97137110788
 20
-22558.82670651157
 30
0.0
  0
LINE
  5
371
330
1F
100
AcDbEntity
  8
0
  6
Continuous
 62
     7
370
    15
100
AcDbLine
 10
-28566.0000000001
 20
-46281.1117099914
 30
0.0
 11
-28566.0000000001
 21
-46181.1117099914
 31
0.0
  0
LINE
  5
372
330
1F
100
AcDbEntity
  8
0
  6
Continuous
 62
     7
370
    15
100
AcDbLine
 10
-28566.0000000001
 20
-46181.1117099914
 30
0.0
 11
-28466.0000000001
 21
-46181.1117099914
 31
0.0
  0
LINE
  5
373
330
1F
100
AcDbEntity
  8
0
  6
Continuous
 62
     7
370
    15
100
AcDbLine
 10
-28466.0000000001
 20
-46281.1117099914
 30
0.0
 11
-28566.0000000001
 21
-46281.1117099914
 31
0.0
  0
LINE
  5
374
330
1F
100
AcDbEntity
  8
0
  6
Continuous
 62
     7
370
    15
100
AcDbLine
 10
-28466.0000000001
 20
-46181.1117099914
 30
0.0
 11
-28466.0000000001
 21
-46281.1117099914
 31
0.0
  0
LINE
  5
375
330
1F
100
AcDbEntity
  8
0
  6
Continuous
 62
     7
370
    15
100
AcDbLine
 10
-28566.0000000001
 20
-50281.1117099914
 30
0.0
 11
-28466.0000000001
 21
-50281.1117099914
 31
0.0
  0
LINE
  5
376
330
1F
100
AcDbEntity
  8
0
  6
Continuous
 62
     7
370
    15
100
AcDbLine
 10
-28466.0000000001
 20
-50281.1117099914
 30
0.0
 11
-28466.0000000001
 21
-50381.1117099914
 31
0.0
  0
LINE
  5
377
330
1F
100
AcDbEntity
  8
0
  6
Continuous
 62
     7
370
    15
100
AcDbLine
 10
-28566.0000000001
 20
-50381.1117099914
 30
0.0
 11
-28566.0000000001
 21
-50281.1117099914
 31
0.0
  0
LINE
  5
378
330
1F
100
AcDbEntity
  8
0
  6
Continuous
 62
     7
370
    15
100
AcDbLine
 10
-28466.0000000001
 20
-50381.1117099914
 30
0.0
 11
-28566.0000000001
 21
-50381.1117099914
 31
0.0
  0
LINE
  5
379
330
1F
100
AcDbEntity
  8
0
  6
Continuous
 62
     7
370
    15
100
AcDbLine
 10
-25186.1502363714
 20
-48208.6117099914
 30
0.0
 11
-25474.6032309876
 21
-47708.9964677208
 31
0.0
  0
LINE
  5
37A
330
1F
100
AcDbEntity
  8
0
  6
Continuous
 62
     7
370
    15
100
AcDbLine
 10
-25439.9622148362
 20
-48728.2269522621
 30
0.0
 11
-25139.9622148362
 21
-48208.6117099914
 31
0.0
  0
LINE
  5
37B
330
1F
100
AcDbEntity
  8
0
  6
Continuous
 62
     7
370
    15
100
AcDbLine
 10
-25186.1502363714
 20
-48208.6117099914
 30
0.0
 11
-25474.6032309876
 21
-48708.2269522621
 31
0.0
  0
LINE
  5
37C
330
1F
100
AcDbEntity
  8
0
  6
Continuous
 62
     7
370
    15
100
AcDbLine
 10
-25139.9622148362
 20
-48208.6117099914
 30
0.0
 11
-25439.9622148362
 21
-47688.9964677208
 31
0.0
  0
LINE
  5
37D
330
1F
100
AcDbEntity
  8
0
  6
Continuous
 62
     7
370
    15
100
AcDbLine
 10
-25439.9622148362
 20
-48728.2269522621
 30
0.0
 11
-25474.6032309876
 21
-48708.2269522621
 31
0.0
  0
LINE
  5
37E
330
1F
100
AcDbEntity
  8
0
  6
Continuous
 62
     7
370
    15
100
AcDbLine
 10
-25439.9622148362
 20
-47688.9964677208
 30
0.0
 11
-25474.6032309876
 21
-47708.9964677208
 31
0.0
  0
LINE
  5
37F
330
1F
100
AcDbEntity
  8
0
  6
Continuous
 62
     7
370
    15
100
AcDbLine
 10
-24800.0000000001
 20
-47985.1117099914
 30
0.0
 11
-25269.0000000001
 21
-47985.1117099914
 31
0.0
  0
LINE
  5
380
330
1F
100
AcDbEntity
  8
0
  6
Continuous
 62
     7
370
    15
100
AcDbLine
 10
-24800.0000000001
 20
-48432.1117099914
 30
0.0
 11
-24800.0000000001
 21
-47985.1117099914
 31
0.0
  0
LINE
  5
381
330
1F
100
AcDbEntity
  8
0
  6
Continuous
 62
     7
370
    15
100
AcDbLine
 10
-24800.0000000001
 20
-48432.1117099914
 30
0.0
 11
-25269.0000000001
 21
-48432.1117099914
 31
0.0
  0
LINE
  5
382
330
1F
100
AcDbEntity
  8
0
  6
Continuous
 62
     7
370
    15
100
AcDbLine
 10
62755.4088042985
 20
-8863.7126207041
 30
0.0
 11
62755.4088042985
 21
-8763.7126207041
 31
0.0
  0
LINE
  5
383
330
1F
100
AcDbEntity
  8
0
  6
Continuous
 62
     7
370
    15
100
AcDbLine
 10
58657.6112484522
 20
-8863.7126207041
 30
0.0
 11
62755.4088042985
 21
-8863.7126207041
 31
0.0
  0
LINE
  5
384
330
1F
100
AcDbEntity
  8
0
  6
Continuous
 62
     7
370
    15
100
AcDbLine
 10
58657.6112484522
 20
-8863.7126207041
 30
0.0
 11
58657.6112484522
 21
-8763.7126207041
 31
0.0
  0
LINE
  5
385
330
1F
100
AcDbEntity
  8
0
  6
Continuous
 62
     7
370
    15
100
AcDbLine
 10
62352.5524595424
 20
-55086.8109987349
 30
0.0
 11
76030.5659583799
 21
-55086.8109987349
 31
0.0
  0
LINE
  5
386
330
1F
100
AcDbEntity
  8
0
  6
Continuous
 62
     7
370
    15
100
AcDbLine
 10
65056.8988581254
 20
-54986.8109987349
 30
0.0
 11
65056.8988581254
 21
-55086.8109987349
 31
0.0
  0
LINE
  5
387
330
1F
100
AcDbEntity
  8
0
  6
Continuous
 62
     7
370
    15
100
AcDbLine
 10
76030.5659583799
 20
-54986.8109987349
 30
0.0
 11
65056.8988581254
 21
-54986.8109987349
 31
0.0
  0
LINE
  5
388
330
1F
100
AcDbEntity
  8
0
  6
Continuous
 62
     7
370
    15
100
AcDbLine
 10
46302.9619817729
 20
-8763.7126207041
 30
0.0
 11
76030.5659583799
 21
-8763.7126207041
 31
0.0
  0
LINE
  5
389
330
1F
100
AcDbEntity
  8
0
  6
Continuous
 62
     7
370
    15
100
AcDbLine
 10
76030.5659583799
 20
-55086.8109987349
 30
0.0
 11
76030.5659583799
 21
-8763.7126207041
 31
0.0
  0
LINE
  5
38A
330
1F
100
AcDbEntity
  8
0
  6
Continuous
 62
     7
370
    15
100
AcDbLine
 10
66450.8171186886
 20
-8863.7126207041
 30
0.0
 11
76030.5659583799
 21
-8863.7126207041
 31
0.0
  0
LINE
  5
38B
330
1F
100
AcDbEntity
  8
0
  6
Continuous
 62
     7
370
    15
100
AcDbLine
 10
66450.8171186886
 20
-8763.7126207041
 30
0.0
 11
66450.8171186886
 21
-8863.7126207041
 31
0.0
  0
LINE
  5
38C
330
1F
100
AcDbEntity
  8
0
  6
Continuous
 62
     7
370
    15
100
AcDbLine
 10
-57760.7070925056
 20
-55339.4182781006
 30
0.0
 11
-52537.4300982947
 21
-55339.4182781006
 31
0.0
  0
LINE
  5
38D
330
1F
100
AcDbEntity
  8
0
  6
Continuous
 62
     7
370
    15
100
AcDbLine
 10
-57760.7070925056
 20
-52203.598834006
 30
0.0
 11
-57760.7070925056
 21
-55339.4182781006
 31
0.0
  0
LINE
  5
38E
330
1F
100
AcDbEntity
  8
0
  6
Continuous
 62
     7
370
    15
100
AcDbLine
 10
-57760.7070925056
 20
-52203.598834006
 30
0.0
 11
-52537.4300982947
 21
-52203.598834006
 31
0.0
  0
LINE
  5
38F
330
1F
100
AcDbEntity
  8
0
  6
Continuous
 62
     7
370
    15
100
AcDbLine
 10
-52537.4300982947
 20
-52203.598834006
 30
0.0
 11
-52537.4300982947
 21
-55339.4182781006
 31
0.0
  0
LINE
  5
390
330
1F
100
AcDbEntity
  8
0
  6
Continuous
 62
     7
370
    15
100
AcDbLine
 10
-57610.7070925056
 20
-55189.4182781006
 30
0.0
 11
-52687.4300982947
 21
-55189.4182781006
 31
0.0
  0
LINE
  5
391
330
1F
100
AcDbEntity
  8
0
  6
Continuous
 62
     7
370
    15
100
AcDbLine
 10
-57610.7070925056
 20
-52353.598834006
 30
0.0
 11
-52687.4300982947
 21
-52353.598834006
 31
0.0
  0
LINE
  5
392
330
1F
100
AcDbEntity
  8
0
  6
Continuous
 62
     7
370
    15
100
AcDbLine
 10
-57610.7070925056
 20
-52353.598834006
 30
0.0
 11
-57610.7070925056
 21
-55189.4182781006
 31
0.0
  0
LINE
  5
393
330
1F
100
AcDbEntity
  8
0
  6
Continuous
 62
     7
370
    15
100
AcDbLine
 10
-52687.4300982947
 20
-52353.598834006
 30
0.0
 11
-52687.4300982947
 21
-55189.4182781006
 31
0.0
  0
LINE
  5
394
330
1F
100
AcDbEntity
  8
0
  6
Continuous
 62
     7
370
    15
100
AcDbLine
 10
52305.7392501834
 20
-54915.4644490451
 30
0.0
 11
55700.0141766682
 21
-54915.4644490451
 31
0.0
  0
LINE
  5
395
330
1F
100
AcDbEntity
  8
0
  6
Continuous
 62
     7
370
    15
100
AcDbLine
 10
55700.0141766682
 20
-52174.5178857649
 30
0.0
 11
55700.0141766682
 21
-54915.4644490451
 31
0.0
  0
LINE
  5
396
330
1F
100
AcDbEntity
  8
0
  6
Continuous
 62
     7
370
    15
100
AcDbLine
 10
52155.7392501834
 20
-55065.4644490451
 30
0.0
 11
55850.0141766682
 21
-55065.4644490451
 31
0.0
  0
LINE
  5
397
330
1F
100
AcDbEntity
  8
0
  6
Continuous
 62
     7
370
    15
100
AcDbLine
 10
52305.7392501834
 20
-52174.5178857649
 30
0.0
 11
52305.7392501834
 21
-54915.4644490451
 31
0.0
  0
LINE
  5
398
330
1F
100
AcDbEntity
  8
0
  6
Continuous
 62
     7
370
    15
100
AcDbLine
 10
52305.7392501834
 20
-52174.5178857649
 30
0.0
 11
55700.0141766682
 21
-52174.5178857649
 31
0.0
  0
LINE
  5
399
330
1F
100
AcDbEntity
  8
0
  6
Continuous
 62
     7
370
    15
100
AcDbLine
 10
52155.7392501834
 20
-52024.5178857649
 30
0.0
 11
52155.7392501834
 21
-55065.4644490451
 31
0.0
  0
LINE
  5
39A
330
1F
100
AcDbEntity
  8
0
  6
Continuous
 62
     7
370
    15
100
AcDbLine
 10
55850.0141766682
 20
-52024.5178857649
 30
0.0
 11
55850.0141766682
 21
-55065.4644490451
 31
0.0
  0
LINE
  5
39B
330
1F
100
AcDbEntity
  8
0
  6
Continuous
 62
     7
370
    15
100
AcDbLine
 10
52155.7392501834
 20
-52024.5178857649
 30
0.0
 11
55850.0141766682
 21
-52024.5178857649
 31
0.0
  0
LINE
  5
39C
330
1F
100
AcDbEntity
  8
0
  6
Continuous
 62
     7
370
    15
100
AcDbLine
 10
-51601.7760467843
 20
-52600.058312246
 30
0.0
 11
-51601.7760467843
 21
-54902.5544167208
 31
0.0
  0
LINE
  5
39D
330
1F
100
AcDbEntity
  8
0
  6
Continuous
 62
     7
370
    15
100
AcDbLine
 10
-51601.7760467843
 20
-54902.5544167208
 30
0.0
 11
-50468.2274891934
 21
-54902.5544167208
 31
0.0
  0
LINE
  5
39E
330
1F
100
AcDbEntity
  8
0
  6
Continuous
 62
     7
370
    15
100
AcDbLine
 10
-49593.8167767532
 20
-52600.058312246
 30
0.0
 11
-49593.8167767532
 21
-53994.7334912301
 31
0.0
  0
LINE
  5
39F
330
1F
100
AcDbEntity
  8
0
  6
Continuous
 62
     7
370
    15
100
AcDbLine
 10
-51601.7760467843
 20
-52600.058312246
 30
0.0
 11
-49593.8167767532
 21
-52600.058312246
 31
0.0
  0
LINE
  5
3A0
330
1F
100
AcDbEntity
  8
0
  6
Continuous
 62
     7
370
    15
100
AcDbLine
 10
-50318.2274891935
 20
-54144.7334912301
 30
0.0
 11
-50318.2274891935
 21
-55052.5544167208
 31
0.0
  0
LINE
  5
3A1
330
1F
100
AcDbEntity
  8
0
  6
Continuous
 62
     7
370
    15
100
AcDbLine
 10
-50318.2274891935
 20
-54144.7334912301
 30
0.0
 11
-49443.8167767532
 21
-54144.7334912301
 31
0.0
  0
LINE
  5
3A2
330
1F
100
AcDbEntity
  8
0
  6
Continuous
 62
     7
370
    15
100
AcDbLine
 10
-50468.2274891934
 20
-53994.7334912301
 30
0.0
 11
-49593.8167767532
 21
-53994.7334912301
 31
0.0
  0
LINE
  5
3A3
330
1F
100
AcDbEntity
  8
0
  6
Continuous
 62
     7
370
    15
100
AcDbLine
 10
-50468.2274891934
 20
-53994.7334912301
 30
0.0
 11
-50468.2274891934
 21
-54902.5544167208
 31
0.0
  0
LINE
  5
3A4
330
1F
100
AcDbEntity
  8
0
  6
Continuous
 62
     7
370
    15
100
AcDbLine
 10
-51751.7760467843
 20
-55052.5544167208
 30
0.0
 11
-50318.2274891935
 21
-55052.5544167208
 31
0.0
  0
LINE
  5
3A5
330
1F
100
AcDbEntity
  8
0
  6
Continuous
 62
     7
370
    15
100
AcDbLine
 10
-51751.7760467843
 20
-52450.058312246
 30
0.0
 11
-51751.7760467843
 21
-55052.5544167208
 31
0.0
  0
LINE
  5
3A6
330
1F
100
AcDbEntity
  8
0
  6
Continuous
 62
     7
370
    15
100
AcDbLine
 10
-51751.7760467843
 20
-52450.058312246
 30
0.0
 11
-49443.8167767532
 21
-52450.058312246
 31
0.0
  0
LINE
  5
3A7
330
1F
100
AcDbEntity
  8
0
  6
Continuous
 62
     7
370
    15
100
AcDbLine
 10
-49443.8167767532
 20
-52450.058312246
 30
0.0
 11
-49443.8167767532
 21
-54144.7334912301
 31
0.0
  0
LINE
  5
3A8
330
1F
100
AcDbEntity
  8
0
  6
Continuous
 62
     7
370
    15
100
AcDbLine
 10
56142.558546822
 20
-52174.5178857649
 30
0.0
 11
56142.558546822
 21
-53394.991167405
 31
0.0
  0
LINE
  5
3A9
330
1F
100
AcDbEntity
  8
0
  6
Continuous
 62
     7
370
    15
100
AcDbLine
 10
56950.3099776933
 20
-53394.991167405
 30
0.0
 11
56950.3099776933
 21
-54380.9230609685
 31
0.0
  0
LINE
  5
3AA
330
1F
100
AcDbEntity
  8
0
  6
Continuous
 62
     7
370
    15
100
AcDbLine
 10
56950.3099776933
 20
-54380.9230609685
 30
0.0
 11
58028.2388891796
 21
-54380.9230609685
 31
0.0
  0
LINE
  5
3AB
330
1F
100
AcDbEntity
  8
0
  6
Continuous
 62
     7
370
    15
100
AcDbLine
 10
58028.2388891796
 20
-52174.5178857649
 30
0.0
 11
58028.2388891796
 21
-54380.9230609685
 31
0.0
  0
LINE
  5
3AC
330
1F
100
AcDbEntity
  8
0
  6
Continuous
 62
     7
370
    15
100
AcDbLine
 10
56142.558546822
 20
-52174.5178857649
 30
0.0
 11
58028.2388891796
 21
-52174.5178857649
 31
0.0
  0
LINE
  5
3AD
330
1F
100
AcDbEntity
  8
0
  6
Continuous
 62
     7
370
    15
100
AcDbLine
 10
56800.3099776933
 20
-54530.9230609685
 30
0.0
 11
58178.2388891796
 21
-54530.9230609685
 31
0.0
  0
LINE
  5
3AE
330
1F
100
AcDbEntity
  8
0
  6
Continuous
 62
     7
370
    15
100
AcDbLine
 10
55992.558546822
 20
-53544.991167405
 30
0.0
 11
56800.3099776933
 21
-53544.991167405
 31
0.0
  0
LINE
  5
3AF
330
1F
100
AcDbEntity
  8
0
  6
Continuous
 62
     7
370
    15
100
AcDbLine
 10
56142.558546822
 20
-53394.991167405
 30
0.0
 11
56950.3099776933
 21
-53394.991167405
 31
0.0
  0
LINE
  5
3B0
330
1F
100
AcDbEntity
  8
0
  6
Continuous
 62
     7
370
    15
100
AcDbLine
 10
55992.558546822
 20
-52024.5178857649
 30
0.0
 11
55992.558546822
 21
-53544.991167405
 31
0.0
  0
LINE
  5
3B1
330
1F
100
AcDbEntity
  8
0
  6
Continuous
 62
     7
370
    15
100
AcDbLine
 10
56800.3099776933
 20
-53544.991167405
 30
0.0
 11
56800.3099776933
 21
-54530.9230609685
 31
0.0
  0
LINE
  5
3B2
330
1F
100
AcDbEntity
  8
0
  6
Continuous
 62
     7
370
    15
100
AcDbLine
 10
58178.2388891796
 20
-52024.5178857649
 30
0.0
 11
58178.2388891796
 21
-54530.9230609685
 31
0.0
  0
LINE
  5
3B3
330
1F
100
AcDbEntity
  8
0
  6
Continuous
 62
     7
370
    15
100
AcDbLine
 10
55992.558546822
 20
-52024.5178857649
 30
0.0
 11
58178.2388891796
 21
-52024.5178857649
 31
0.0
  0
LINE
  5
3B4
330
1F
100
AcDbEntity
  8
0
  6
Continuous
 62
     7
370
    15
100
AcDbLine
 10
16928.8214679438
 20
-6236.8132968351
 30
0.0
 11
16928.8214679438
 21
-6659.342707686
 31
0.0
  0
LINE
  5
3B5
330
1F
100
AcDbEntity
  8
0
  6
Continuous
 62
     7
370
    15
100
AcDbLine
 10
17343.5244135851
 20
-6236.8132968351
 30
0.0
 11
17343.5244135851
 21
-6659.342707686
 31
0.0
  0
LINE
  5
3B6
330
1F
100
AcDbEntity
  8
0
  6
Continuous
 62
     7
370
    15
100
AcDbLine
 10
16928.8214679438
 20
-6236.8132968351
 30
0.0
 11
17343.5244135851
 21
-6236.8132968351
 31
0.0
  0
LINE
  5
3B7
330
1F
100
AcDbEntity
  8
0
  6
Continuous
 62
     7
370
    15
100
AcDbLine
 10
16928.8214679438
 20
-6659.342707686
 30
0.0
 11
17343.5244135851
 21
-6659.342707686
 31
0.0
  0
LINE
  5
3B8
330
1F
100
AcDbEntity
  8
0
  6
Continuous
 62
     7
370
    15
100
AcDbLine
 10
32989.8490127989
 20
-64244.1675934124
 30
0.0
 11
34666.2675958367
 21
-64244.1675934124
 31
0.0
  0
LINE
  5
3B9
330
1F
100
AcDbEntity
  8
0
  6
Continuous
 62
     7
370
    15
100
AcDbLine
 10
32989.8490127989
 20
-64070.1004692517
 30
0.0
 11
32989.8490127989
 21
-64244.1675934124
 31
0.0
  0
LINE
  5
3BA
330
1F
100
AcDbEntity
  8
0
  6
Continuous
 62
     7
370
    15
100
AcDbLine
 10
32989.8490127989
 20
-64070.1004692517
 30
0.0
 11
34666.2675958367
 21
-64070.1004692517
 31
0.0
  0
LINE
  5
3BB
330
1F
100
AcDbEntity
  8
0
  6
Continuous
 62
     7
370
    15
100
AcDbLine
 10
34666.2675958367
 20
-64070.1004692517
 30
0.0
 11
34666.2675958367
 21
-64244.1675934124
 31
0.0
  0
LINE
  5
3BC
330
1F
100
AcDbEntity
  8
0
  6
Continuous
 62
     7
370
    15
100
AcDbLine
 10
11052.6148849776
 20
-6659.342707686
 30
0.0
 11
11466.7740463657
 21
-6659.342707686
 31
0.0
  0
LINE
  5
3BD
330
1F
100
AcDbEntity
  8
0
  6
Continuous
 62
     7
370
    15
100
AcDbLine
 10
11052.6148849776
 20
-6236.8132968351
 30
0.0
 11
11052.6148849776
 21
-6659.342707686
 31
0.0
  0
LINE
  5
3BE
330
1F
100
AcDbEntity
  8
0
  6
Continuous
 62
     7
370
    15
100
AcDbLine
 10
11052.6148849776
 20
-6236.8132968351
 30
0.0
 11
11466.7740463657
 21
-6236.8132968351
 31
0.0
  0
LINE
  5
3BF
330
1F
100
AcDbEntity
  8
0
  6
Continuous
 62
     7
370
    15
100
AcDbLine
 10
11466.7740463657
 20
-6236.8132968351
 30
0.0
 11
11466.7740463657
 21
-6659.342707686
 31
0.0
  0
LINE
  5
3C0
330
1F
100
AcDbEntity
  8
0
  6
Continuous
 62
     7
370
    15
100
AcDbLine
 10
-65355.737386049
 20
-1239.5
 30
0.0
 11
-46638.3402986719
 21
-1239.5
 31
0.0
  0
LINE
  5
3C1
330
1F
100
AcDbEntity
  8
0
  6
Continuous
 62
     7
370
    15
100
AcDbLine
 10
-65205.737386049
 20
4260.5
 30
0.0
 11
-65355.737386049
 21
4260.5
 31
0.0
  0
LINE
  5
3C2
330
1F
100
AcDbEntity
  8
0
  6
Continuous
 62
     7
370
    15
100
AcDbLine
 10
-65205.737386049
 20
-1089.5
 30
0.0
 11
-65205.737386049
 21
4260.5
 31
0.0
  0
LINE
  5
3C3
330
1F
100
AcDbEntity
  8
0
  6
Continuous
 62
     7
370
    15
100
AcDbLine
 10
-65205.737386049
 20
-1089.5
 30
0.0
 11
-46788.3402986719
 21
-1089.5
 31
0.0
  0
LINE
  5
3C4
330
1F
100
AcDbEntity
  8
0
  6
Continuous
 62
     7
370
    15
100
AcDbLine
 10
-46788.3402986719
 20
4260.5
 30
0.0
 11
-46788.3402986719
 21
-1089.5
 31
0.0
  0
LINE
  5
3C5
330
1F
100
AcDbEntity
  8
0
  6
Continuous
 62
     7
370
    15
100
AcDbLine
 10
-46638.3402986719
 20
4260.5
 30
0.0
 11
-46788.3402986719
 21
4260.5
 31
0.0
  0
LINE
  5
3C6
330
1F
100
AcDbEntity
  8
0
  6
Continuous
 62
     7
370
    15
100
AcDbLine
 10
-46638.3402986719
 20
4260.5
 30
0.0
 11
-46638.3402986719
 21
-1239.5
 31
0.0
  0
LINE
  5
3C7
330
1F
100
AcDbEntity
  8
0
  6
Continuous
 62
     7
370
    15
100
AcDbLine
 10
-65355.737386049
 20
-1239.5
 30
0.0
 11
-65355.737386049
 21
4260.5
 31
0.0
  0
LINE
  5
3C8
330
1F
100
AcDbEntity
  8
0
  6
Continuous
 62
     7
370
    15
100
AcDbLine
 10
-40968.3402986719
 20
-1239.5
 30
0.0
 11
-36140.0000000001
 21
-1239.5
 31
0.0
  0
LINE
  5
3C9
330
1F
100
AcDbEntity
  8
0
  6
Continuous
 62
     7
370
    15
100
AcDbLine
 10
-40818.3402986719
 20
4260.5
 30
0.0
 11
-40968.3402986719
 21
4260.5
 31
0.0
  0
LINE
  5
3CA
330
1F
100
AcDbEntity
  8
0
  6
Continuous
 62
     7
370
    15
100
AcDbLine
 10
-40818.3402986719
 20
-1089.5
 30
0.0
 11
-40818.3402986719
 21
4260.5
 31
0.0
  0
LINE
  5
3CB
330
1F
100
AcDbEntity
  8
0
  6
Continuous
 62
     7
370
    15
100
AcDbLine
 10
-40818.3402986719
 20
-1089.5
 30
0.0
 11
-36290.0000000001
 21
-1089.5
 31
0.0
  0
LINE
  5
3CC
330
1F
100
AcDbEntity
  8
0
  6
Continuous
 62
     7
370
    15
100
AcDbLine
 10
-36290.0000000001
 20
4260.5
 30
0.0
 11
-36290.0000000001
 21
-1089.5
 31
0.0
  0
LINE
  5
3CD
330
1F
100
AcDbEntity
  8
0
  6
Continuous
 62
     7
370
    15
100
AcDbLine
 10
-36140.0000000001
 20
4260.5
 30
0.0
 11
-36290.0000000001
 21
4260.5
 31
0.0
  0
LINE
  5
3CE
330
1F
100
AcDbEntity
  8
0
  6
Continuous
 62
     7
370
    15
100
AcDbLine
 10
-36140.0000000001
 20
4260.5
 30
0.0
 11
-36140.0000000001
 21
-1239.5
 31
0.0
  0
LINE
  5
3CF
330
1F
100
AcDbEntity
  8
0
  6
Continuous
 62
     7
370
    15
100
AcDbLine
 10
-40968.3402986719
 20
-1239.5
 30
0.0
 11
-40968.3402986719
 21
4260.5
 31
0.0
  0
LINE
  5
3D0
330
1F
100
AcDbEntity
  8
0
  6
Continuous
 62
     7
370
    15
100
AcDbLine
 10
-25811.9017685017
 20
434.8814113639
 30
0.0
 11
-12040.3515033149
 21
434.8814113639
 31
0.0
  0
LINE
  5
3D1
330
1F
100
AcDbEntity
  8
0
  6
Continuous
 62
     7
370
    15
100
AcDbLine
 10
-30083.3457319605
 20
-1239.5
 30
0.0
 11
-30083.3457319605
 21
-1618.2183406501
 31
0.0
  0
LINE
  5
3D2
330
1F
100
AcDbEntity
  8
0
  6
Continuous
 62
     7
370
    15
100
AcDbLine
 10
-30083.3457319605
 20
-1239.5
 30
0.0
 11
-30970.0000000001
 21
-1239.5
 31
0.0
  0
LINE
  5
3D3
330
1F
100
AcDbEntity
  8
0
  6
Continuous
 62
     7
370
    15
100
AcDbLine
 10
-30820.0000000001
 20
4260.5
 30
0.0
 11
-30820.0000000001
 21
-1089.5
 31
0.0
  0
LINE
  5
3D4
330
1F
100
AcDbEntity
  8
0
  6
Continuous
 62
     7
370
    15
100
AcDbLine
 10
-12190.3515033149
 20
584.8814113639
 30
0.0
 11
-12190.3515033149
 21
1683.082769248
 31
0.0
  0
LINE
  5
3D5
330
1F
100
AcDbEntity
  8
0
  6
Continuous
 62
     7
370
    15
100
AcDbLine
 10
-12190.3515033149
 20
1683.082769248
 30
0.0
 11
-9496.8124528181
 21
1683.082769248
 31
0.0
  0
LINE
  5
3D6
330
1F
100
AcDbEntity
  8
0
  6
Continuous
 62
     7
370
    15
100
AcDbLine
 10
-9496.8124528181
 20
1683.082769248
 30
0.0
 11
-7881.3886012894
 21
3298.5066207767
 31
0.0
  0
LINE
  5
3D7
330
1F
100
AcDbEntity
  8
0
  6
Continuous
 62
     7
370
    15
100
AcDbLine
 10
-7881.3886012894
 20
3298.5066207767
 30
0.0
 11
-7881.3886012894
 21
4260.5
 31
0.0
  0
LINE
  5
3D8
330
1F
100
AcDbEntity
  8
0
  6
Continuous
 62
     7
370
    15
100
AcDbLine
 10
-7731.3886012894
 20
4260.5
 30
0.0
 11
-7881.3886012894
 21
4260.5
 31
0.0
  0
LINE
  5
3D9
330
1F
100
AcDbEntity
  8
0
  6
Continuous
 62
     7
370
    15
100
AcDbLine
 10
-7731.3886012894
 20
3236.3745864207
 30
0.0
 11
-7731.3886012894
 21
4260.5
 31
0.0
  0
LINE
  5
3DA
330
1F
100
AcDbEntity
  8
0
  6
Continuous
 62
     7
370
    15
100
AcDbLine
 10
-30970.0000000001
 20
4260.5
 30
0.0
 11
-30970.0000000001
 21
-1239.5
 31
0.0
  0
LINE
  5
3DB
330
1F
100
AcDbEntity
  8
0
  6
Continuous
 62
     7
370
    15
100
AcDbLine
 10
-30820.0000000001
 20
4260.5
 30
0.0
 11
-30970.0000000001
 21
4260.5
 31
0.0
  0
LINE
  5
3DC
330
1F
100
AcDbEntity
  8
0
  6
Continuous
 62
     7
370
    15
100
AcDbLine
 10
-25961.9017685017
 20
584.8814113639
 30
0.0
 11
-12190.3515033149
 21
584.8814113639
 31
0.0
  0
LINE
  5
3DD
330
1F
100
AcDbEntity
  8
0
  6
Continuous
 62
     7
370
    15
100
AcDbLine
 10
-25961.9017685017
 20
-424.0023804966
 30
0.0
 11
-25961.9017685017
 21
584.8814113639
 31
0.0
  0
LINE
  5
3DE
330
1F
100
AcDbEntity
  8
0
  6
Continuous
 62
     7
370
    15
100
AcDbLine
 10
-27214.9609206859
 20
-1468.2183406501
 30
0.0
 11
-25961.9017685017
 21
-424.0023804966
 31
0.0
  0
LINE
  5
3DF
330
1F
100
AcDbEntity
  8
0
  6
Continuous
 62
     7
370
    15
100
AcDbLine
 10
-29933.3457319605
 20
-1468.2183406501
 30
0.0
 11
-27214.9609206859
 21
-1468.2183406501
 31
0.0
  0
LINE
  5
3E0
330
1F
100
AcDbEntity
  8
0
  6
Continuous
 62
     7
370
    15
100
AcDbLine
 10
-29933.3457319605
 20
-1089.5
 30
0.0
 11
-29933.3457319605
 21
-1468.2183406501
 31
0.0
  0
LINE
  5
3E1
330
1F
100
AcDbEntity
  8
0
  6
Continuous
 62
     7
370
    15
100
AcDbLine
 10
-29933.3457319605
 20
-1089.5
 30
0.0
 11
-30820.0000000001
 21
-1089.5
 31
0.0
  0
LINE
  5
3E2
330
1F
100
AcDbEntity
  8
0
  6
Continuous
 62
     7
370
    15
100
AcDbLine
 10
-9434.6804184622
 20
1533.082769248
 30
0.0
 11
-7731.3886012894
 21
3236.3745864207
 31
0.0
  0
LINE
  5
3E3
330
1F
100
AcDbEntity
  8
0
  6
Continuous
 62
     7
370
    15
100
AcDbLine
 10
-12040.3515033149
 20
1533.082769248
 30
0.0
 11
-9434.6804184622
 21
1533.082769248
 31
0.0
  0
LINE
  5
3E4
330
1F
100
AcDbEntity
  8
0
  6
Continuous
 62
     7
370
    15
100
AcDbLine
 10
-12040.3515033149
 20
434.8814113639
 30
0.0
 11
-12040.3515033149
 21
1533.082769248
 31
0.0
  0
LINE
  5
3E5
330
1F
100
AcDbEntity
  8
0
  6
Continuous
 62
     7
370
    15
100
AcDbLine
 10
-25811.9017685017
 20
-494.2586223942
 30
0.0
 11
-25811.9017685017
 21
434.8814113639
 31
0.0
  0
LINE
  5
3E6
330
1F
100
AcDbEntity
  8
0
  6
Continuous
 62
     7
370
    15
100
AcDbLine
 10
-27160.6534304087
 20
-1618.2183406501
 30
0.0
 11
-25811.9017685017
 21
-494.2586223942
 31
0.0
  0
LINE
  5
3E7
330
1F
100
AcDbEntity
  8
0
  6
Continuous
 62
     7
370
    15
100
AcDbLine
 10
-30083.3457319605
 20
-1618.2183406501
 30
0.0
 11
-27160.6534304087
 21
-1618.2183406501
 31
0.0
  0
LINE
  5
3E8
330
1F
100
AcDbEntity
  8
0
  6
Continuous
 62
     7
370
    15
100
AcDbLine
 10
55262.9824226471
 20
-64451.0450570867
 30
0.0
 11
53199.6980401195
 21
-64451.0450570867
 31
0.0
  0
LINE
  5
3E9
330
1F
100
AcDbEntity
  8
0
  6
Continuous
 62
     7
370
    15
100
AcDbLine
 10
55262.9824226471
 20
-64451.0450570867
 30
0.0
 11
55262.9824226471
 21
-64739.5
 31
0.0
  0
LINE
  5
3EA
330
1F
100
AcDbEntity
  8
0
  6
Continuous
 62
     7
370
    15
100
AcDbLine
 10
53199.6980401195
 20
-64739.5
 30
0.0
 11
55262.9824226471
 21
-64739.5
 31
0.0
  0
LINE
  5
3EB
330
1F
100
AcDbEntity
  8
0
  6
Continuous
 62
     7
370
    15
100
AcDbLine
 10
53199.6980401195
 20
-64451.0450570867
 30
0.0
 11
53199.6980401195
 21
-64739.5
 31
0.0
  0
LINE
  5
3EC
330
1F
100
AcDbEntity
  8
0
  6
Continuous
 62
     7
370
    15
100
AcDbLine
 10
26745.220585495
 20
-64681.3192513103
 30
0.0
 11
28449.5601443082
 21
-64681.3192513103
 31
0.0
  0
LINE
  5
3ED
330
1F
100
AcDbEntity
  8
0
  6
Continuous
 62
     7
370
    15
100
AcDbLine
 10
26745.220585495
 20
-64509.0170965967
 30
0.0
 11
26745.220585495
 21
-64681.3192513103
 31
0.0
  0
LINE
  5
3EE
330
1F
100
AcDbEntity
  8
0
  6
Continuous
 62
     7
370
    15
100
AcDbLine
 10
26745.220585495
 20
-64509.0170965967
 30
0.0
 11
28604.5001042003
 21
-64509.0170965967
 31
0.0
  0
LINE
  5
3EF
330
1F
100
AcDbEntity
  8
0
  6
Continuous
 62
     7
370
    15
100
AcDbLine
 10
28604.5001042003
 20
-64509.0170965967
 30
0.0
 11
28604.5001042003
 21
-64739.5
 31
0.0
  0
LINE
  5
3F0
330
1F
100
AcDbEntity
  8
0
  6
Continuous
 62
     7
370
    15
100
AcDbLine
 10
28449.5601443082
 20
-64739.5
 30
0.0
 11
28604.5001042003
 21
-64739.5
 31
0.0
  0
LINE
  5
3F1
330
1F
100
AcDbEntity
  8
0
  6
Continuous
 62
     7
370
    15
100
AcDbLine
 10
28449.5601443082
 20
-64681.3192513103
 30
0.0
 11
28449.5601443082
 21
-64739.5
 31
0.0
  0
LINE
  5
3F2
330
1F
100
AcDbEntity
  8
0
  6
Continuous
 62
     7
370
    15
100
AcDbLine
 10
10960.4133617384
 20
-64509.0170965967
 30
0.0
 11
13240.1034087185
 21
-64509.0170965967
 31
0.0
  0
LINE
  5
3F3
330
1F
100
AcDbEntity
  8
0
  6
Continuous
 62
     7
370
    15
100
AcDbLine
 10
13240.1034087185
 20
-64509.0170965967
 30
0.0
 11
13240.1034087185
 21
-64681.3192513103
 31
0.0
  0
LINE
  5
3F4
330
1F
100
AcDbEntity
  8
0
  6
Continuous
 62
     7
370
    15
100
AcDbLine
 10
11212.2395878583
 20
-64681.3192513103
 30
0.0
 11
13240.1034087185
 21
-64681.3192513103
 31
0.0
  0
LINE
  5
3F5
330
1F
100
AcDbEntity
  8
0
  6
Continuous
 62
     7
370
    15
100
AcDbLine
 10
11212.2395878583
 20
-64681.3192513103
 30
0.0
 11
11212.2395878583
 21
-64739.5
 31
0.0
  0
LINE
  5
3F6
330
1F
100
AcDbEntity
  8
0
  6
Continuous
 62
     7
370
    15
100
AcDbLine
 10
10960.4133617384
 20
-64739.5
 30
0.0
 11
11212.2395878583
 21
-64739.5
 31
0.0
  0
LINE
  5
3F7
330
1F
100
AcDbEntity
  8
0
  6
Continuous
 62
     7
370
    15
100
AcDbLine
 10
10960.4133617384
 20
-64509.0170965967
 30
0.0
 11
10960.4133617384
 21
-64739.5
 31
0.0
  0
LINE
  5
3F8
330
1F
100
AcDbEntity
  8
0
  6
Continuous
 62
     7
370
    15
100
AcDbLine
 10
-457.413711245
 20
-64739.5
 30
0.0
 11
-206.5825296493
 21
-64739.5
 31
0.0
  0
LINE
  5
3F9
330
1F
100
AcDbEntity
  8
0
  6
Continuous
 62
     7
370
    15
100
AcDbLine
 10
-457.413711245
 20
-64739.5
 30
0.0
 11
-457.413711245
 21
-63187.8592030261
 31
0.0
  0
LINE
  5
3FA
330
1F
100
AcDbEntity
  8
0
  6
Continuous
 62
     7
370
    15
100
AcDbLine
 10
-206.5825296493
 20
-64739.5
 30
0.0
 11
-206.5825296493
 21
-63036.9618210003
 31
0.0
  0
LINE
  5
3FB
330
1F
100
AcDbEntity
  8
0
  6
Continuous
 62
     7
370
    15
100
AcDbLine
 10
29048.1042969848
 20
-62811.1117099914
 30
0.0
 11
35411.507122811
 21
-62811.1117099914
 31
0.0
  0
LINE
  5
3FC
330
1F
100
AcDbEntity
  8
0
  6
Continuous
 62
     7
370
    15
100
AcDbLine
 10
-36227.8729194475
 20
-62811.1117099914
 30
0.0
 11
-29270.9361651865
 21
-62811.1117099914
 31
0.0
  0
LINE
  5
3FD
330
1F
100
AcDbEntity
  8
0
  6
Continuous
 62
     7
370
    15
100
AcDbLine
 10
-47902.7083024878
 20
-62811.1117099914
 30
0.0
 11
-36430.195134437
 21
-62811.1117099914
 31
0.0
  0
LINE
  5
3FE
330
1F
100
AcDbEntity
  8
0
  6
Continuous
 62
     7
370
    15
100
AcDbLine
 10
-60148.7508742783
 20
-62811.1117099914
 30
0.0
 11
-48506.4915072001
 21
-62811.1117099914
 31
0.0
  0
LINE
  5
3FF
330
1F
100
AcDbEntity
  8
0
  6
Continuous
 62
     7
370
    15
100
AcDbLine
 10
10869.1216978391
 20
-64070.1004692517
 30
0.0
 11
16930.0403673836
 21
-64070.1004692517
 31
0.0
  0
LINE
  5
400
330
1F
100
AcDbEntity
  8
0
  6
Continuous
 62
     7
370
    15
100
AcDbLine
 10
23351.4568628711
 20
-63094.7570837542
 30
0.0
 11
23351.4568628711
 21
-64070.1004692517
 31
0.0
  0
LINE
  5
401
330
1F
100
AcDbEntity
  8
0
  6
Continuous
 62
     7
370
    15
100
AcDbLine
 10
23351.4568628711
 20
-62811.1117099914
 30
0.0
 11
23351.4568628711
 21
-62884.0693666726
 31
0.0
  0
LINE
  5
402
330
1F
100
AcDbEntity
  8
0
  6
Continuous
 62
     7
370
    15
100
AcDbLine
 10
23628.4806198049
 20
-62811.1117099914
 30
0.0
 11
28876.4986979059
 21
-62811.1117099914
 31
0.0
  0
LINE
  5
403
330
1F
100
AcDbEntity
  8
0
  6
Continuous
 62
     7
370
    15
100
AcDbLine
 10
23351.4568628711
 20
-62811.1117099914
 30
0.0
 11
23426.1584048154
 21
-62811.1117099914
 31
0.0
  0
LINE
  5
404
330
1F
100
AcDbEntity
  8
0
  6
Continuous
 62
     7
370
    15
100
AcDbLine
 10
23351.4568628711
 20
-64070.1004692517
 30
0.0
 11
28876.4986979059
 21
-64070.1004692517
 31
0.0
  0
LINE
  5
405
330
1F
100
AcDbEntity
  8
0
  6
Continuous
 62
     7
370
    15
100
AcDbLine
 10
28876.4986979059
 20
-62811.1117099914
 30
0.0
 11
28876.4986979059
 21
-64070.1004692517
 31
0.0
  0
LINE
  5
406
330
1F
100
AcDbEntity
  8
0
  6
Continuous
 62
     7
370
    15
100
AcDbLine
 10
10869.1216978391
 20
-64070.1004692517
 30
0.0
 11
10869.1216978391
 21
-62811.1117099914
 31
0.0
  0
LINE
  5
407
330
1F
100
AcDbEntity
  8
0
  6
Continuous
 62
     7
370
    15
100
AcDbLine
 10
10869.1216978391
 20
-62811.1117099914
 30
0.0
 11
11492.6729517575
 21
-62811.1117099914
 31
0.0
  0
LINE
  5
408
330
1F
100
AcDbEntity
  8
0
  6
Continuous
 62
     7
370
    15
100
AcDbLine
 10
52856.2138234166
 20
-62811.1117099914
 30
0.0
 11
52856.2138234166
 21
-64739.5
 31
0.0
  0
LINE
  5
409
330
1F
100
AcDbEntity
  8
0
  6
Continuous
 62
     7
370
    15
100
AcDbLine
 10
17111.7055896056
 20
-62811.1117099914
 30
0.0
 11
23146.1963519952
 21
-62811.1117099914
 31
0.0
  0
LINE
  5
40A
330
1F
100
AcDbEntity
  8
0
  6
Continuous
 62
     7
370
    15
100
AcDbLine
 10
-61409.1941450044
 20
-64739.5
 30
0.0
 11
-61241.4890466919
 21
-64739.5
 31
0.0
  0
LINE
  5
40B
330
1F
100
AcDbEntity
  8
0
  6
Continuous
 62
     7
370
    15
100
AcDbLine
 10
-60370.0000000001
 20
-62661.1117099914
 30
0.0
 11
59629.9999999999
 21
-62661.1117099914
 31
0.0
  0
LINE
  5
40C
330
1F
100
AcDbEntity
  8
0
  6
Continuous
 62
     7
370
    15
100
AcDbLine
 10
16930.0403673836
 20
-62811.1117099914
 30
0.0
 11
16930.0403673836
 21
-64070.1004692517
 31
0.0
  0
LINE
  5
40D
330
1F
100
AcDbEntity
  8
0
  6
Continuous
 62
     7
370
    15
100
AcDbLine
 10
11694.995166747
 20
-62811.1117099914
 30
0.0
 11
16930.0403673836
 21
-62811.1117099914
 31
0.0
  0
LINE
  5
40E
330
1F
100
AcDbEntity
  8
0
  6
Continuous
 62
     7
370
    15
100
AcDbLine
 10
-29024.9722808352
 20
-62811.1117099914
 30
0.0
 11
-24464.5078557899
 21
-62811.1117099914
 31
0.0
  0
LINE
  5
40F
330
1F
100
AcDbEntity
  8
0
  6
Continuous
 62
     7
370
    15
100
AcDbLine
 10
57236.2577549302
 20
-64739.5
 30
0.0
 11
59474.6557427305
 21
-64739.5
 31
0.0
  0
LINE
  5
410
330
1F
100
AcDbEntity
  8
0
  6
Continuous
 62
     7
370
    15
100
AcDbLine
 10
21057.5555154567
 20
-64070.1004692517
 30
0.0
 11
21057.5555154567
 21
-64220.7708628631
 31
0.0
  0
LINE
  5
411
330
1F
100
AcDbEntity
  8
0
  6
Continuous
 62
     7
370
    15
100
AcDbLine
 10
59682.9191860468
 20
-63106.9272193376
 30
0.0
 11
60489.370838539
 21
-64739.5
 31
0.0
  0
LINE
  5
412
330
1F
100
AcDbEntity
  8
0
  6
Continuous
 62
     7
370
    15
100
AcDbLine
 10
60489.370838539
 20
-64739.5
 30
0.0
 11
60656.6737819295
 21
-64739.5
 31
0.0
  0
LINE
  5
413
330
1F
100
AcDbEntity
  8
0
  6
Continuous
 62
     7
370
    15
100
AcDbLine
 10
-29270.9361651865
 20
-62811.1117099914
 30
0.0
 11
-29270.9361651865
 21
-64739.5
 31
0.0
  0
LINE
  5
414
330
1F
100
AcDbEntity
  8
0
  6
Continuous
 62
     7
370
    15
100
AcDbLine
 10
-29270.9361651865
 20
-64739.5
 30
0.0
 11
-29024.9722808352
 21
-64739.5
 31
0.0
  0
LINE
  5
415
330
1F
100
AcDbEntity
  8
0
  6
Continuous
 62
     7
370
    15
100
AcDbLine
 10
-24103.3088826564
 20
-62811.1117099914
 30
0.0
 11
-24103.3088826564
 21
-64739.5
 31
0.0
  0
LINE
  5
416
330
1F
100
AcDbEntity
  8
0
  6
Continuous
 62
     7
370
    15
100
AcDbLine
 10
-24384.055802892
 20
-64739.5
 30
0.0
 11
-24103.3088826564
 21
-64739.5
 31
0.0
  0
LINE
  5
417
330
1F
100
AcDbEntity
  8
0
  6
Continuous
 62
     7
370
    15
100
AcDbLine
 10
59474.6557427305
 20
-64070.1004692517
 30
0.0
 11
59474.6557427305
 21
-64739.5
 31
0.0
  0
LINE
  5
418
330
1F
100
AcDbEntity
  8
0
  6
Continuous
 62
     7
370
    15
100
AcDbLine
 10
57236.2577549302
 20
-64739.5
 30
0.0
 11
57236.2577549302
 21
-64451.0450570867
 31
0.0
  0
LINE
  5
419
330
1F
100
AcDbEntity
  8
0
  6
Continuous
 62
     7
370
    15
100
AcDbLine
 10
53092.8518198081
 20
-64364.8939797299
 30
0.0
 11
53092.8518198081
 21
-64739.5
 31
0.0
  0
LINE
  5
41A
330
1F
100
AcDbEntity
  8
0
  6
Continuous
 62
     7
370
    15
100
AcDbLine
 10
59209.5330872134
 20
-64451.0450570867
 30
0.0
 11
57236.2577549302
 21
-64451.0450570867
 31
0.0
  0
LINE
  5
41B
330
1F
100
AcDbEntity
  8
0
  6
Continuous
 62
     7
370
    15
100
AcDbLine
 10
59209.5330872134
 20
-64364.8939797299
 30
0.0
 11
59209.5330872134
 21
-64451.0450570867
 31
0.0
  0
LINE
  5
41C
330
1F
100
AcDbEntity
  8
0
  6
Continuous
 62
     7
370
    15
100
AcDbLine
 10
53092.8518198081
 20
-62811.1117099914
 30
0.0
 11
59413.7834936145
 21
-62811.1117099914
 31
0.0
  0
LINE
  5
41D
330
1F
100
AcDbEntity
  8
0
  6
Continuous
 62
     7
370
    15
100
AcDbLine
 10
38538.5493806195
 20
-62811.1117099914
 30
0.0
 11
38538.5493806195
 21
-64739.5
 31
0.0
  0
LINE
  5
41E
330
1F
100
AcDbEntity
  8
0
  6
Continuous
 62
     7
370
    15
100
AcDbLine
 10
47615.9391145538
 20
-62811.1117099914
 30
0.0
 11
52856.2138234166
 21
-62811.1117099914
 31
0.0
  0
LINE
  5
41F
330
1F
100
AcDbEntity
  8
0
  6
Continuous
 62
     7
370
    15
100
AcDbLine
 10
23351.4568628711
 20
-64220.7708628631
 30
0.0
 11
23351.4568628711
 21
-64509.0170965967
 31
0.0
  0
LINE
  5
420
330
1F
100
AcDbEntity
  8
0
  6
Continuous
 62
     7
370
    15
100
AcDbLine
 10
23351.4568628711
 20
-64509.0170965967
 30
0.0
 11
24838.989563792
 21
-64509.0170965967
 31
0.0
  0
LINE
  5
421
330
1F
100
AcDbEntity
  8
0
  6
Continuous
 62
     7
370
    15
100
AcDbLine
 10
24838.989563792
 20
-64681.3192513103
 30
0.0
 11
24838.989563792
 21
-64509.0170965967
 31
0.0
  0
LINE
  5
422
330
1F
100
AcDbEntity
  8
0
  6
Continuous
 62
     7
370
    15
100
AcDbLine
 10
23146.1963519952
 20
-64681.3192513103
 30
0.0
 11
24838.989563792
 21
-64681.3192513103
 31
0.0
  0
LINE
  5
423
330
1F
100
AcDbEntity
  8
0
  6
Continuous
 62
     7
370
    15
100
AcDbLine
 10
23146.1963519952
 20
-64220.7708628631
 30
0.0
 11
23146.1963519952
 21
-64681.3192513103
 31
0.0
  0
LINE
  5
424
330
1F
100
AcDbEntity
  8
0
  6
Continuous
 62
     7
370
    15
100
AcDbLine
 10
21057.5555154567
 20
-64220.7708628631
 30
0.0
 11
23146.1963519952
 21
-64220.7708628631
 31
0.0
  0
LINE
  5
425
330
1F
100
AcDbEntity
  8
0
  6
Continuous
 62
     7
370
    15
100
AcDbLine
 10
-24384.055802892
 20
-63193.3645308177
 30
0.0
 11
-24384.055802892
 21
-64739.5
 31
0.0
  0
LINE
  5
426
330
1F
100
AcDbEntity
  8
0
  6
Continuous
 62
     7
370
    15
100
AcDbLine
 10
-12188.5313812688
 20
-62811.1117099914
 30
0.0
 11
-507.1530928845
 21
-62811.1117099914
 31
0.0
  0
LINE
  5
427
330
1F
100
AcDbEntity
  8
0
  6
Continuous
 62
     7
370
    15
100
AcDbLine
 10
-61409.1941450044
 20
-64739.5
 30
0.0
 11
-60370.0000000001
 21
-62661.1117099914
 31
0.0
  0
LINE
  5
428
330
1F
100
AcDbEntity
  8
0
  6
Continuous
 62
     7
370
    15
100
AcDbLine
 10
53092.8518198081
 20
-64070.1004692517
 30
0.0
 11
59474.6557427305
 21
-64070.1004692517
 31
0.0
  0
LINE
  5
429
330
1F
100
AcDbEntity
  8
0
  6
Continuous
 62
     7
370
    15
100
AcDbLine
 10
29136.0274949717
 20
-64244.1675934124
 30
0.0
 11
29136.0274949717
 21
-64739.5
 31
0.0
  0
LINE
  5
42A
330
1F
100
AcDbEntity
  8
0
  6
Continuous
 62
     7
370
    15
100
AcDbLine
 10
5082.6535098186
 20
-63714.4597267355
 30
0.0
 11
3590.2654323261
 21
-63714.4597267355
 31
0.0
  0
LINE
  5
42B
330
1F
100
AcDbEntity
  8
0
  6
Continuous
 62
     7
370
    15
100
AcDbLine
 10
3590.2654323261
 20
-63447.0066662529
 30
0.0
 11
3590.2654323261
 21
-63714.4597267355
 31
0.0
  0
LINE
  5
42C
330
1F
100
AcDbEntity
  8
0
  6
Continuous
 62
     7
370
    15
100
AcDbLine
 10
5082.6535098186
 20
-63447.0066662529
 30
0.0
 11
3590.2654323261
 21
-63447.0066662529
 31
0.0
  0
LINE
  5
42D
330
1F
100
AcDbEntity
  8
0
  6
Continuous
 62
     7
370
    15
100
AcDbLine
 10
-206.5825296493
 20
-62941.8646294265
 30
0.0
 11
-206.5825296493
 21
-62811.1117099914
 31
0.0
  0
LINE
  5
42E
330
1F
100
AcDbEntity
  8
0
  6
Continuous
 62
     7
370
    15
100
AcDbLine
 10
-206.5825296493
 20
-62811.1117099914
 30
0.0
 11
5082.6535098186
 21
-62811.1117099914
 31
0.0
  0
LINE
  5
42F
330
1F
100
AcDbEntity
  8
0
  6
Continuous
 62
     7
370
    15
100
AcDbLine
 10
-61241.4890466919
 20
-64739.5
 30
0.0
 11
-60427.5657182131
 21
-63111.6533430425
 31
0.0
  0
LINE
  5
430
330
1F
100
AcDbEntity
  8
0
  6
Continuous
 62
     7
370
    15
100
AcDbLine
 10
53092.8518198081
 20
-64364.8939797299
 30
0.0
 11
59209.5330872134
 21
-64364.8939797299
 31
0.0
  0
LINE
  5
431
330
1F
100
AcDbEntity
  8
0
  6
Continuous
 62
     7
370
    15
100
AcDbLine
 10
17111.7055896056
 20
-64070.1004692517
 30
0.0
 11
19142.1774425902
 21
-64070.1004692517
 31
0.0
  0
LINE
  5
432
330
1F
100
AcDbEntity
  8
0
  6
Continuous
 62
     7
370
    15
100
AcDbLine
 10
19142.1774425902
 20
-64070.1004692517
 30
0.0
 11
19142.1774425902
 21
-64220.7708628631
 31
0.0
  0
LINE
  5
433
330
1F
100
AcDbEntity
  8
0
  6
Continuous
 62
     7
370
    15
100
AcDbLine
 10
53092.8518198081
 20
-62811.1117099914
 30
0.0
 11
53092.8518198081
 21
-64070.1004692517
 31
0.0
  0
LINE
  5
434
330
1F
100
AcDbEntity
  8
0
  6
Continuous
 62
     7
370
    15
100
AcDbLine
 10
17111.7055896056
 20
-64681.3192513103
 30
0.0
 11
17111.7055896056
 21
-64220.7708628631
 31
0.0
  0
LINE
  5
435
330
1F
100
AcDbEntity
  8
0
  6
Continuous
 62
     7
370
    15
100
AcDbLine
 10
38802.7411515115
 20
-62811.1117099914
 30
0.0
 11
38802.7411515115
 21
-64739.5
 31
0.0
  0
LINE
  5
436
330
1F
100
AcDbEntity
  8
0
  6
Continuous
 62
     7
370
    15
100
AcDbLine
 10
38538.5493806195
 20
-64739.5
 30
0.0
 11
38802.7411515115
 21
-64739.5
 31
0.0
  0
LINE
  5
437
330
1F
100
AcDbEntity
  8
0
  6
Continuous
 62
     7
370
    15
100
AcDbLine
 10
5082.6535098186
 20
-64739.5
 30
0.0
 11
5082.6535098186
 21
-63714.4597267355
 31
0.0
  0
LINE
  5
438
330
1F
100
AcDbEntity
  8
0
  6
Continuous
 62
     7
370
    15
100
AcDbLine
 10
28814.8736998385
 20
-64739.5
 30
0.0
 11
29136.0274949717
 21
-64739.5
 31
0.0
  0
LINE
  5
439
330
1F
100
AcDbEntity
  8
0
  6
Continuous
 62
     7
370
    15
100
AcDbLine
 10
35613.8293378004
 20
-62811.1117099914
 30
0.0
 11
38538.5493806195
 21
-62811.1117099914
 31
0.0
  0
LINE
  5
43A
330
1F
100
AcDbEntity
  8
0
  6
Continuous
 62
     7
370
    15
100
AcDbLine
 10
-12469.7783957021
 20
-64739.5
 30
0.0
 11
-12188.5313812688
 21
-64739.5
 31
0.0
  0
LINE
  5
43B
330
1F
100
AcDbEntity
  8
0
  6
Continuous
 62
     7
370
    15
100
AcDbLine
 10
31157.2307890435
 20
-64070.1004692517
 30
0.0
 11
31157.2307890435
 21
-64244.1675934124
 31
0.0
  0
LINE
  5
43C
330
1F
100
AcDbEntity
  8
0
  6
Continuous
 62
     7
370
    15
100
AcDbLine
 10
10600.1928956367
 20
-64739.5
 30
0.0
 11
10600.1928956367
 21
-62811.1117099914
 31
0.0
  0
LINE
  5
43D
330
1F
100
AcDbEntity
  8
0
  6
Continuous
 62
     7
370
    15
100
AcDbLine
 10
10869.1216978391
 20
-64739.5
 30
0.0
 11
10869.1216978391
 21
-64220.7708628631
 31
0.0
  0
LINE
  5
43E
330
1F
100
AcDbEntity
  8
0
  6
Continuous
 62
     7
370
    15
100
AcDbLine
 10
10600.1928956367
 20
-64739.5
 30
0.0
 11
10869.1216978391
 21
-64739.5
 31
0.0
  0
LINE
  5
43F
330
1F
100
AcDbEntity
  8
0
  6
Continuous
 62
     7
370
    15
100
AcDbLine
 10
5337.0909843224
 20
-64739.5
 30
0.0
 11
5337.0909843224
 21
-62811.1117099914
 31
0.0
  0
LINE
  5
440
330
1F
100
AcDbEntity
  8
0
  6
Continuous
 62
     7
370
    15
100
AcDbLine
 10
21057.5555154567
 20
-64070.1004692517
 30
0.0
 11
23146.1963519952
 21
-64070.1004692517
 31
0.0
  0
LINE
  5
441
330
1F
100
AcDbEntity
  8
0
  6
Continuous
 62
     7
370
    15
100
AcDbLine
 10
23146.1963519952
 20
-62811.1117099914
 30
0.0
 11
23146.1963519952
 21
-64070.1004692517
 31
0.0
  0
LINE
  5
442
330
1F
100
AcDbEntity
  8
0
  6
Continuous
 62
     7
370
    15
100
AcDbLine
 10
17111.7055896056
 20
-62811.1117099914
 30
0.0
 11
17111.7055896056
 21
-64070.1004692517
 31
0.0
  0
LINE
  5
443
330
1F
100
AcDbEntity
  8
0
  6
Continuous
 62
     7
370
    15
100
AcDbLine
 10
17111.7055896056
 20
-64220.7708628631
 30
0.0
 11
19142.1774425902
 21
-64220.7708628631
 31
0.0
  0
LINE
  5
444
330
1F
100
AcDbEntity
  8
0
  6
Continuous
 62
     7
370
    15
100
AcDbLine
 10
15163.9905216332
 20
-64681.3192513103
 30
0.0
 11
17111.7055896056
 21
-64681.3192513103
 31
0.0
  0
LINE
  5
445
330
1F
100
AcDbEntity
  8
0
  6
Continuous
 62
     7
370
    15
100
AcDbLine
 10
15163.9905216332
 20
-64509.0170965967
 30
0.0
 11
16854.5244099946
 21
-64509.0170965967
 31
0.0
  0
LINE
  5
446
330
1F
100
AcDbEntity
  8
0
  6
Continuous
 62
     7
370
    15
100
AcDbLine
 10
38802.7411515115
 20
-62811.1117099914
 30
0.0
 11
47413.6168995643
 21
-62811.1117099914
 31
0.0
  0
LINE
  5
447
330
1F
100
AcDbEntity
  8
0
  6
Continuous
 62
     7
370
    15
100
AcDbLine
 10
28814.8736998385
 20
-64220.7708628631
 30
0.0
 11
28814.8736998385
 21
-64739.5
 31
0.0
  0
LINE
  5
448
330
1F
100
AcDbEntity
  8
0
  6
Continuous
 62
     7
370
    15
100
AcDbLine
 10
-12469.7783957021
 20
-63183.3240810212
 30
0.0
 11
-12469.7783957021
 21
-64739.5
 31
0.0
  0
LINE
  5
449
330
1F
100
AcDbEntity
  8
0
  6
Continuous
 62
     7
370
    15
100
AcDbLine
 10
59629.9999999999
 20
-62661.1117099914
 30
0.0
 11
60656.6737819295
 21
-64739.5
 31
0.0
  0
LINE
  5
44A
330
1F
100
AcDbEntity
  8
0
  6
Continuous
 62
     7
370
    15
100
AcDbLine
 10
5082.6535098186
 20
-63447.0066662529
 30
0.0
 11
5082.6535098186
 21
-62811.1117099914
 31
0.0
  0
LINE
  5
44B
330
1F
100
AcDbEntity
  8
0
  6
Continuous
 62
     7
370
    15
100
AcDbLine
 10
16854.5244099946
 20
-64509.0170965967
 30
0.0
 11
16854.5244099946
 21
-64220.7708628631
 31
0.0
  0
LINE
  5
44C
330
1F
100
AcDbEntity
  8
0
  6
Continuous
 62
     7
370
    15
100
AcDbLine
 10
10869.1216978391
 20
-64220.7708628631
 30
0.0
 11
16854.5244099946
 21
-64220.7708628631
 31
0.0
  0
LINE
  5
44D
330
1F
100
AcDbEntity
  8
0
  6
Continuous
 62
     7
370
    15
100
AcDbLine
 10
5337.0909843224
 20
-62811.1117099914
 30
0.0
 11
10600.1928956367
 21
-62811.1117099914
 31
0.0
  0
LINE
  5
44E
330
1F
100
AcDbEntity
  8
0
  6
Continuous
 62
     7
370
    15
100
AcDbLine
 10
-48896.3194277339
 20
-64739.5
 30
0.0
 11
-47902.7083024878
 21
-62811.1117099914
 31
0.0
  0
LINE
  5
44F
330
1F
100
AcDbEntity
  8
0
  6
Continuous
 62
     7
370
    15
100
AcDbLine
 10
-48442.3478405564
 20
-63125.9075543378
 30
0.0
 11
-49260.7626201399
 21
-64739.5
 31
0.0
  0
LINE
  5
450
330
1F
100
AcDbEntity
  8
0
  6
Continuous
 62
     7
370
    15
100
AcDbLine
 10
-49260.7626201399
 20
-64739.5
 30
0.0
 11
-48896.3194277339
 21
-64739.5
 31
0.0
  0
LINE
  5
451
330
1F
100
AcDbEntity
  8
0
  6
Continuous
 62
     7
370
    15
100
AcDbLine
 10
29048.1042969848
 20
-64070.1004692517
 30
0.0
 11
31157.2307890435
 21
-64070.1004692517
 31
0.0
  0
LINE
  5
452
330
1F
100
AcDbEntity
  8
0
  6
Continuous
 62
     7
370
    15
100
AcDbLine
 10
29136.0274949717
 20
-64244.1675934124
 30
0.0
 11
31157.2307890435
 21
-64244.1675934124
 31
0.0
  0
LINE
  5
453
330
1F
100
AcDbEntity
  8
0
  6
Continuous
 62
     7
370
    15
100
AcDbLine
 10
-12188.5313812688
 20
-62811.1117099914
 30
0.0
 11
-12188.5313812688
 21
-64739.5
 31
0.0
  0
LINE
  5
454
330
1F
100
AcDbEntity
  8
0
  6
Continuous
 62
     7
370
    15
100
AcDbLine
 10
15163.9905216332
 20
-64509.0170965967
 30
0.0
 11
15163.9905216332
 21
-64681.3192513103
 31
0.0
  0
LINE
  5
455
330
1F
100
AcDbEntity
  8
0
  6
Continuous
 62
     7
370
    15
100
AcDbLine
 10
-24103.3088826564
 20
-62811.1117099914
 30
0.0
 11
-12504.4295039497
 21
-62811.1117099914
 31
0.0
  0
LINE
  5
456
330
1F
100
AcDbEntity
  8
0
  6
Continuous
 62
     7
370
    15
100
AcDbLine
 10
-29024.9722808352
 20
-62811.1117099914
 30
0.0
 11
-29024.9722808352
 21
-64739.5
 31
0.0
  0
LINE
  5
457
330
1F
100
AcDbEntity
  8
0
  6
Continuous
 62
     7
370
    15
100
AcDbLine
 10
5082.6535098186
 20
-64739.5
 30
0.0
 11
5337.0909843224
 21
-64739.5
 31
0.0
  0
LINE
  5
458
330
1F
100
AcDbEntity
  8
0
  6
Continuous
 62
     7
370
    15
100
AcDbLine
 10
29048.1042969848
 20
-62811.1117099914
 30
0.0
 11
29048.1042969848
 21
-64070.1004692517
 31
0.0
  0
LINE
  5
459
330
1F
100
AcDbEntity
  8
0
  6
Continuous
 62
     7
370
    15
100
AcDbLine
 10
52856.2138234166
 20
-64739.5
 30
0.0
 11
53092.8518198081
 21
-64739.5
 31
0.0
  0
LINE
  5
45A
330
1F
100
AcDbEntity
  8
0
  6
Continuous
 62
     7
370
    15
100
AcDbLine
 10
23351.4568628711
 20
-64220.7708628631
 30
0.0
 11
28814.8736998385
 21
-64220.7708628631
 31
0.0
  0
LINE
  5
45B
330
1F
100
AcDbEntity
  8
0
  6
Continuous
 62
     7
370
    15
100
AcDbLine
 10
16572.3501874479
 20
1133.982090306
 30
0.0
 11
16572.3501874479
 21
1075.820239342
 31
0.0
  0
LINE
  5
45C
330
1F
100
AcDbEntity
  8
0
  6
Continuous
 62
     7
370
    15
100
AcDbLine
 10
17033.053591354
 20
1075.820239342
 30
0.0
 11
17033.053591354
 21
150.0
 31
0.0
  0
LINE
  5
45D
330
1F
100
AcDbEntity
  8
0
  6
Continuous
 62
     7
370
    15
100
AcDbLine
 10
5121.0114788648
 20
4260.5
 30
0.0
 11
5121.0114788648
 21
1533.082769248
 31
0.0
  0
LINE
  5
45E
330
1F
100
AcDbEntity
  8
0
  6
Continuous
 62
     7
370
    15
100
AcDbLine
 10
28717.5206668124
 20
-1251.1117099914
 30
0.0
 11
76030.5659583799
 21
-1251.1117099914
 31
0.0
  0
LINE
  5
45F
330
1F
100
AcDbEntity
  8
0
  6
Continuous
 62
     7
370
    15
100
AcDbLine
 10
5271.0114788648
 20
4260.5
 30
0.0
 11
5271.0114788648
 21
1595.214803604
 31
0.0
  0
LINE
  5
460
330
1F
100
AcDbEntity
  8
0
  6
Continuous
 62
     7
370
    15
100
AcDbLine
 10
5271.0114788648
 20
4260.5
 30
0.0
 11
5121.0114788648
 21
4260.5
 31
0.0
  0
LINE
  5
461
330
1F
100
AcDbEntity
  8
0
  6
Continuous
 62
     7
370
    15
100
AcDbLine
 10
28867.5206668124
 20
-1101.1117099914
 30
0.0
 11
76030.5659583799
 21
-1101.1117099914
 31
0.0
  0
LINE
  5
462
330
1F
100
AcDbEntity
  8
0
  6
Continuous
 62
     7
370
    15
100
AcDbLine
 10
76030.5659583799
 20
-1251.1117099914
 30
0.0
 11
76030.5659583799
 21
-1101.1117099914
 31
0.0
  0
LINE
  5
463
330
1F
100
AcDbEntity
  8
0
  6
Continuous
 62
     7
370
    15
100
AcDbLine
 10
16572.3501874479
 20
1075.820239342
 30
0.0
 11
17033.053591354
 21
1075.820239342
 31
0.0
  0
LINE
  5
464
330
1F
100
AcDbEntity
  8
0
  6
Continuous
 62
     7
370
    15
100
AcDbLine
 10
13619.8874603783
 20
1133.982090306
 30
0.0
 11
16572.3501874479
 21
1133.982090306
 31
0.0
  0
LINE
  5
465
330
1F
100
AcDbEntity
  8
0
  6
Continuous
 62
     7
370
    15
100
AcDbLine
 10
13619.8874603783
 20
1059.2796252687
 30
0.0
 11
13619.8874603783
 21
1133.982090306
 31
0.0
  0
LINE
  5
466
330
1F
100
AcDbEntity
  8
0
  6
Continuous
 62
     7
370
    15
100
AcDbLine
 10
13200.4282384231
 20
-47.5819159619
 30
0.0
 11
13200.4282384231
 21
1059.2796252687
 31
0.0
  0
LINE
  5
467
330
1F
100
AcDbEntity
  8
0
  6
Continuous
 62
     7
370
    15
100
AcDbLine
 10
6913.8081984306
 20
-47.5819159619
 30
0.0
 11
13200.4282384231
 21
-47.5819159619
 31
0.0
  0
LINE
  5
468
330
1F
100
AcDbEntity
  8
0
  6
Continuous
 62
     7
370
    15
100
AcDbLine
 10
28717.5206668124
 20
0.0
 30
0.0
 11
28717.5206668124
 21
-1251.1117099914
 31
0.0
  0
LINE
  5
469
330
1F
100
AcDbEntity
  8
0
  6
Continuous
 62
     7
370
    15
100
AcDbLine
 10
16883.053591354
 20
0.0
 30
0.0
 11
28717.5206668124
 21
0.0
 31
0.0
  0
LINE
  5
46A
330
1F
100
AcDbEntity
  8
0
  6
Continuous
 62
     7
370
    15
100
AcDbLine
 10
16422.3501874479
 20
925.820239342
 30
0.0
 11
16883.053591354
 21
925.820239342
 31
0.0
  0
LINE
  5
46B
330
1F
100
AcDbEntity
  8
0
  6
Continuous
 62
     7
370
    15
100
AcDbLine
 10
16422.3501874479
 20
983.982090306
 30
0.0
 11
16422.3501874479
 21
925.820239342
 31
0.0
  0
LINE
  5
46C
330
1F
100
AcDbEntity
  8
0
  6
Continuous
 62
     7
370
    15
100
AcDbLine
 10
13769.8874603783
 20
909.2796252687
 30
0.0
 11
13769.8874603783
 21
983.982090306
 31
0.0
  0
LINE
  5
46D
330
1F
100
AcDbEntity
  8
0
  6
Continuous
 62
     7
370
    15
100
AcDbLine
 10
13350.4282384231
 20
909.2796252687
 30
0.0
 11
13769.8874603783
 21
909.2796252687
 31
0.0
  0
LINE
  5
46E
330
1F
100
AcDbEntity
  8
0
  6
Continuous
 62
     7
370
    15
100
AcDbLine
 10
6851.6761640747
 20
-197.5819159619
 30
0.0
 11
13350.4282384231
 21
-197.5819159619
 31
0.0
  0
LINE
  5
46F
330
1F
100
AcDbEntity
  8
0
  6
Continuous
 62
     7
370
    15
100
AcDbLine
 10
5121.0114788648
 20
1533.082769248
 30
0.0
 11
6851.6761640747
 21
-197.5819159619
 31
0.0
  0
LINE
  5
470
330
1F
100
AcDbEntity
  8
0
  6
Continuous
 62
     7
370
    15
100
AcDbLine
 10
17033.053591354
 20
150.0
 30
0.0
 11
28867.5206668124
 21
150.0
 31
0.0
  0
LINE
  5
471
330
1F
100
AcDbEntity
  8
0
  6
Continuous
 62
     7
370
    15
100
AcDbLine
 10
28867.5206668124
 20
150.0
 30
0.0
 11
28867.5206668124
 21
-1101.1117099914
 31
0.0
  0
LINE
  5
472
330
1F
100
AcDbEntity
  8
0
  6
Continuous
 62
     7
370
    15
100
AcDbLine
 10
5271.0114788648
 20
1595.214803604
 30
0.0
 11
6913.8081984306
 21
-47.5819159619
 31
0.0
  0
LINE
  5
473
330
1F
100
AcDbEntity
  8
0
  6
Continuous
 62
     7
370
    15
100
AcDbLine
 10
16883.053591354
 20
925.820239342
 30
0.0
 11
16883.053591354
 21
0.0
 31
0.0
  0
LINE
  5
474
330
1F
100
AcDbEntity
  8
0
  6
Continuous
 62
     7
370
    15
100
AcDbLine
 10
13769.8874603783
 20
983.982090306
 30
0.0
 11
16422.3501874479
 21
983.982090306
 31
0.0
  0
LINE
  5
475
330
1F
100
AcDbEntity
  8
0
  6
Continuous
 62
     7
370
    15
100
AcDbLine
 10
13350.4282384231
 20
-197.5819159619
 30
0.0
 11
13350.4282384231
 21
909.2796252687
 31
0.0
  0
LINE
  5
476
330
1F
100
AcDbEntity
  8
0
  6
Continuous
 62
     7
370
    15
100
AcDbLine
 10
13200.4282384231
 20
1059.2796252687
 30
0.0
 11
13619.8874603783
 21
1059.2796252687
 31
0.0
  0
LINE
  5
477
330
1F
100
AcDbEntity
  8
0
  6
Continuous
 62
     7
370
    15
100
AcDbLine
 10
-69820.4340416205
 20
4260.5
 30
0.0
 11
-69970.4340416205
 21
4260.5
 31
0.0
  0
LINE
  5
478
330
1F
100
AcDbEntity
  8
0
  6
Continuous
 62
     7
370
    15
100
AcDbLine
 10
-73969.4340416201
 20
-1089.5
 30
0.0
 11
-69970.4340416205
 21
-1089.5
 31
0.0
  0
LINE
  5
479
330
1F
100
AcDbEntity
  8
0
  6
Continuous
 62
     7
370
    15
100
AcDbLine
 10
-69820.4340416205
 20
4260.5
 30
0.0
 11
-69820.4340416205
 21
-1239.5
 31
0.0
  0
LINE
  5
47A
330
1F
100
AcDbEntity
  8
0
  6
Continuous
 62
     7
370
    15
100
AcDbLine
 10
-73969.4340416201
 20
-1239.5
 30
0.0
 11
-69820.4340416205
 21
-1239.5
 31
0.0
  0
LINE
  5
47B
330
1F
100
AcDbEntity
  8
0
  6
Continuous
 62
     7
370
    15
100
AcDbLine
 10
-69970.4340416205
 20
4260.5
 30
0.0
 11
-69970.4340416205
 21
-1089.5
 31
0.0
  0
LINE
  5
47C
330
1F
100
AcDbEntity
  8
0
  6
Continuous
 62
     7
370
    15
100
AcDbLine
 10
-73969.4340416201
 20
-1089.5
 30
0.0
 11
-73969.4340416201
 21
-1239.5
 31
0.0
  0
LINE
  5
47D
330
1F
100
AcDbEntity
  8
0
  6
Continuous
 62
     7
370
    15
100
AcDbLine
 10
62352.5524595424
 20
-50812.4913002843
 30
0.0
 11
62352.5524595424
 21
-55086.8109987349
 31
0.0
  0
LINE
  5
47E
330
1F
100
AcDbEntity
  8
0
  6
Continuous
 62
     7
370
    15
100
AcDbLine
 10
34515.1840417334
 20
-50812.4913002844
 30
0.0
 11
62352.5524595424
 21
-50812.4913002843
 31
0.0
  0
LINE
  5
47F
330
1F
100
AcDbEntity
  8
0
  6
Continuous
 62
     7
370
    15
100
AcDbLine
 10
34515.1840417334
 20
-20467.0434458215
 30
0.0
 11
34515.1840417334
 21
-50812.4913002844
 31
0.0
  0
LINE
  5
480
330
1F
100
AcDbEntity
  8
0
  6
Continuous
 62
     7
370
    15
100
AcDbLine
 10
46302.9619817729
 20
-8763.7126207041
 30
0.0
 11
46302.9619817729
 21
-20467.0434458215
 31
0.0
  0
LINE
  5
481
330
1F
100
AcDbEntity
  8
0
  6
Continuous
 62
     7
370
    15
100
AcDbLine
 10
34515.1840417334
 20
-20467.0434458215
 30
0.0
 11
46302.9619817729
 21
-20467.0434458215
 31
0.0
  0
LINE
  5
482
330
1F
100
AcDbEntity
  8
0
  6
Continuous
 62
     7
370
    15
100
AcDbLine
 10
-3173.6652095669
 20
-22546.0603063812
 30
0.0
 11
4271.7236362453
 21
-22546.0603063812
 31
0.0
  0
LINE
  5
483
330
1F
100
AcDbEntity
  8
0
  6
Continuous
 62
     7
370
    15
100
AcDbLine
 10
-3173.6652095669
 20
-22307.3244987163
 30
0.0
 11
-3173.6652095669
 21
-22546.0603063812
 31
0.0
  0
LINE
  5
484
330
1F
100
AcDbEntity
  8
0
  6
Continuous
 62
     7
370
    15
100
AcDbLine
 10
-3173.6652095669
 20
-22307.3244987163
 30
0.0
 11
4271.7236362453
 21
-22307.3244987163
 31
0.0
  0
LINE
  5
485
330
1F
100
AcDbEntity
  8
0
  6
Continuous
 62
     7
370
    15
100
AcDbLine
 10
4271.7236362453
 20
-22307.3244987163
 30
0.0
 11
4271.7236362453
 21
-22546.0603063812
 31
0.0
  0
LINE
  5
486
330
1F
100
AcDbEntity
  8
0
  6
Continuous
 62
     7
370
    15
100
AcDbLine
 10
-28232.3503746911
 20
-20068.8862844406
 30
0.0
 11
-29708.9531978395
 21
-20068.8862844406
 31
0.0
  0
LINE
  5
487
330
1F
100
AcDbEntity
  8
0
  6
Continuous
 62
     7
370
    15
100
AcDbLine
 10
-28232.3503746911
 20
-20098.7720792744
 30
0.0
 11
-28232.3503746911
 21
-20068.8862844406
 31
0.0
  0
LINE
  5
488
330
1F
100
AcDbEntity
  8
0
  6
Continuous
 62
     7
370
    15
100
AcDbLine
 10
-24203.2773196215
 20
-20098.7720792744
 30
0.0
 11
-28232.3503746911
 21
-20098.7720792744
 31
0.0
  0
LINE
  5
489
330
1F
100
AcDbEntity
  8
0
  6
Continuous
 62
     7
370
    15
100
AcDbLine
 10
-24203.2773196215
 20
-22636.5111010076
 30
0.0
 11
-24203.2773196215
 21
-20098.7720792744
 31
0.0
  0
LINE
  5
48A
330
1F
100
AcDbEntity
  8
0
  6
Continuous
 62
     7
370
    15
100
AcDbLine
 10
-24056.5604397002
 20
-22636.5111010076
 30
0.0
 11
-24056.5604397002
 21
-23717.1019041811
 31
0.0
  0
LINE
  5
48B
330
1F
100
AcDbEntity
  8
0
  6
Continuous
 62
     7
370
    15
100
AcDbLine
 10
-24056.5604397002
 20
-23717.1019041811
 30
0.0
 11
-14858.1146281452
 21
-23717.1019041811
 31
0.0
  0
LINE
  5
48C
330
1F
100
AcDbEntity
  8
0
  6
Continuous
 62
     7
370
    15
100
AcDbLine
 10
-14858.1146281452
 20
-23717.1019041811
 30
0.0
 11
-14858.1146281452
 21
-21989.7987509335
 31
0.0
  0
LINE
  5
48D
330
1F
100
AcDbEntity
  8
0
  6
Continuous
 62
     7
370
    15
100
AcDbLine
 10
-14858.1146281452
 20
-21989.7987509335
 30
0.0
 11
-14552.9914545903
 21
-21989.7987509335
 31
0.0
  0
LINE
  5
48E
330
1F
100
AcDbEntity
  8
0
  6
Continuous
 62
     7
370
    15
100
AcDbLine
 10
-14552.9914545903
 20
-21989.7987509335
 30
0.0
 11
-14552.9914545903
 21
-23717.1019041811
 31
0.0
  0
LINE
  5
48F
330
1F
100
AcDbEntity
  8
0
  6
Continuous
 62
     7
370
    15
100
AcDbLine
 10
-14552.9914545903
 20
-23717.1019041811
 30
0.0
 11
-12219.6937715222
 21
-23717.1019041811
 31
0.0
  0
LINE
  5
490
330
1F
100
AcDbEntity
  8
0
  6
Continuous
 62
     7
370
    15
100
AcDbLine
 10
-12219.6937715222
 20
-23717.1019041811
 30
0.0
 11
-12219.6937715222
 21
-21171.3998328822
 31
0.0
  0
LINE
  5
491
330
1F
100
AcDbEntity
  8
0
  6
Continuous
 62
     7
370
    15
100
AcDbLine
 10
-12219.6937715222
 20
-21171.3998328822
 30
0.0
 11
-14789.4117750171
 21
-21171.3998328822
 31
0.0
  0
LINE
  5
492
330
1F
100
AcDbEntity
  8
0
  6
Continuous
 62
     7
370
    15
100
AcDbLine
 10
-14789.4117750171
 20
-21171.3998328822
 30
0.0
 11
-14789.4117750171
 21
-20961.6632876667
 31
0.0
  0
LINE
  5
493
330
1F
100
AcDbEntity
  8
0
  6
Continuous
 62
     7
370
    15
100
AcDbLine
 10
-14789.4117750171
 20
-20961.6632876667
 30
0.0
 11
-14432.4134001823
 21
-20961.6632876667
 31
0.0
  0
LINE
  5
494
330
1F
100
AcDbEntity
  8
0
  6
Continuous
 62
     7
370
    15
100
AcDbLine
 10
-14432.4134001823
 20
-20961.6632876667
 30
0.0
 11
-14432.4134001823
 21
-18010.7517606818
 31
0.0
  0
LINE
  5
495
330
1F
100
AcDbEntity
  8
0
  6
Continuous
 62
     7
370
    15
100
AcDbLine
 10
-14432.4134001823
 20
-18010.7517606818
 30
0.0
 11
-13908.589502107
 21
-18010.7517606818
 31
0.0
  0
LINE
  5
496
330
1F
100
AcDbEntity
  8
0
  6
Continuous
 62
     7
370
    15
100
AcDbLine
 10
-13908.589502107
 20
-18010.7517606818
 30
0.0
 11
-13908.589502107
 21
-18234.6676032915
 31
0.0
  0
LINE
  5
497
330
1F
100
AcDbEntity
  8
0
  6
Continuous
 62
     7
370
    15
100
AcDbLine
 10
-13908.589502107
 20
-18234.6676032915
 30
0.0
 11
-14200.2008320172
 21
-18234.6676032915
 31
0.0
  0
LINE
  5
498
330
1F
100
AcDbEntity
  8
0
  6
Continuous
 62
     7
370
    15
100
AcDbLine
 10
-14200.2008320172
 20
-18234.6676032915
 30
0.0
 11
-14200.2008320172
 21
-20961.6632876667
 31
0.0
  0
LINE
  5
499
330
1F
100
AcDbEntity
  8
0
  6
Continuous
 62
     7
370
    15
100
AcDbLine
 10
-14200.2008320172
 20
-20961.6632876667
 30
0.0
 11
-11446.5616298295
 21
-20961.6632876667
 31
0.0
  0
LINE
  5
49A
330
1F
100
AcDbEntity
  8
0
  6
Continuous
 62
     7
370
    15
100
AcDbLine
 10
-11446.5616298295
 20
-20961.6632876667
 30
0.0
 11
-11446.5616298295
 21
-21171.3998328822
 31
0.0
  0
LINE
  5
49B
330
1F
100
AcDbEntity
  8
0
  6
Continuous
 62
     7
370
    15
100
AcDbLine
 10
-11446.5616298295
 20
-21171.3998328822
 30
0.0
 11
-11981.758563926
 21
-21171.3998328822
 31
0.0
  0
LINE
  5
49C
330
1F
100
AcDbEntity
  8
0
  6
Continuous
 62
     7
370
    15
100
AcDbLine
 10
-11981.758563926
 20
-21171.3998328822
 30
0.0
 11
-11981.758563926
 21
-23176.8065025943
 31
0.0
  0
LINE
  5
49D
330
1F
100
AcDbEntity
  8
0
  6
Continuous
 62
     7
370
    15
100
AcDbLine
 10
-11981.758563926
 20
-23176.8065025943
 30
0.0
 11
-10462.9564536523
 21
-23176.8065025943
 31
0.0
  0
LINE
  5
49E
330
1F
100
AcDbEntity
  8
0
  6
Continuous
 62
     7
370
    15
100
AcDbLine
 10
-10462.9564536523
 20
-23176.8065025943
 30
0.0
 11
-10462.9564536523
 21
-20961.6632876667
 31
0.0
  0
LINE
  5
49F
330
1F
100
AcDbEntity
  8
0
  6
Continuous
 62
     7
370
    15
100
AcDbLine
 10
-10462.9564536523
 20
-20961.6632876667
 30
0.0
 11
-10193.6384945087
 21
-20961.6632876667
 31
0.0
  0
LINE
  5
4A0
330
1F
100
AcDbEntity
  8
0
  6
Continuous
 62
     7
370
    15
100
AcDbLine
 10
-10193.6384945087
 20
-20961.6632876667
 30
0.0
 11
-10193.6384945087
 21
-23717.1019041811
 31
0.0
  0
LINE
  5
4A1
330
1F
100
AcDbEntity
  8
0
  6
Continuous
 62
     7
370
    15
100
AcDbLine
 10
-10193.6384945087
 20
-23717.1019041811
 30
0.0
 11
-6496.4168515834
 21
-23717.1019041811
 31
0.0
  0
LINE
  5
4A2
330
1F
100
AcDbEntity
  8
0
  6
Continuous
 62
     7
370
    15
100
AcDbLine
 10
-6496.4168515834
 20
-23717.1019041811
 30
0.0
 11
-6496.4168515834
 21
-27222.2917884801
 31
0.0
  0
LINE
  5
4A3
330
1F
100
AcDbEntity
  8
0
  6
Continuous
 62
     7
370
    15
100
AcDbLine
 10
-6496.4168515834
 20
-24022.2917884801
 30
0.0
 11
-10462.5430944289
 21
-24022.2917884801
 31
0.0
  0
LINE
  5
4A4
330
1F
100
AcDbEntity
  8
0
  6
Continuous
 62
     7
370
    15
100
AcDbLine
 10
-10462.5430944289
 20
-23476.1868911478
 30
0.0
 11
-11928.5008842886
 21
-23476.1868911478
 31
0.0
  0
LINE
  5
4A5
330
1F
100
AcDbEntity
  8
0
  6
Continuous
 62
     7
370
    15
100
AcDbLine
 10
-11928.5008842886
 20
-24022.2917884801
 30
0.0
 11
-24476.5607231555
 21
-24022.2917884801
 31
0.0
  0
LINE
  5
4A6
330
1F
100
AcDbEntity
  8
0
  6
Continuous
 62
     7
370
    15
100
AcDbLine
 10
-24413.6872128393
 20
-22307.3244987163
 30
0.0
 11
-25406.6656528652
 21
-22307.3244987163
 31
0.0
  0
LINE
  5
4A7
330
1F
100
AcDbEntity
  8
0
  6
Continuous
 62
     7
370
    15
100
AcDbLine
 10
-24413.6872128393
 20
-20314.3139211073
 30
0.0
 11
-24413.6872128393
 21
-22307.3244987163
 31
0.0
  0
LINE
  5
4A8
330
1F
100
AcDbEntity
  8
0
  6
Continuous
 62
     7
370
    15
100
AcDbLine
 10
-28232.3503746911
 20
-20314.3139211073
 30
0.0
 11
-24413.6872128393
 21
-20314.3139211073
 31
0.0
  0
LINE
  5
4A9
330
1F
100
AcDbEntity
  8
0
  6
Continuous
 62
     7
370
    15
100
AcDbLine
 10
-28232.3503746911
 20
-20314.3139211073
 30
0.0
 11
-28232.3503746911
 21
-20253.8502734083
 31
0.0
  0
LINE
  5
4AA
330
1F
100
AcDbEntity
  8
0
  6
Continuous
 62
     7
370
    15
100
AcDbLine
 10
-30083.3457319605
 20
-20253.8502734083
 30
0.0
 11
-28232.3503746911
 21
-20253.8502734083
 31
0.0
  0
LINE
  5
4AB
330
1F
100
AcDbEntity
  8
0
  6
Continuous
 62
     7
370
    15
100
AcDbLine
 10
-30083.3457319605
 20
-16773.5599401151
 30
0.0
 11
-30083.3457319605
 21
-20253.8502734083
 31
0.0
  0
LINE
  5
4AC
330
1F
100
AcDbEntity
  8
0
  6
Continuous
 62
     7
370
    15
100
AcDbLine
 10
-29708.9531978395
 20
-20068.8862844406
 30
0.0
 11
-29708.9531978395
 21
-16773.5599401151
 31
0.0
  0
LINE
  5
4AD
330
1F
100
AcDbEntity
  8
0
  6
Continuous
 62
     7
370
    15
100
AcDbLine
 10
-10462.5430944289
 20
-24022.2917884801
 30
0.0
 11
-10462.5430944289
 21
-23476.1868911478
 31
0.0
  0
LINE
  5
4AE
330
1F
100
AcDbEntity
  8
0
  6
Continuous
 62
     7
370
    15
100
AcDbLine
 10
-11928.5008842886
 20
-23476.1868911478
 30
0.0
 11
-11928.5008842886
 21
-24022.2917884801
 31
0.0
  0
LINE
  5
4AF
330
1F
100
AcDbEntity
  8
0
  6
Continuous
 62
     7
370
    15
100
AcDbLine
 10
-24203.2773196215
 20
-22636.5111010076
 30
0.0
 11
-24056.5604397002
 21
-22636.5111010076
 31
0.0
  0
LINE
  5
4B0
330
1F
100
AcDbEntity
  8
0
  6
Continuous
 62
     7
370
    15
100
AcDbLine
 10
-24476.5607231555
 20
-24022.2917884801
 30
0.0
 11
-24476.5607231555
 21
-22307.3244987163
 31
0.0
  0
LINE
  5
4B1
330
1F
100
AcDbEntity
  8
0
  6
Continuous
 62
     7
370
    15
100
AcDbLine
 10
-9056.2230340037
 20
-11790.0205230877
 30
0.0
 11
-9056.2230340037
 21
-8122.5
 31
0.0
  0
LINE
  5
4B2
330
1F
100
AcDbEntity
  8
0
  6
Continuous
 62
     7
370
    15
100
AcDbLine
 10
-7684.7717735785
 20
-11956.4462999806
 30
0.0
 11
-7684.7717735785
 21
-11790.0205230877
 31
0.0
  0
LINE
  5
4B3
330
1F
100
AcDbEntity
  8
0
  6
Continuous
 62
     7
370
    15
100
AcDbLine
 10
-9187.4902994372
 20
-11956.4462999806
 30
0.0
 11
-7684.7717735785
 21
-11956.4462999806
 31
0.0
  0
LINE
  5
4B4
330
1F
100
AcDbEntity
  8
0
  6
Continuous
 62
     7
370
    15
100
AcDbLine
 10
-9187.4902994372
 20
-11121.5002189809
 30
0.0
 11
-9187.4902994372
 21
-11956.4462999806
 31
0.0
  0
LINE
  5
4B5
330
1F
100
AcDbEntity
  8
0
  6
Continuous
 62
     7
370
    15
100
AcDbLine
 10
-9369.2042467727
 20
-11121.5002189809
 30
0.0
 11
-9187.4902994372
 21
-11121.5002189809
 31
0.0
  0
LINE
  5
4B6
330
1F
100
AcDbEntity
  8
0
  6
Continuous
 62
     7
370
    15
100
AcDbLine
 10
-9369.2042467727
 20
-8122.5
 30
0.0
 11
-9369.2042467727
 21
-11121.5002189809
 31
0.0
  0
LINE
  5
4B7
330
1F
100
AcDbEntity
  8
0
  6
Continuous
 62
     7
370
    15
100
AcDbLine
 10
-7684.7717735785
 20
-11790.0205230877
 30
0.0
 11
-9056.2230340037
 21
-11790.0205230877
 31
0.0
  0
LINE
  5
4B8
330
1F
100
AcDbEntity
  8
0
  6
Continuous
 62
     7
370
    15
100
AcDbLine
 10
-22355.1039436611
 20
-15354.2974940851
 30
0.0
 11
-29708.9531978395
 21
-15354.2974940851
 31
0.0
  0
LINE
  5
4B9
330
1F
100
AcDbEntity
  8
0
  6
Continuous
 62
     7
370
    15
100
AcDbLine
 10
-22355.1039436611
 20
-15539.5595785548
 30
0.0
 11
-22355.1039436611
 21
-15354.2974940851
 31
0.0
  0
LINE
  5
4BA
330
1F
100
AcDbEntity
  8
0
  6
Continuous
 62
     7
370
    15
100
AcDbLine
 10
-30083.3457319605
 20
-15539.5595785548
 30
0.0
 11
-22355.1039436611
 21
-15539.5595785548
 31
0.0
  0
LINE
  5
4BB
330
1F
100
AcDbEntity
  8
0
  6
Continuous
 62
     7
370
    15
100
AcDbLine
 10
-30083.3457319605
 20
-6332.3385646747
 30
0.0
 11
-30083.3457319605
 21
-15539.5595785548
 31
0.0
  0
LINE
  5
4BC
330
1F
100
AcDbEntity
  8
0
  6
Continuous
 62
     7
370
    15
100
AcDbLine
 10
-29708.9531978395
 20
-15354.2974940851
 30
0.0
 11
-29708.9531978395
 21
-8122.5
 31
0.0
  0
LINE
  5
4BD
330
1F
100
AcDbEntity
  8
0
  6
Continuous
 62
     7
370
    15
100
AcDbLine
 10
5276.7017760599
 20
-24022.2917884801
 30
0.0
 11
5276.7017760599
 21
-23774.8884739547
 31
0.0
  0
LINE
  5
4BE
330
1F
100
AcDbEntity
  8
0
  6
Continuous
 62
     7
370
    15
100
AcDbLine
 10
5537.3054262519
 20
-22298.2983519864
 30
0.0
 11
5537.3054262519
 21
-23774.8884739547
 31
0.0
  0
LINE
  5
4BF
330
1F
100
AcDbEntity
  8
0
  6
Continuous
 62
     7
370
    15
100
AcDbLine
 10
10522.1225006876
 20
-16921.9827108806
 30
0.0
 11
13034.7998489681
 21
-16921.9827108806
 31
0.0
  0
LINE
  5
4C0
330
1F
100
AcDbEntity
  8
0
  6
Continuous
 62
     7
370
    15
100
AcDbLine
 10
13034.7998489681
 20
-16921.9827108806
 30
0.0
 11
13034.7998489681
 21
-19468.6549593815
 31
0.0
  0
LINE
  5
4C1
330
1F
100
AcDbEntity
  8
0
  6
Continuous
 62
     7
370
    15
100
AcDbLine
 10
25870.5711743199
 20
-19468.6549593815
 30
0.0
 11
13034.7998489681
 21
-19468.6549593815
 31
0.0
  0
LINE
  5
4C2
330
1F
100
AcDbEntity
  8
0
  6
Continuous
 62
     7
370
    15
100
AcDbLine
 10
25870.5711743199
 20
-19458.6753740767
 30
0.0
 11
28842.6755585175
 21
-19458.6753740767
 31
0.0
  0
LINE
  5
4C3
330
1F
100
AcDbEntity
  8
0
  6
Continuous
 62
     7
370
    15
100
AcDbLine
 10
28842.6755585175
 20
-19458.6753740767
 30
0.0
 11
28842.6755585175
 21
-14462.7127320334
 31
0.0
  0
LINE
  5
4C4
330
1F
100
AcDbEntity
  8
0
  6
Continuous
 62
     7
370
    15
100
AcDbLine
 10
19998.7592831123
 20
-14462.7127320334
 30
0.0
 11
29181.3375429733
 21
-14462.7127320334
 31
0.0
  0
LINE
  5
4C5
330
1F
100
AcDbEntity
  8
0
  6
Continuous
 62
     7
370
    15
100
AcDbLine
 10
29181.3375429733
 20
-14144.6451909179
 30
0.0
 11
29181.3375429733
 21
-19688.5864023921
 31
0.0
  0
LINE
  5
4C6
330
1F
100
AcDbEntity
  8
0
  6
Continuous
 62
     7
370
    15
100
AcDbLine
 10
14983.6376574244
 20
-23774.8884739547
 30
0.0
 11
14983.6376574244
 21
-21162.3736861523
 31
0.0
  0
LINE
  5
4C7
330
1F
100
AcDbEntity
  8
0
  6
Continuous
 62
     7
370
    15
100
AcDbLine
 10
13034.7998489681
 20
-21162.3736861523
 30
0.0
 11
14983.6376574244
 21
-21162.3736861523
 31
0.0
  0
LINE
  5
4C8
330
1F
100
AcDbEntity
  8
0
  6
Continuous
 62
     7
370
    15
100
AcDbLine
 10
13034.7998489681
 20
-21162.3736861523
 30
0.0
 11
13034.7998489681
 21
-23774.8884739547
 31
0.0
  0
LINE
  5
4C9
330
1F
100
AcDbEntity
  8
0
  6
Continuous
 62
     7
370
    15
100
AcDbLine
 10
15147.1643529694
 20
-19688.5864023921
 30
0.0
 11
29181.3375429733
 21
-19688.5864023921
 31
0.0
  0
LINE
  5
4CA
330
1F
100
AcDbEntity
  8
0
  6
Continuous
 62
     7
370
    15
100
AcDbLine
 10
25870.5711743199
 20
-19458.6753740767
 30
0.0
 11
25870.5711743199
 21
-19468.6549593815
 31
0.0
  0
LINE
  5
4CB
330
1F
100
AcDbEntity
  8
0
  6
Continuous
 62
     7
370
    15
100
AcDbLine
 10
12849.8174674996
 20
-23774.8884739547
 30
0.0
 11
5712.774472224
 21
-23774.8884739547
 31
0.0
  0
LINE
  5
4CC
330
1F
100
AcDbEntity
  8
0
  6
Continuous
 62
     7
370
    15
100
AcDbLine
 10
13034.7998489681
 20
-20952.6371409368
 30
0.0
 11
14983.6376574244
 21
-20952.6371409368
 31
0.0
  0
LINE
  5
4CD
330
1F
100
AcDbEntity
  8
0
  6
Continuous
 62
     7
370
    15
100
AcDbLine
 10
14983.6376574244
 20
-20952.6371409368
 30
0.0
 11
14983.6376574244
 21
-19715.4410238058
 31
0.0
  0
LINE
  5
4CE
330
1F
100
AcDbEntity
  8
0
  6
Continuous
 62
     7
370
    15
100
AcDbLine
 10
14983.6376574244
 20
-19715.4410238058
 30
0.0
 11
13034.7998489681
 21
-19715.4410238058
 31
0.0
  0
LINE
  5
4CF
330
1F
100
AcDbEntity
  8
0
  6
Continuous
 62
     7
370
    15
100
AcDbLine
 10
12849.8174674996
 20
-17123.5536061565
 30
0.0
 11
12849.8174674996
 21
-23774.8884739547
 31
0.0
  0
LINE
  5
4D0
330
1F
100
AcDbEntity
  8
0
  6
Continuous
 62
     7
370
    15
100
AcDbLine
 10
10522.1225006876
 20
-17123.5536061565
 30
0.0
 11
12849.8174674996
 21
-17123.5536061565
 31
0.0
  0
LINE
  5
4D1
330
1F
100
AcDbEntity
  8
0
  6
Continuous
 62
     7
370
    15
100
AcDbLine
 10
10522.1225006876
 20
-16921.9827108806
 30
0.0
 11
10522.1225006876
 21
-17123.5536061565
 31
0.0
  0
LINE
  5
4D2
330
1F
100
AcDbEntity
  8
0
  6
Continuous
 62
     7
370
    15
100
AcDbLine
 10
5537.3054262519
 20
-23774.8884739547
 30
0.0
 11
5276.7017760599
 21
-23774.8884739547
 31
0.0
  0
LINE
  5
4D3
330
1F
100
AcDbEntity
  8
0
  6
Continuous
 62
     7
370
    15
100
AcDbLine
 10
5537.3054262519
 20
-22298.2983519864
 30
0.0
 11
5712.774472224
 21
-22298.2983519864
 31
0.0
  0
LINE
  5
4D4
330
1F
100
AcDbEntity
  8
0
  6
Continuous
 62
     7
370
    15
100
AcDbLine
 10
5712.774472224
 20
-22298.2983519864
 30
0.0
 11
5712.774472224
 21
-23774.8884739547
 31
0.0
  0
LINE
  5
4D5
330
1F
100
AcDbEntity
  8
0
  6
Continuous
 62
     7
370
    15
100
AcDbLine
 10
15147.1643529694
 20
-24022.2917884801
 30
0.0
 11
15147.1643529694
 21
-19688.5864023921
 31
0.0
  0
LINE
  5
4D6
330
1F
100
AcDbEntity
  8
0
  6
Continuous
 62
     7
370
    15
100
AcDbLine
 10
13034.7998489681
 20
-19715.4410238058
 30
0.0
 11
13034.7998489681
 21
-20952.6371409368
 31
0.0
  0
LINE
  5
4D7
330
1F
100
AcDbEntity
  8
0
  6
Continuous
 62
     7
370
    15
100
AcDbLine
 10
15147.1643529694
 20
-24022.2917884801
 30
0.0
 11
5276.7017760599
 21
-24022.2917884801
 31
0.0
  0
LINE
  5
4D8
330
1F
100
AcDbEntity
  8
0
  6
Continuous
 62
     7
370
    15
100
AcDbLine
 10
14983.6376574244
 20
-23774.8884739547
 30
0.0
 11
13034.7998489681
 21
-23774.8884739547
 31
0.0
  0
LINE
  5
4D9
330
1F
100
AcDbEntity
  8
0
  6
Continuous
 62
     7
370
    15
100
AcDbLine
 10
-16945.4837097751
 20
-16810.7205595234
 30
0.0
 11
-14687.0229084196
 21
-16810.7205595234
 31
0.0
  0
LINE
  5
4DA
330
1F
100
AcDbEntity
  8
0
  6
Continuous
 62
     7
370
    15
100
AcDbLine
 10
-16945.4837097751
 20
-17454.4389462494
 30
0.0
 11
-16945.4837097751
 21
-16810.7205595234
 31
0.0
  0
LINE
  5
4DB
330
1F
100
AcDbEntity
  8
0
  6
Continuous
 62
     7
370
    15
100
AcDbLine
 10
-14054.3951670621
 20
-16585.1689244739
 30
0.0
 11
-20473.6973275696
 21
-16585.1689244739
 31
0.0
  0
LINE
  5
4DC
330
1F
100
AcDbEntity
  8
0
  6
Continuous
 62
     7
370
    15
100
AcDbLine
 10
-14054.3951670621
 20
-17454.4389462494
 30
0.0
 11
-14054.3951670621
 21
-16585.1689244739
 31
0.0
  0
LINE
  5
4DD
330
1F
100
AcDbEntity
  8
0
  6
Continuous
 62
     7
370
    15
100
AcDbLine
 10
-14687.0229084196
 20
-17454.4389462494
 30
0.0
 11
-14054.3951670621
 21
-17454.4389462494
 31
0.0
  0
LINE
  5
4DE
330
1F
100
AcDbEntity
  8
0
  6
Continuous
 62
     7
370
    15
100
AcDbLine
 10
-14687.0229084196
 20
-16810.7205595234
 30
0.0
 11
-14687.0229084196
 21
-17454.4389462494
 31
0.0
  0
LINE
  5
4DF
330
1F
100
AcDbEntity
  8
0
  6
Continuous
 62
     7
370
    15
100
AcDbLine
 10
-17533.5193127409
 20
-16810.7205595234
 30
0.0
 11
-17533.5193127409
 21
-17454.4389462494
 31
0.0
  0
LINE
  5
4E0
330
1F
100
AcDbEntity
  8
0
  6
Continuous
 62
     7
370
    15
100
AcDbLine
 10
-18622.6635164948
 20
-16810.7205595234
 30
0.0
 11
-17533.5193127409
 21
-16810.7205595234
 31
0.0
  0
LINE
  5
4E1
330
1F
100
AcDbEntity
  8
0
  6
Continuous
 62
     7
370
    15
100
AcDbLine
 10
-18791.4041677806
 20
-17132.5797528864
 30
0.0
 11
-18622.6635164948
 21
-17132.5797528864
 31
0.0
  0
LINE
  5
4E2
330
1F
100
AcDbEntity
  8
0
  6
Continuous
 62
     7
370
    15
100
AcDbLine
 10
-18791.4041677806
 20
-16810.7205595234
 30
0.0
 11
-18791.4041677806
 21
-17132.5797528864
 31
0.0
  0
LINE
  5
4E3
330
1F
100
AcDbEntity
  8
0
  6
Continuous
 62
     7
370
    15
100
AcDbLine
 10
-19824.3014877726
 20
-17454.4389462494
 30
0.0
 11
-19824.3014877726
 21
-16810.7205595234
 31
0.0
  0
LINE
  5
4E4
330
1F
100
AcDbEntity
  8
0
  6
Continuous
 62
     7
370
    15
100
AcDbLine
 10
-20473.6973275696
 20
-17454.4389462494
 30
0.0
 11
-19824.3014877726
 21
-17454.4389462494
 31
0.0
  0
LINE
  5
4E5
330
1F
100
AcDbEntity
  8
0
  6
Continuous
 62
     7
370
    15
100
AcDbLine
 10
-20473.6973275696
 20
-16585.1689244739
 30
0.0
 11
-20473.6973275696
 21
-17454.4389462494
 31
0.0
  0
LINE
  5
4E6
330
1F
100
AcDbEntity
  8
0
  6
Continuous
 62
     7
370
    15
100
AcDbLine
 10
-19824.3014877726
 20
-16810.7205595234
 30
0.0
 11
-18791.4041677806
 21
-16810.7205595234
 31
0.0
  0
LINE
  5
4E7
330
1F
100
AcDbEntity
  8
0
  6
Continuous
 62
     7
370
    15
100
AcDbLine
 10
-17533.5193127409
 20
-17454.4389462494
 30
0.0
 11
-16945.4837097751
 21
-17454.4389462494
 31
0.0
  0
LINE
  5
4E8
330
1F
100
AcDbEntity
  8
0
  6
Continuous
 62
     7
370
    15
100
AcDbLine
 10
-18622.6635164948
 20
-17132.5797528864
 30
0.0
 11
-18622.6635164948
 21
-16810.7205595234
 31
0.0
  0
LINE
  5
4E9
330
1F
100
AcDbEntity
  8
0
  6
Continuous
 62
     7
370
    15
100
AcDbLine
 10
-17602.764279871
 20
-10890.6325136975
 30
0.0
 11
-22394.6259075383
 21
-10890.6325136975
 31
0.0
  0
LINE
  5
4EA
330
1F
100
AcDbEntity
  8
0
  6
Continuous
 62
     7
370
    15
100
AcDbLine
 10
-17179.2745017806
 20
-10059.6337038597
 30
0.0
 11
-17602.764279871
 21
-10059.6337038597
 31
0.0
  0
LINE
  5
4EB
330
1F
100
AcDbEntity
  8
0
  6
Continuous
 62
     7
370
    15
100
AcDbLine
 10
-17179.2745017806
 20
-10283.3641526622
 30
0.0
 11
-17179.2745017806
 21
-10059.6337038597
 31
0.0
  0
LINE
  5
4EC
330
1F
100
AcDbEntity
  8
0
  6
Continuous
 62
     7
370
    15
100
AcDbLine
 10
-17379.0338310685
 20
-10283.3641526622
 30
0.0
 11
-17179.2745017806
 21
-10283.3641526622
 31
0.0
  0
LINE
  5
4ED
330
1F
100
AcDbEntity
  8
0
  6
Continuous
 62
     7
370
    15
100
AcDbLine
 10
-17379.0338310685
 20
-11121.5002189809
 30
0.0
 11
-17379.0338310685
 21
-10283.3641526622
 31
0.0
  0
LINE
  5
4EE
330
1F
100
AcDbEntity
  8
0
  6
Continuous
 62
     7
370
    15
100
AcDbLine
 10
-22394.6259075383
 20
-11700.0732992957
 30
0.0
 11
-22394.6259075383
 21
-11121.5002189809
 31
0.0
  0
LINE
  5
4EF
330
1F
100
AcDbEntity
  8
0
  6
Continuous
 62
     7
370
    15
100
AcDbLine
 10
-22597.6419300889
 20
-11700.0732992957
 30
0.0
 11
-22394.6259075383
 21
-11700.0732992957
 31
0.0
  0
LINE
  5
4F0
330
1F
100
AcDbEntity
  8
0
  6
Continuous
 62
     7
370
    15
100
AcDbLine
 10
-22394.6259075383
 20
-10890.6325136975
 30
0.0
 11
-22394.6259075383
 21
-8122.5
 31
0.0
  0
LINE
  5
4F1
330
1F
100
AcDbEntity
  8
0
  6
Continuous
 62
     7
370
    15
100
AcDbLine
 10
-17602.764279871
 20
-10059.6337038597
 30
0.0
 11
-17602.764279871
 21
-10890.6325136975
 31
0.0
  0
LINE
  5
4F2
330
1F
100
AcDbEntity
  8
0
  6
Continuous
 62
     7
370
    15
100
AcDbLine
 10
-22394.6259075383
 20
-11121.5002189809
 30
0.0
 11
-17379.0338310685
 21
-11121.5002189809
 31
0.0
  0
LINE
  5
4F3
330
1F
100
AcDbEntity
  8
0
  6
Continuous
 62
     7
370
    15
100
AcDbLine
 10
-22597.6419300889
 20
-8122.5
 30
0.0
 11
-22597.6419300889
 21
-11700.0732992957
 31
0.0
  0
LINE
  5
4F4
330
1F
100
AcDbEntity
  8
0
  6
Continuous
 62
     7
370
    15
100
AcDbLine
 10
-19824.3014877726
 20
-12686.327684489
 30
0.0
 11
-19824.3014877726
 21
-15002.4169337212
 31
0.0
  0
LINE
  5
4F5
330
1F
100
AcDbEntity
  8
0
  6
Continuous
 62
     7
370
    15
100
AcDbLine
 10
-15460.192390695
 20
-12686.327684489
 30
0.0
 11
-19824.3014877726
 21
-12686.327684489
 31
0.0
  0
LINE
  5
4F6
330
1F
100
AcDbEntity
  8
0
  6
Continuous
 62
     7
370
    15
100
AcDbLine
 10
-19824.3014877726
 20
-15002.4169337212
 30
0.0
 11
-15460.192390695
 21
-15002.4169337212
 31
0.0
  0
LINE
  5
4F7
330
1F
100
AcDbEntity
  8
0
  6
Continuous
 62
     7
370
    15
100
AcDbLine
 10
-15460.192390695
 20
-15002.4169337212
 30
0.0
 11
-15460.192390695
 21
-12686.327684489
 31
0.0
  0
LINE
  5
4F8
330
1F
100
AcDbEntity
  8
0
  6
Continuous
 62
     7
370
    15
100
AcDbLine
 10
-22217.8705703687
 20
-18902.8769222588
 30
0.0
 11
-22217.8705703687
 21
-16773.5599401151
 31
0.0
  0
LINE
  5
4F9
330
1F
100
AcDbEntity
  8
0
  6
Continuous
 62
     7
370
    15
100
AcDbLine
 10
-22597.6419300889
 20
-18902.8769222588
 30
0.0
 11
-22217.8705703687
 21
-18902.8769222588
 31
0.0
  0
LINE
  5
4FA
330
1F
100
AcDbEntity
  8
0
  6
Continuous
 62
     7
370
    15
100
AcDbLine
 10
-22597.6419300889
 20
-17972.4370909443
 30
0.0
 11
-22597.6419300889
 21
-18902.8769222588
 31
0.0
  0
LINE
  5
4FB
330
1F
100
AcDbEntity
  8
0
  6
Continuous
 62
     7
370
    15
100
AcDbLine
 10
-22474.2162381798
 20
-17972.4370909443
 30
0.0
 11
-22597.6419300889
 21
-17972.4370909443
 31
0.0
  0
LINE
  5
4FC
330
1F
100
AcDbEntity
  8
0
  6
Continuous
 62
     7
370
    15
100
AcDbLine
 10
-22474.2162381798
 20
-16773.5599401151
 30
0.0
 11
-22474.2162381798
 21
-17972.4370909443
 31
0.0
  0
LINE
  5
4FD
330
1F
100
AcDbEntity
  8
0
  6
Continuous
 62
     7
370
    15
100
AcDbLine
 10
-22217.8705703687
 20
-16773.5599401151
 30
0.0
 11
-30083.3457319605
 21
-16773.5599401151
 31
0.0
  0
LINE
  5
4FE
330
1F
100
AcDbEntity
  8
0
  6
Continuous
 62
     7
370
    15
100
AcDbLine
 10
-4207.0923184311
 20
-14880.7142627772
 30
0.0
 11
7741.7430494319
 21
-14880.7142627772
 31
0.0
  0
LINE
  5
4FF
330
1F
100
AcDbEntity
  8
0
  6
Continuous
 62
     7
370
    15
100
AcDbLine
 10
7741.7430494319
 20
-14880.7142627772
 30
0.0
 11
7741.7430494319
 21
-11956.4462999806
 31
0.0
  0
LINE
  5
500
330
1F
100
AcDbEntity
  8
0
  6
Continuous
 62
     7
370
    15
100
AcDbLine
 10
7741.7430494319
 20
-11956.4462999806
 30
0.0
 11
-4207.0923184311
 21
-11956.4462999806
 31
0.0
  0
LINE
  5
501
330
1F
100
AcDbEntity
  8
0
  6
Continuous
 62
     7
370
    15
100
AcDbLine
 10
-4207.0923184311
 20
-11956.4462999806
 30
0.0
 11
-4207.0923184311
 21
-14880.7142627772
 31
0.0
  0
LINE
  5
502
330
1F
100
AcDbEntity
  8
0
  6
Continuous
 62
     7
370
    15
100
AcDbLine
 10
2631.5032045457
 20
-15101.4794114733
 30
0.0
 11
2631.5032045457
 21
-16931.0088576106
 31
0.0
  0
LINE
  5
503
330
1F
100
AcDbEntity
  8
0
  6
Continuous
 62
     7
370
    15
100
AcDbLine
 10
13034.7998489681
 20
-8122.5
 30
0.0
 11
13034.7998489681
 21
-8446.1924933456
 31
0.0
  0
LINE
  5
504
330
1F
100
AcDbEntity
  8
0
  6
Continuous
 62
     7
370
    15
100
AcDbLine
 10
8029.528577067
 20
-8760.8732885895
 30
0.0
 11
8061.8977058241
 21
-8760.8732885895
 31
0.0
  0
LINE
  5
505
330
1F
100
AcDbEntity
  8
0
  6
Continuous
 62
     7
370
    15
100
AcDbLine
 10
8029.528577067
 20
-8760.8732885895
 30
0.0
 11
8029.528577067
 21
-15101.4794114733
 31
0.0
  0
LINE
  5
506
330
1F
100
AcDbEntity
  8
0
  6
Continuous
 62
     7
370
    15
100
AcDbLine
 10
2841.6747135295
 20
-15101.4794114733
 30
0.0
 11
8029.528577067
 21
-15101.4794114733
 31
0.0
  0
LINE
  5
507
330
1F
100
AcDbEntity
  8
0
  6
Continuous
 62
     7
370
    15
100
AcDbLine
 10
2841.6747135295
 20
-15101.4794114733
 30
0.0
 11
2841.6747135295
 21
-16931.0088576106
 31
0.0
  0
LINE
  5
508
330
1F
100
AcDbEntity
  8
0
  6
Continuous
 62
     7
370
    15
100
AcDbLine
 10
2841.6747135295
 20
-16931.0088576106
 30
0.0
 11
8578.7688897695
 21
-16931.0088576106
 31
0.0
  0
LINE
  5
509
330
1F
100
AcDbEntity
  8
0
  6
Continuous
 62
     7
370
    15
100
AcDbLine
 10
8578.7688897695
 20
-16931.0088576106
 30
0.0
 11
8578.7688897695
 21
-17132.5797528864
 31
0.0
  0
LINE
  5
50A
330
1F
100
AcDbEntity
  8
0
  6
Continuous
 62
     7
370
    15
100
AcDbLine
 10
5712.774472224
 20
-17132.5797528864
 30
0.0
 11
5712.774472224
 21
-18623.0677674327
 31
0.0
  0
LINE
  5
50B
330
1F
100
AcDbEntity
  8
0
  6
Continuous
 62
     7
370
    15
100
AcDbLine
 10
5537.3054262519
 20
-18623.0677674327
 30
0.0
 11
5712.774472224
 21
-18623.0677674327
 31
0.0
  0
LINE
  5
50C
330
1F
100
AcDbEntity
  8
0
  6
Continuous
 62
     7
370
    15
100
AcDbLine
 10
5537.3054262519
 20
-17132.5797528864
 30
0.0
 11
5537.3054262519
 21
-18623.0677674327
 31
0.0
  0
LINE
  5
50D
330
1F
100
AcDbEntity
  8
0
  6
Continuous
 62
     7
370
    15
100
AcDbLine
 10
-4723.9871362988
 20
-11665.1895930451
 30
0.0
 11
-4723.9871362988
 21
-11956.4462999806
 31
0.0
  0
LINE
  5
50E
330
1F
100
AcDbEntity
  8
0
  6
Continuous
 62
     7
370
    15
100
AcDbLine
 10
8061.8977058241
 20
-8446.1924933456
 30
0.0
 11
13034.7998489681
 21
-8446.1924933456
 31
0.0
  0
LINE
  5
50F
330
1F
100
AcDbEntity
  8
0
  6
Continuous
 62
     7
370
    15
100
AcDbLine
 10
-1118.398982059
 20
-15101.4794114733
 30
0.0
 11
2631.5032045457
 21
-15101.4794114733
 31
0.0
  0
LINE
  5
510
330
1F
100
AcDbEntity
  8
0
  6
Continuous
 62
     7
370
    15
100
AcDbLine
 10
-6674.0662735251
 20
-16931.0088576106
 30
0.0
 11
-6674.0662735251
 21
-17658.4952587455
 31
0.0
  0
LINE
  5
511
330
1F
100
AcDbEntity
  8
0
  6
Continuous
 62
     7
370
    15
100
AcDbLine
 10
7774.112178189
 20
-11665.1895930451
 30
0.0
 11
-4723.9871362988
 21
-11665.1895930451
 31
0.0
  0
LINE
  5
512
330
1F
100
AcDbEntity
  8
0
  6
Continuous
 62
     7
370
    15
100
AcDbLine
 10
7774.112178189
 20
-8171.1222838703
 30
0.0
 11
12734.6496947219
 21
-8171.1222838703
 31
0.0
  0
LINE
  5
513
330
1F
100
AcDbEntity
  8
0
  6
Continuous
 62
     7
370
    15
100
AcDbLine
 10
-6431.5708064801
 20
-17132.5797528864
 30
0.0
 11
5537.3054262519
 21
-17132.5797528864
 31
0.0
  0
LINE
  5
514
330
1F
100
AcDbEntity
  8
0
  6
Continuous
 62
     7
370
    15
100
AcDbLine
 10
-6674.0662735251
 20
-17658.4952587455
 30
0.0
 11
-6431.5708064801
 21
-17658.4952587455
 31
0.0
  0
LINE
  5
515
330
1F
100
AcDbEntity
  8
0
  6
Continuous
 62
     7
370
    15
100
AcDbLine
 10
-1273.2621992049
 20
-15101.4794114733
 30
0.0
 11
-1273.2621992049
 21
-16931.0088576106
 31
0.0
  0
LINE
  5
516
330
1F
100
AcDbEntity
  8
0
  6
Continuous
 62
     7
370
    15
100
AcDbLine
 10
8061.8977058241
 20
-8446.1924933456
 30
0.0
 11
8061.8977058241
 21
-8760.8732885895
 31
0.0
  0
LINE
  5
517
330
1F
100
AcDbEntity
  8
0
  6
Continuous
 62
     7
370
    15
100
AcDbLine
 10
-6674.0662735251
 20
-16931.0088576106
 30
0.0
 11
-1273.2621992049
 21
-16931.0088576106
 31
0.0
  0
LINE
  5
518
330
1F
100
AcDbEntity
  8
0
  6
Continuous
 62
     7
370
    15
100
AcDbLine
 10
-4207.0923184311
 20
-15101.4794114733
 30
0.0
 11
-1273.2621992049
 21
-15101.4794114733
 31
0.0
  0
LINE
  5
519
330
1F
100
AcDbEntity
  8
0
  6
Continuous
 62
     7
370
    15
100
AcDbLine
 10
-4207.0923184311
 20
-15101.4794114733
 30
0.0
 11
-4207.0923184311
 21
-15750.4415262639
 31
0.0
  0
LINE
  5
51A
330
1F
100
AcDbEntity
  8
0
  6
Continuous
 62
     7
370
    15
100
AcDbLine
 10
-4398.0806868234
 20
-11956.4462999806
 30
0.0
 11
-4398.0806868234
 21
-15750.4415262639
 31
0.0
  0
LINE
  5
51B
330
1F
100
AcDbEntity
  8
0
  6
Continuous
 62
     7
370
    15
100
AcDbLine
 10
-1118.398982059
 20
-15101.4794114733
 30
0.0
 11
-1118.398982059
 21
-16931.0088576106
 31
0.0
  0
LINE
  5
51C
330
1F
100
AcDbEntity
  8
0
  6
Continuous
 62
     7
370
    15
100
AcDbLine
 10
-1118.398982059
 20
-16931.0088576106
 30
0.0
 11
2631.5032045457
 21
-16931.0088576106
 31
0.0
  0
LINE
  5
51D
330
1F
100
AcDbEntity
  8
0
  6
Continuous
 62
     7
370
    15
100
AcDbLine
 10
12734.6496947219
 20
-8171.1222838703
 30
0.0
 11
12734.6496947219
 21
-8122.5
 31
0.0
  0
LINE
  5
51E
330
1F
100
AcDbEntity
  8
0
  6
Continuous
 62
     7
370
    15
100
AcDbLine
 10
-4398.0806868234
 20
-11956.4462999806
 30
0.0
 11
-4723.9871362988
 21
-11956.4462999806
 31
0.0
  0
LINE
  5
51F
330
1F
100
AcDbEntity
  8
0
  6
Continuous
 62
     7
370
    15
100
AcDbLine
 10
5712.774472224
 20
-17132.5797528864
 30
0.0
 11
8578.7688897695
 21
-17132.5797528864
 31
0.0
  0
LINE
  5
520
330
1F
100
AcDbEntity
  8
0
  6
Continuous
 62
     7
370
    15
100
AcDbLine
 10
7774.112178189
 20
-8171.1222838703
 30
0.0
 11
7774.112178189
 21
-11665.1895930451
 31
0.0
  0
LINE
  5
521
330
1F
100
AcDbEntity
  8
0
  6
Continuous
 62
     7
370
    15
100
AcDbLine
 10
-6431.5708064801
 20
-17132.5797528864
 30
0.0
 11
-6431.5708064801
 21
-17658.4952587455
 31
0.0
  0
LINE
  5
522
330
1F
100
AcDbEntity
  8
0
  6
Continuous
 62
     7
370
    15
100
AcDbLine
 10
-4398.0806868234
 20
-15750.4415262639
 30
0.0
 11
-4207.0923184311
 21
-15750.4415262639
 31
0.0
  0
LINE
  5
523
330
1F
100
AcDbEntity
  8
0
  6
Continuous
 62
     7
370
    15
100
AcDbLine
 10
18838.7914069793
 20
-8122.5
 30
0.0
 11
18838.7914069793
 21
-9152.3344499526
 31
0.0
  0
LINE
  5
524
330
1F
100
AcDbEntity
  8
0
  6
Continuous
 62
     7
370
    15
100
AcDbLine
 10
18651.4239569489
 20
-9152.3344499526
 30
0.0
 11
18838.7914069793
 21
-9152.3344499526
 31
0.0
  0
LINE
  5
525
330
1F
100
AcDbEntity
  8
0
  6
Continuous
 62
     7
370
    15
100
AcDbLine
 10
18651.4239569489
 20
-8122.5
 30
0.0
 11
18651.4239569489
 21
-9152.3344499526
 31
0.0
  0
LINE
  5
526
330
1F
100
AcDbEntity
  8
0
  6
Continuous
 62
     7
370
    15
100
AcDbLine
 10
18838.7914069793
 20
-10988.8798241294
 30
0.0
 11
18838.7914069793
 21
-12686.327684489
 31
0.0
  0
LINE
  5
527
330
1F
100
AcDbEntity
  8
0
  6
Continuous
 62
     7
370
    15
100
AcDbLine
 10
28743.1464277557
 20
-12686.327684489
 30
0.0
 11
28743.1464277557
 21
-8122.5
 31
0.0
  0
LINE
  5
528
330
1F
100
AcDbEntity
  8
0
  6
Continuous
 62
     7
370
    15
100
AcDbLine
 10
18651.4239569489
 20
-10818.0014263335
 30
0.0
 11
19417.8793106209
 21
-10818.0014263335
 31
0.0
  0
LINE
  5
529
330
1F
100
AcDbEntity
  8
0
  6
Continuous
 62
     7
370
    15
100
AcDbLine
 10
19417.8793106209
 20
-10818.0014263335
 30
0.0
 11
19417.8793106209
 21
-10988.8798241294
 31
0.0
  0
LINE
  5
52A
330
1F
100
AcDbEntity
  8
0
  6
Continuous
 62
     7
370
    15
100
AcDbLine
 10
18838.7914069793
 20
-10988.8798241294
 30
0.0
 11
19417.8793106209
 21
-10988.8798241294
 31
0.0
  0
LINE
  5
52B
330
1F
100
AcDbEntity
  8
0
  6
Continuous
 62
     7
370
    15
100
AcDbLine
 10
20205.8185893464
 20
-10818.0014263335
 30
0.0
 11
20205.8185893464
 21
-12686.327684489
 31
0.0
  0
LINE
  5
52C
330
1F
100
AcDbEntity
  8
0
  6
Continuous
 62
     7
370
    15
100
AcDbLine
 10
20205.8185893464
 20
-10818.0014263335
 30
0.0
 11
20405.1767201083
 21
-10818.0014263335
 31
0.0
  0
LINE
  5
52D
330
1F
100
AcDbEntity
  8
0
  6
Continuous
 62
     7
370
    15
100
AcDbLine
 10
29181.3375429733
 20
-12860.4867777721
 30
0.0
 11
29181.3375429733
 21
-6084.715777552
 31
0.0
  0
LINE
  5
52E
330
1F
100
AcDbEntity
  8
0
  6
Continuous
 62
     7
370
    15
100
AcDbLine
 10
29181.3375429733
 20
-12860.4867777721
 30
0.0
 11
18651.4239569489
 21
-12860.4867777721
 31
0.0
  0
LINE
  5
52F
330
1F
100
AcDbEntity
  8
0
  6
Continuous
 62
     7
370
    15
100
AcDbLine
 10
20205.8185893464
 20
-12686.327684489
 30
0.0
 11
18838.7914069793
 21
-12686.327684489
 31
0.0
  0
LINE
  5
530
330
1F
100
AcDbEntity
  8
0
  6
Continuous
 62
     7
370
    15
100
AcDbLine
 10
20405.1767201083
 20
-10818.0014263335
 30
0.0
 11
20405.1767201083
 21
-12686.327684489
 31
0.0
  0
LINE
  5
531
330
1F
100
AcDbEntity
  8
0
  6
Continuous
 62
     7
370
    15
100
AcDbLine
 10
18651.4239569489
 20
-10818.0014263335
 30
0.0
 11
18651.4239569489
 21
-12860.4867777721
 31
0.0
  0
LINE
  5
532
330
1F
100
AcDbEntity
  8
0
  6
Continuous
 62
     7
370
    15
100
AcDbLine
 10
28743.1464277557
 20
-12686.327684489
 30
0.0
 11
20405.1767201083
 21
-12686.327684489
 31
0.0
  0
LINE
  5
533
330
1F
100
AcDbEntity
  8
0
  6
Continuous
 62
     7
370
    15
100
AcDbLine
 10
-4441.4761242633
 20
-9800.69369302
 30
0.0
 11
-7690.9071490951
 21
-6551.2626681882
 31
0.0
  0
LINE
  5
534
330
1F
100
AcDbEntity
  8
0
  6
Continuous
 62
     7
370
    15
100
AcDbLine
 10
-4441.4761242633
 20
-11665.1895930451
 30
0.0
 11
-4441.4761242633
 21
-9800.69369302
 31
0.0
  0
LINE
  5
535
330
1F
100
AcDbEntity
  8
0
  6
Continuous
 62
     7
370
    15
100
AcDbLine
 10
-4591.4761242633
 20
-9862.825727376
 30
0.0
 11
-4591.4761242633
 21
-11665.1895930451
 31
0.0
  0
LINE
  5
536
330
1F
100
AcDbEntity
  8
0
  6
Continuous
 62
     7
370
    15
100
AcDbLine
 10
-7017.8236836058
 20
-7436.4781680335
 30
0.0
 11
-4591.4761242633
 21
-9862.825727376
 31
0.0
  0
LINE
  5
537
330
1F
100
AcDbEntity
  8
0
  6
Continuous
 62
     7
370
    15
100
AcDbLine
 10
-30083.3457319605
 20
-8122.5
 30
0.0
 11
-6119.6698172833
 21
-8122.5
 31
0.0
  0
LINE
  5
538
330
1F
100
AcDbEntity
  8
0
  6
Continuous
 62
     7
370
    15
100
AcDbLine
 10
-28707.8870476215
 20
-20253.8502734083
 30
0.0
 11
-28707.8870476215
 21
-20796.0797337518
 31
0.0
  0
LINE
  5
539
330
1F
100
AcDbEntity
  8
0
  6
Continuous
 62
     7
370
    15
100
AcDbLine
 10
-27877.8901173836
 20
-23229.490754813
 30
0.0
 11
-27714.5716679292
 21
-23018.9426693709
 31
0.0
  0
LINE
  5
53A
330
1F
100
AcDbEntity
  8
0
  6
Continuous
 62
     7
370
    15
100
AcDbLine
 10
-28322.2933804499
 20
-20253.8502734083
 30
0.0
 11
-28322.2933804499
 21
-20796.0797337518
 31
0.0
  0
LINE
  5
53B
330
1F
100
AcDbEntity
  8
0
  6
Continuous
 62
     7
370
    15
100
AcDbLine
 10
711.9968393157
 20
-9862.825727376
 30
0.0
 11
2452.3225666918
 21
-8122.5
 31
0.0
  0
LINE
  5
53C
330
1F
100
AcDbEntity
  8
0
  6
Continuous
 62
     7
370
    15
100
AcDbLine
 10
561.9968393157
 20
-11665.1895930451
 30
0.0
 11
561.9968393157
 21
-9800.69369302
 31
0.0
  0
LINE
  5
53D
330
1F
100
AcDbEntity
  8
0
  6
Continuous
 62
     7
370
    15
100
AcDbLine
 10
4857.7121544826
 20
-5504.9783778532
 30
0.0
 11
561.9968393157
 21
-9800.69369302
 31
0.0
  0
LINE
  5
53E
330
1F
100
AcDbEntity
  8
0
  6
Continuous
 62
     7
370
    15
100
AcDbLine
 10
711.9968393157
 20
-11665.1895930451
 30
0.0
 11
711.9968393157
 21
-9862.825727376
 31
0.0
  0
LINE
  5
53F
330
1F
100
AcDbEntity
  8
0
  6
Continuous
 62
     7
370
    15
100
AcDbLine
 10
2240.1905323358
 20
-8122.5
 30
0.0
 11
29181.3375429733
 21
-8122.5
 31
0.0
  0
LINE
  5
540
330
1F
100
AcDbEntity
  8
0
  6
Continuous
 62
     7
370
    15
100
AcDbLine
 10
19998.7592831123
 20
-12860.4867777721
 30
0.0
 11
19998.7592831123
 21
-14462.7127320334
 31
0.0
  0
LINE
  5
541
330
1F
100
AcDbEntity
  8
0
  6
Continuous
 62
     7
370
    15
100
AcDbLine
 10
29181.3375429733
 20
-14144.6451909179
 30
0.0
 11
19998.7592831123
 21
-14144.6451909179
 31
0.0
  0
LINE
  5
542
330
1F
100
AcDbEntity
  8
0
  6
Continuous
 62
     7
370
    15
100
AcDbLine
 10
-26570.3614002894
 20
-23632.1976484226
 30
0.0
 11
-26239.4181093319
 21
-23151.3729870461
 31
0.0
  0
LINE
  5
543
330
1F
100
AcDbEntity
  8
0
  6
Continuous
 62
     7
370
    15
100
AcDbLine
 10
-24476.5607231555
 20
-22722.9308517581
 30
0.0
 11
-25096.2515349766
 21
-22722.9308517581
 31
0.0
  0
LINE
  5
544
330
1F
100
AcDbEntity
  8
0
  6
Continuous
 62
     7
370
    15
100
AcDbLine
 10
-29708.9531978395
 20
-17119.0486715215
 30
0.0
 11
-22474.2162381798
 21
-17119.0486715215
 31
0.0
  0
LINE
  5
545
330
1F
100
AcDbEntity
  8
0
  6
Continuous
 62
     7
370
    15
100
AcDbLine
 10
-6396.4168515834
 20
-27122.2917884801
 30
0.0
 11
-733.4769686554
 21
-27122.2917884801
 31
0.0
  0
LINE
  5
546
330
1F
100
AcDbEntity
  8
0
  6
Continuous
 62
     7
370
    15
100
AcDbLine
 10
-6486.4168515834
 20
-25760.6210097684
 30
0.0
 11
-6486.4168515834
 21
-27212.2917884801
 31
0.0
  0
LINE
  5
547
330
1F
100
AcDbEntity
  8
0
  6
Continuous
 62
     7
370
    15
100
AcDbLine
 10
-6486.4168515834
 20
-27212.2917884801
 30
0.0
 11
5623.876931838
 21
-27212.2917884801
 31
0.0
  0
LINE
  5
548
330
1F
100
AcDbEntity
  8
0
  6
Continuous
 62
     7
370
    15
100
AcDbLine
 10
-6396.4168515834
 20
-25760.6210097684
 30
0.0
 11
-6396.4168515834
 21
-27122.2917884801
 31
0.0
  0
LINE
  5
549
330
1F
100
AcDbEntity
  8
0
  6
Continuous
 62
     7
370
    15
100
AcDbLine
 10
-6486.4168515834
 20
-25760.6210097684
 30
0.0
 11
-6396.4168515834
 21
-25760.6210097684
 31
0.0
  0
LINE
  5
54A
330
1F
100
AcDbEntity
  8
0
  6
Continuous
 62
     7
370
    15
100
AcDbLine
 10
-470.5230313448
 20
-27122.2917884801
 30
0.0
 11
5533.876931838
 21
-27122.2917884801
 31
0.0
  0
LINE
  5
54B
330
1F
100
AcDbEntity
  8
0
  6
Continuous
 62
     7
370
    15
100
AcDbLine
 10
5623.876931838
 20
-24032.2917884801
 30
0.0
 11
5533.876931838
 21
-24032.2917884801
 31
0.0
  0
LINE
  5
54C
330
1F
100
AcDbEntity
  8
0
  6
Continuous
 62
     7
370
    15
100
AcDbLine
 10
5533.876931838
 20
-27122.2917884801
 30
0.0
 11
5533.876931838
 21
-24032.2917884801
 31
0.0
  0
LINE
  5
54D
330
1F
100
AcDbEntity
  8
0
  6
Continuous
 62
     7
370
    15
100
AcDbLine
 10
5623.876931838
 20
-27212.2917884801
 30
0.0
 11
5623.876931838
 21
-24032.2917884801
 31
0.0
  0
LINE
  5
54E
330
1F
100
AcDbEntity
  8
0
  6
Continuous
 62
     7
370
    15
100
AcDbLine
 10
23289.5106493756
 20
-23872.2917884801
 30
0.0
 11
23289.5106493756
 21
-22479.3711673889
 31
0.0
  0
LINE
  5
54F
330
1F
100
AcDbEntity
  8
0
  6
Continuous
 62
     7
370
    15
100
AcDbLine
 10
27864.0647282594
 20
-22479.3711673889
 30
0.0
 11
23289.5106493756
 21
-22479.3711673889
 31
0.0
  0
LINE
  5
550
330
1F
100
AcDbEntity
  8
0
  6
Continuous
 62
     7
370
    15
100
AcDbLine
 10
27864.0647282594
 20
-22479.3711673889
 30
0.0
 11
27864.0647282594
 21
-19688.5864023921
 31
0.0
  0
LINE
  5
551
330
1F
100
AcDbEntity
  8
0
  6
Continuous
 62
     7
370
    15
100
AcDbLine
 10
28014.0647282594
 20
-19688.5864023921
 30
0.0
 11
28014.0647282594
 21
-22629.3711673889
 31
0.0
  0
LINE
  5
552
330
1F
100
AcDbEntity
  8
0
  6
Continuous
 62
     7
370
    15
100
AcDbLine
 10
23439.5106493755
 20
-24022.2917884801
 30
0.0
 11
23439.5106493755
 21
-22629.3711673889
 31
0.0
  0
LINE
  5
553
330
1F
100
AcDbEntity
  8
0
  6
Continuous
 62
     7
370
    15
100
AcDbLine
 10
19126.3585200225
 20
-24022.2917884801
 30
0.0
 11
23439.5106493755
 21
-24022.2917884801
 31
0.0
  0
LINE
  5
554
330
1F
100
AcDbEntity
  8
0
  6
Continuous
 62
     7
370
    15
100
AcDbLine
 10
13689.3038043347
 20
-24241.1117099914
 30
0.0
 11
19126.3585200225
 21
-24241.1117099914
 31
0.0
  0
LINE
  5
555
330
1F
100
AcDbEntity
  8
0
  6
Continuous
 62
     7
370
    15
100
AcDbLine
 10
13689.3038043347
 20
-24022.2917884801
 30
0.0
 11
13689.3038043347
 21
-24241.1117099914
 31
0.0
  0
LINE
  5
556
330
1F
100
AcDbEntity
  8
0
  6
Continuous
 62
     7
370
    15
100
AcDbLine
 10
23439.5106493755
 20
-22629.3711673889
 30
0.0
 11
28014.0647282594
 21
-22629.3711673889
 31
0.0
  0
LINE
  5
557
330
1F
100
AcDbEntity
  8
0
  6
Continuous
 62
     7
370
    15
100
AcDbLine
 10
19126.3585200225
 20
-24241.1117099914
 30
0.0
 11
19126.3585200225
 21
-24022.2917884801
 31
0.0
  0
LINE
  5
558
330
1F
100
AcDbEntity
  8
0
  6
Continuous
 62
     7
370
    15
100
AcDbLine
 10
15147.1643529694
 20
-23872.2917884801
 30
0.0
 11
23289.5106493756
 21
-23872.2917884801
 31
0.0
  0
LINE
  5
559
330
1F
100
AcDbEntity
  8
0
  6
Continuous
 62
     7
370
    15
100
AcDbLine
 10
-36302.0000000001
 20
-51449.1117099914
 30
0.0
 11
-63731.7755327439
 21
-51449.1117099914
 31
0.0
  0
LINE
  5
55A
330
1F
100
AcDbEntity
  8
0
  6
Continuous
 62
     7
370
    15
100
AcDbLine
 10
-63731.7755327439
 20
-51449.1117099914
 30
0.0
 11
-63731.7755327439
 21
-56143.1117099915
 31
0.0
  0
LINE
  5
55B
330
1F
100
AcDbEntity
  8
0
  6
Continuous
 62
     7
370
    15
100
AcDbLine
 10
-63731.7755327439
 20
-56143.1117099915
 30
0.0
 11
-73969.4340416201
 21
-56143.1117099915
 31
0.0
  0
LINE
  5
55C
330
1F
100
AcDbEntity
  8
0
  6
Continuous
 62
     7
370
    15
100
AcDbLine
 10
-73969.4340416201
 20
-8122.5
 30
0.0
 11
-73969.4340416201
 21
-56143.1117099915
 31
0.0
  0
LINE
  5
55D
330
1F
100
AcDbEntity
  8
0
  6
Continuous
 62
     7
370
    15
100
AcDbLine
 10
-73969.4340416201
 20
-8122.5
 30
0.0
 11
-48633.0000000001
 21
-8122.5
 31
0.0
  0
LINE
  5
55E
330
1F
100
AcDbEntity
  8
0
  6
Continuous
 62
     7
370
    15
100
AcDbLine
 10
-48633.0000000001
 20
-7398.1117099914
 30
0.0
 11
-48633.0000000001
 21
-20550.1117099914
 31
0.0
  0
LINE
  5
55F
330
1F
100
AcDbEntity
  8
0
  6
Continuous
 62
     7
370
    15
100
AcDbLine
 10
-36302.0000000001
 20
-20550.1117099914
 30
0.0
 11
-48633.0000000001
 21
-20550.1117099914
 31
0.0
  0
LINE
  5
560
330
1F
100
AcDbEntity
  8
0
  6
Continuous
 62
     7
370
    15
100
AcDbLine
 10
-36302.0000000001
 20
-20550.1117099914
 30
0.0
 11
-36302.0000000001
 21
-31127.9494664509
 31
0.0
  0
LINE
  5
561
330
1F
100
AcDbEntity
  8
0
  6
Continuous
 62
     7
370
    15
100
AcDbLine
 10
-36302.0000000001
 20
-31127.9494664509
 30
0.0
 11
-30231.5985250125
 21
-31127.9494664509
 31
0.0
  0
LINE
  5
562
330
1F
100
AcDbEntity
  8
0
  6
Continuous
 62
     7
370
    15
100
AcDbLine
 10
-30231.5985250125
 20
-31127.9494664509
 30
0.0
 11
-30231.5985250125
 21
-30331.8088242082
 31
0.0
  0
LINE
  5
563
330
1F
100
AcDbEntity
  8
0
  6
Continuous
 62
     7
370
    15
100
AcDbLine
 10
-22557.275970418
 20
-16773.5599401151
 30
0.0
 11
-22557.275970418
 21
-15539.5595785548
 31
0.0
  0
LINE
  5
564
330
1F
100
AcDbEntity
  8
0
  6
Continuous
 62
     7
370
    15
100
AcDbLine
 10
5633.876931838
 20
-27222.2917884801
 30
0.0
 11
5633.876931838
 21
-24022.2917884801
 31
0.0
  0
LINE
  5
565
330
1F
100
AcDbEntity
  8
0
  6
Continuous
 62
     7
370
    15
100
AcDbLine
 10
-6496.4168515834
 20
-27222.2917884801
 30
0.0
 11
5633.876931838
 21
-27222.2917884801
 31
0.0
  0
LINE
  5
566
330
1F
100
AcDbEntity
  8
0
  6
Continuous
 62
     7
370
    15
100
AcDbLine
 10
-28866.3972717158
 20
-30331.8088242082
 30
0.0
 11
-28707.8870476215
 21
-30331.8088242082
 31
0.0
  0
LINE
  5
567
330
1F
100
AcDbEntity
  8
0
  6
Continuous
 62
     7
370
    15
100
AcDbLine
 10
-28707.8870476215
 20
-33456.6608450106
 30
0.0
 11
-28707.8870476215
 21
-30331.8088242082
 31
0.0
  0
LINE
  5
568
330
1F
100
AcDbEntity
  8
0
  6
Continuous
 62
     7
370
    15
100
AcDbLine
 10
-30231.5985250125
 20
-33456.6608450106
 30
0.0
 11
-28707.8870476215
 21
-33456.6608450106
 31
0.0
  0
LINE
  5
569
330
1F
100
AcDbEntity
  8
0
  6
Continuous
 62
     7
370
    15
100
AcDbLine
 10
-30231.5985250125
 20
-33456.6608450106
 30
0.0
 11
-30231.5985250125
 21
-32461.4850422073
 31
0.0
  0
LINE
  5
56A
330
1F
100
AcDbEntity
  8
0
  6
Continuous
 62
     7
370
    15
100
AcDbLine
 10
-36302.0000000001
 20
-32461.4850422073
 30
0.0
 11
-30231.5985250125
 21
-32461.4850422073
 31
0.0
  0
LINE
  5
56B
330
1F
100
AcDbEntity
  8
0
  6
Continuous
 62
     7
370
    15
100
AcDbLine
 10
-36302.0000000001
 20
-32461.4850422073
 30
0.0
 11
-36302.0000000001
 21
-51449.1117099914
 31
0.0
  0
LINE
  5
56C
330
1F
100
AcDbEntity
  8
0
  6
Continuous
 62
     7
370
    15
100
AcDbLine
 10
-28341.196367709
 20
-22826.8110641605
 30
0.0
 11
-28336.6848581182
 21
-22831.7639653195
 31
0.0
  0
LINE
  5
56D
330
1F
100
AcDbEntity
  8
0
  6
Continuous
 62
     7
370
    15
100
AcDbLine
 10
19136.3585200225
 20
-24251.1117099914
 30
0.0
 11
19136.3585200225
 21
-24022.2917884801
 31
0.0
  0
LINE
  5
56E
330
1F
100
AcDbEntity
  8
0
  6
Continuous
 62
     7
370
    15
100
AcDbLine
 10
13679.3038043347
 20
-24251.1117099914
 30
0.0
 11
19136.3585200225
 21
-24251.1117099914
 31
0.0
  0
LINE
  5
56F
330
1F
100
AcDbEntity
  8
0
  6
Continuous
 62
     7
370
    15
100
AcDbLine
 10
13679.3038043347
 20
-24251.1117099914
 30
0.0
 11
13679.3038043347
 21
-24022.2917884801
 31
0.0
  0
LINE
  5
570
330
1F
100
AcDbEntity
  8
0
  6
Continuous
 62
     7
370
    15
100
AcDbLine
 10
21717.983263464
 20
-4862.0647636516
 30
0.0
 11
21205.9987978141
 21
-4862.0647636516
 31
0.0
  0
LINE
  5
571
330
1F
100
AcDbEntity
  8
0
  6
Continuous
 62
     7
370
    15
100
AcDbLine
 10
21717.983263464
 20
-6084.715777552
 30
0.0
 11
29181.3375429733
 21
-6084.715777552
 31
0.0
  0
LINE
  5
572
330
1F
100
AcDbEntity
  8
0
  6
Continuous
 62
     7
370
    15
100
AcDbLine
 10
29031.3375429733
 20
-6659.342707686
 30
0.0
 11
29031.3375429733
 21
-8122.5
 31
0.0
  0
LINE
  5
573
330
1F
100
AcDbEntity
  8
0
  6
Continuous
 62
     7
370
    15
100
AcDbLine
 10
23216.7760718313
 20
-6375.9489744456
 30
0.0
 11
28453.8071724982
 21
-6375.9489744456
 31
0.0
  0
LINE
  5
574
330
1F
100
AcDbEntity
  8
0
  6
Continuous
 62
     7
370
    15
100
AcDbLine
 10
23216.7760718313
 20
-6659.342707686
 30
0.0
 11
23216.7760718313
 21
-6375.9489744456
 31
0.0
  0
LINE
  5
575
330
1F
100
AcDbEntity
  8
0
  6
Continuous
 62
     7
370
    15
100
AcDbLine
 10
18389.7528048366
 20
-5012.0647636516
 30
0.0
 11
17267.1158660717
 21
-5012.0647636516
 31
0.0
  0
LINE
  5
576
330
1F
100
AcDbEntity
  8
0
  6
Continuous
 62
     7
370
    15
100
AcDbLine
 10
14918.875283918
 20
-7901.8650578644
 30
0.0
 11
14918.875283918
 21
-8122.5
 31
0.0
  0
LINE
  5
577
330
1F
100
AcDbEntity
  8
0
  6
Continuous
 62
     7
370
    15
100
AcDbLine
 10
14918.875283918
 20
-7901.8650578644
 30
0.0
 11
12884.6496947219
 21
-7901.8650578644
 31
0.0
  0
LINE
  5
578
330
1F
100
AcDbEntity
  8
0
  6
Continuous
 62
     7
370
    15
100
AcDbLine
 10
12884.6496947219
 20
-7901.8650578644
 30
0.0
 11
12884.6496947219
 21
-4070.6708639864
 31
0.0
  0
LINE
  5
579
330
1F
100
AcDbEntity
  8
0
  6
Continuous
 62
     7
370
    15
100
AcDbLine
 10
11761.8044065145
 20
-4070.6708639864
 30
0.0
 11
12884.6496947219
 21
-4070.6708639864
 31
0.0
  0
LINE
  5
57A
330
1F
100
AcDbEntity
  8
0
  6
Continuous
 62
     7
370
    15
100
AcDbLine
 10
11761.8044065145
 20
-4070.6708639864
 30
0.0
 11
11761.8044065145
 21
-4144.561549739
 31
0.0
  0
LINE
  5
57B
330
1F
100
AcDbEntity
  8
0
  6
Continuous
 62
     7
370
    15
100
AcDbLine
 10
11761.8044065145
 20
-4144.561549739
 30
0.0
 11
8747.7106471456
 21
-4144.561549739
 31
0.0
  0
LINE
  5
57C
330
1F
100
AcDbEntity
  8
0
  6
Continuous
 62
     7
370
    15
100
AcDbLine
 10
8747.7106471456
 20
-4364.1906719915
 30
0.0
 11
8747.7106471456
 21
-4144.561549739
 31
0.0
  0
LINE
  5
57D
330
1F
100
AcDbEntity
  8
0
  6
Continuous
 62
     7
370
    15
100
AcDbLine
 10
8311.8886050941
 20
-4364.1906719915
 30
0.0
 11
8747.7106471456
 21
-4364.1906719915
 31
0.0
  0
LINE
  5
57E
330
1F
100
AcDbEntity
  8
0
  6
Continuous
 62
     7
370
    15
100
AcDbLine
 10
8311.8886050941
 20
-4364.1906719915
 30
0.0
 11
8311.8886050941
 21
-4124.1127491933
 31
0.0
  0
LINE
  5
57F
330
1F
100
AcDbEntity
  8
0
  6
Continuous
 62
     7
370
    15
100
AcDbLine
 10
8311.8886050941
 20
-4124.1127491933
 30
0.0
 11
8290.7694766272
 21
-4124.1127491933
 31
0.0
  0
LINE
  5
580
330
1F
100
AcDbEntity
  8
0
  6
Continuous
 62
     7
370
    15
100
AcDbLine
 10
8072.4024150862
 20
-4338.9117042001
 30
0.0
 11
8290.7694766272
 21
-4124.1127491933
 31
0.0
  0
LINE
  5
581
330
1F
100
AcDbEntity
  8
0
  6
Continuous
 62
     7
370
    15
100
AcDbLine
 10
8072.4024150862
 20
-4338.9117042001
 30
0.0
 11
8140.8159287729
 21
-4407.3252178868
 31
0.0
  0
LINE
  5
582
330
1F
100
AcDbEntity
  8
0
  6
Continuous
 62
     7
370
    15
100
AcDbLine
 10
8140.8159287729
 20
-4407.3252178868
 30
0.0
 11
5986.3438214697
 21
-6561.79732519
 31
0.0
  0
LINE
  5
583
330
1F
100
AcDbEntity
  8
0
  6
Continuous
 62
     7
370
    15
100
AcDbLine
 10
5986.3438214697
 20
-6561.79732519
 30
0.0
 11
6963.2724132166
 21
-7538.7259169369
 31
0.0
  0
LINE
  5
584
330
1F
100
AcDbEntity
  8
0
  6
Continuous
 62
     7
370
    15
100
AcDbLine
 10
6963.2724132166
 20
-7538.7259169369
 30
0.0
 11
6963.2724132166
 21
-8122.5
 31
0.0
  0
LINE
  5
585
330
1F
100
AcDbEntity
  8
0
  6
Continuous
 62
     7
370
    15
100
AcDbLine
 10
6663.0002116389
 20
-7728.5748501042
 30
0.0
 11
6663.0002116389
 21
-8122.5
 31
0.0
  0
LINE
  5
586
330
1F
100
AcDbEntity
  8
0
  6
Continuous
 62
     7
370
    15
100
AcDbLine
 10
6663.0002116389
 20
-7728.5748501042
 30
0.0
 11
5576.8964167375
 21
-6642.4710552029
 31
0.0
  0
LINE
  5
587
330
1F
100
AcDbEntity
  8
0
  6
Continuous
 62
     7
370
    15
100
AcDbLine
 10
5576.8964167375
 20
-6642.4710552029
 30
0.0
 11
5182.4871166654
 21
-6642.4710552029
 31
0.0
  0
LINE
  5
588
330
1F
100
AcDbEntity
  8
0
  6
Continuous
 62
     7
370
    15
100
AcDbLine
 10
5182.4871166654
 20
-6642.4710552029
 30
0.0
 11
5182.4871166654
 21
-6236.8132968351
 31
0.0
  0
LINE
  5
589
330
1F
100
AcDbEntity
  8
0
  6
Continuous
 62
     7
370
    15
100
AcDbLine
 10
5182.4871166654
 20
-6236.8132968351
 30
0.0
 11
4835.0298825927
 21
-5907.0546777747
 31
0.0
  0
LINE
  5
58A
330
1F
100
AcDbEntity
  8
0
  6
Continuous
 62
     7
370
    15
100
AcDbLine
 10
4835.0298825927
 20
-5907.0546777747
 30
0.0
 11
2639.1382878092
 21
-8122.5
 31
0.0
  0
LINE
  5
58B
330
1F
100
AcDbEntity
  8
0
  6
Continuous
 62
     7
370
    15
100
AcDbLine
 10
5658.5230937222
 20
-6305.7893170927
 30
0.0
 11
4857.7121544826
 21
-5504.9783778532
 31
0.0
  0
LINE
  5
58C
330
1F
100
AcDbEntity
  8
0
  6
Continuous
 62
     7
370
    15
100
AcDbLine
 10
5800.4954707253
 20
-6163.8169400896
 30
0.0
 11
5658.5230937222
 21
-6305.7893170927
 31
0.0
  0
LINE
  5
58D
330
1F
100
AcDbEntity
  8
0
  6
Continuous
 62
     7
370
    15
100
AcDbLine
 10
5986.3438214697
 20
-6349.665290834
 30
0.0
 11
5800.4954707253
 21
-6163.8169400896
 31
0.0
  0
LINE
  5
58E
330
1F
100
AcDbEntity
  8
0
  6
Continuous
 62
     7
370
    15
100
AcDbLine
 10
7928.6838944169
 20
-4407.3252178868
 30
0.0
 11
5986.3438214697
 21
-6349.665290834
 31
0.0
  0
LINE
  5
58F
330
1F
100
AcDbEntity
  8
0
  6
Continuous
 62
     7
370
    15
100
AcDbLine
 10
7742.8355436725
 20
-4221.4768671424
 30
0.0
 11
7928.6838944169
 21
-4407.3252178868
 31
0.0
  0
LINE
  5
590
330
1F
100
AcDbEntity
  8
0
  6
Continuous
 62
     7
370
    15
100
AcDbLine
 10
8228.6374422713
 20
-3735.6749685437
 30
0.0
 11
7742.8355436725
 21
-4221.4768671424
 31
0.0
  0
LINE
  5
591
330
1F
100
AcDbEntity
  8
0
  6
Continuous
 62
     7
370
    15
100
AcDbLine
 10
8764.7254765503
 20
-3735.6749685437
 30
0.0
 11
8228.6374422713
 21
-3735.6749685437
 31
0.0
  0
LINE
  5
592
330
1F
100
AcDbEntity
  8
0
  6
Continuous
 62
     7
370
    15
100
AcDbLine
 10
8764.7254765503
 20
-3994.561549739
 30
0.0
 11
8764.7254765503
 21
-3735.6749685437
 31
0.0
  0
LINE
  5
593
330
1F
100
AcDbEntity
  8
0
  6
Continuous
 62
     7
370
    15
100
AcDbLine
 10
11611.8044065145
 20
-3994.561549739
 30
0.0
 11
8764.7254765503
 21
-3994.561549739
 31
0.0
  0
LINE
  5
594
330
1F
100
AcDbEntity
  8
0
  6
Continuous
 62
     7
370
    15
100
AcDbLine
 10
11611.8044065145
 20
-3735.6749685437
 30
0.0
 11
11611.8044065145
 21
-3994.561549739
 31
0.0
  0
LINE
  5
595
330
1F
100
AcDbEntity
  8
0
  6
Continuous
 62
     7
370
    15
100
AcDbLine
 10
12734.6496947219
 20
-3735.6749685437
 30
0.0
 11
11611.8044065145
 21
-3735.6749685437
 31
0.0
  0
LINE
  5
596
330
1F
100
AcDbEntity
  8
0
  6
Continuous
 62
     7
370
    15
100
AcDbLine
 10
12734.6496947219
 20
-3477.453731273
 30
0.0
 11
12734.6496947219
 21
-3735.6749685437
 31
0.0
  0
LINE
  5
597
330
1F
100
AcDbEntity
  8
0
  6
Continuous
 62
     7
370
    15
100
AcDbLine
 10
17671.051102864
 20
-3477.453731273
 30
0.0
 11
12734.6496947219
 21
-3477.453731273
 31
0.0
  0
LINE
  5
598
330
1F
100
AcDbEntity
  8
0
  6
Continuous
 62
     7
370
    15
100
AcDbLine
 10
17671.051102864
 20
-4862.0647636516
 30
0.0
 11
17671.051102864
 21
-3477.453731273
 31
0.0
  0
LINE
  5
599
330
1F
100
AcDbEntity
  8
0
  6
Continuous
 62
     7
370
    15
100
AcDbLine
 10
18539.7528048366
 20
-4862.0647636516
 30
0.0
 11
17671.051102864
 21
-4862.0647636516
 31
0.0
  0
LINE
  5
59A
330
1F
100
AcDbEntity
  8
0
  6
Continuous
 62
     7
370
    15
100
AcDbLine
 10
18539.7528048366
 20
-5102.6283118901
 30
0.0
 11
18539.7528048366
 21
-4862.0647636516
 31
0.0
  0
LINE
  5
59B
330
1F
100
AcDbEntity
  8
0
  6
Continuous
 62
     7
370
    15
100
AcDbLine
 10
21205.9987978141
 20
-5102.6283118901
 30
0.0
 11
18539.7528048366
 21
-5102.6283118901
 31
0.0
  0
LINE
  5
59C
330
1F
100
AcDbEntity
  8
0
  6
Continuous
 62
     7
370
    15
100
AcDbLine
 10
21205.9987978141
 20
-4862.0647636516
 30
0.0
 11
21205.9987978141
 21
-5102.6283118901
 31
0.0
  0
LINE
  5
59D
330
1F
100
AcDbEntity
  8
0
  6
Continuous
 62
     7
370
    15
100
AcDbLine
 10
15170.1840702769
 20
-7638.4358530667
 30
0.0
 11
15170.1840702769
 21
-8122.5
 31
0.0
  0
LINE
  5
59E
330
1F
100
AcDbEntity
  8
0
  6
Continuous
 62
     7
370
    15
100
AcDbLine
 10
13149.2200952454
 20
-7638.4358530667
 30
0.0
 11
15170.1840702769
 21
-7638.4358530667
 31
0.0
  0
LINE
  5
59F
330
1F
100
AcDbEntity
  8
0
  6
Continuous
 62
     7
370
    15
100
AcDbLine
 10
13149.2200952454
 20
-3805.6231918625
 30
0.0
 11
17267.1158660717
 21
-3805.6231918625
 31
0.0
  0
LINE
  5
5A0
330
1F
100
AcDbEntity
  8
0
  6
Continuous
 62
     7
370
    15
100
AcDbLine
 10
13149.2200952454
 20
-3805.6231918625
 30
0.0
 11
13149.2200952454
 21
-7638.4358530667
 31
0.0
  0
LINE
  5
5A1
330
1F
100
AcDbEntity
  8
0
  6
Continuous
 62
     7
370
    15
100
AcDbLine
 10
17267.1158660717
 20
-3805.6231918625
 30
0.0
 11
17267.1158660717
 21
-3987.7900201871
 31
0.0
  0
LINE
  5
5A2
330
1F
100
AcDbEntity
  8
0
  6
Continuous
 62
     7
370
    15
100
AcDbLine
 10
17017.3012915247
 20
-3987.7900201871
 30
0.0
 11
17267.1158660717
 21
-3987.7900201871
 31
0.0
  0
LINE
  5
5A3
330
1F
100
AcDbEntity
  8
0
  6
Continuous
 62
     7
370
    15
100
AcDbLine
 10
17017.3012915247
 20
-3987.7900201871
 30
0.0
 11
17017.3012915247
 21
-4319.7592474623
 31
0.0
  0
LINE
  5
5A4
330
1F
100
AcDbEntity
  8
0
  6
Continuous
 62
     7
370
    15
100
AcDbLine
 10
17017.3012915247
 20
-4319.7592474623
 30
0.0
 11
17267.1158660717
 21
-4319.7592474623
 31
0.0
  0
LINE
  5
5A5
330
1F
100
AcDbEntity
  8
0
  6
Continuous
 62
     7
370
    15
100
AcDbLine
 10
17267.1158660717
 20
-4319.7592474623
 30
0.0
 11
17267.1158660717
 21
-5012.0647636516
 31
0.0
  0
LINE
  5
5A6
330
1F
100
AcDbEntity
  8
0
  6
Continuous
 62
     7
370
    15
100
AcDbLine
 10
18389.7528048366
 20
-5252.6283118901
 30
0.0
 11
18389.7528048366
 21
-5012.0647636516
 31
0.0
  0
LINE
  5
5A7
330
1F
100
AcDbEntity
  8
0
  6
Continuous
 62
     7
370
    15
100
AcDbLine
 10
21355.9987978141
 20
-5252.6283118901
 30
0.0
 11
18389.7528048366
 21
-5252.6283118901
 31
0.0
  0
LINE
  5
5A8
330
1F
100
AcDbEntity
  8
0
  6
Continuous
 62
     7
370
    15
100
AcDbLine
 10
21355.9987978141
 20
-5252.6283118901
 30
0.0
 11
21355.9987978141
 21
-6349.2104947793
 31
0.0
  0
LINE
  5
5A9
330
1F
100
AcDbEntity
  8
0
  6
Continuous
 62
     7
370
    15
100
AcDbLine
 10
28453.8071724982
 20
-6659.342707686
 30
0.0
 11
28453.8071724982
 21
-6375.9489744456
 31
0.0
  0
LINE
  5
5AA
330
1F
100
AcDbEntity
  8
0
  6
Continuous
 62
     7
370
    15
100
AcDbLine
 10
28453.8071724982
 20
-6659.342707686
 30
0.0
 11
29031.3375429733
 21
-6659.342707686
 31
0.0
  0
LINE
  5
5AB
330
1F
100
AcDbEntity
  8
0
  6
Continuous
 62
     7
370
    15
100
AcDbLine
 10
21355.9987978141
 20
-6349.2104947793
 30
0.0
 11
22802.4582031645
 21
-6349.2104947793
 31
0.0
  0
LINE
  5
5AC
330
1F
100
AcDbEntity
  8
0
  6
Continuous
 62
     7
370
    15
100
AcDbLine
 10
22802.4582031645
 20
-6659.342707686
 30
0.0
 11
22802.4582031645
 21
-6349.2104947793
 31
0.0
  0
LINE
  5
5AD
330
1F
100
AcDbEntity
  8
0
  6
Continuous
 62
     7
370
    15
100
AcDbLine
 10
22802.4582031645
 20
-6659.342707686
 30
0.0
 11
23216.7760718313
 21
-6659.342707686
 31
0.0
  0
LINE
  5
5AE
330
1F
100
AcDbEntity
  8
0
  6
Continuous
 62
     7
370
    15
100
AcDbLine
 10
21717.983263464
 20
-6084.715777552
 30
0.0
 11
21717.983263464
 21
-4862.0647636516
 31
0.0
  0
LINE
  5
5AF
330
1F
100
AcDbEntity
  8
0
  6
Continuous
 62
     7
370
    15
100
AcDbLine
 10
-59747.8469210091
 20
-7548.1117099914
 30
0.0
 11
-59747.8469210091
 21
-8122.5
 31
0.0
  0
LINE
  5
5B0
330
1F
100
AcDbEntity
  8
0
  6
Continuous
 62
     7
370
    15
100
AcDbLine
 10
-59897.8469210091
 20
-7398.1117099914
 30
0.0
 11
-59897.8469210091
 21
-8122.5
 31
0.0
  0
LINE
  5
5B1
330
1F
100
AcDbEntity
  8
0
  6
Continuous
 62
     7
370
    15
100
AcDbLine
 10
-36312.0000000001
 20
-7398.1117099914
 30
0.0
 11
-59897.8469210091
 21
-7398.1117099914
 31
0.0
  0
LINE
  5
5B2
330
1F
100
AcDbEntity
  8
0
  6
Continuous
 62
     7
370
    15
100
AcDbLine
 10
-48783.0000000001
 20
-7548.1117099914
 30
0.0
 11
-59747.8469210091
 21
-7548.1117099914
 31
0.0
  0
LINE
  5
5B3
330
1F
100
AcDbEntity
  8
0
  6
Continuous
 62
     7
370
    15
100
AcDbLine
 10
-48783.0000000001
 20
-7548.1117099914
 30
0.0
 11
-48783.0000000001
 21
-8122.5
 31
0.0
  0
LINE
  5
5B4
330
1F
100
AcDbEntity
  8
0
  6
Continuous
 62
     7
370
    15
100
AcDbLine
 10
-73969.4340416201
 20
-7398.1117099914
 30
0.0
 11
-62828.5860950826
 21
-7398.1117099914
 31
0.0
  0
LINE
  5
5B5
330
1F
100
AcDbEntity
  8
0
  6
Continuous
 62
     7
370
    15
100
AcDbLine
 10
-63067.4302523533
 20
-7548.1117099914
 30
0.0
 11
-73969.4340416201
 21
-7548.1117099914
 31
0.0
  0
LINE
  5
5B6
330
1F
100
AcDbEntity
  8
0
  6
Continuous
 62
     7
370
    15
100
AcDbLine
 10
-63067.4302523533
 20
-7548.1117099914
 30
0.0
 11
-63067.4302523533
 21
-8122.5
 31
0.0
  0
LINE
  5
5B7
330
1F
100
AcDbEntity
  8
0
  6
Continuous
 62
     7
370
    15
100
AcDbLine
 10
-73969.4340416201
 20
-7548.1117099914
 30
0.0
 11
-73969.4340416201
 21
-7398.1117099914
 31
0.0
  0
LINE
  5
5B8
330
1F
100
AcDbEntity
  8
0
  6
Continuous
 62
     7
370
    15
100
AcDbLine
 10
-62828.5860950826
 20
-7398.1117099914
 30
0.0
 11
-62828.5860950826
 21
-8122.5
 31
0.0
  0
LINE
  5
5B9
330
1F
100
AcDbEntity
  8
0
  6
Continuous
 62
     7
370
    15
100
AcDbLine
 10
-23710.9907118523
 20
-6522.2086364991
 30
0.0
 11
-23710.9907118523
 21
-7417.3396987198
 31
0.0
  0
LINE
  5
5BA
330
1F
100
AcDbEntity
  8
0
  6
Continuous
 62
     7
370
    15
100
AcDbLine
 10
-23710.9907118523
 20
-7417.3396987198
 30
0.0
 11
-24128.6996237991
 21
-7417.3396987198
 31
0.0
  0
LINE
  5
5BB
330
1F
100
AcDbEntity
  8
0
  6
Continuous
 62
     7
370
    15
100
AcDbLine
 10
-24128.6996237991
 20
-7011.9428265485
 30
0.0
 11
-24128.6996237991
 21
-7417.3396987198
 31
0.0
  0
LINE
  5
5BC
330
1F
100
AcDbEntity
  8
0
  6
Continuous
 62
     7
370
    15
100
AcDbLine
 10
-24128.6996237991
 20
-7011.9428265485
 30
0.0
 11
-27105.3172735628
 21
-7011.9428265485
 31
0.0
  0
LINE
  5
5BD
330
1F
100
AcDbEntity
  8
0
  6
Continuous
 62
     7
370
    15
100
AcDbLine
 10
-27105.3172735628
 20
-7011.9428265485
 30
0.0
 11
-27105.3172735628
 21
-6482.3385646747
 31
0.0
  0
LINE
  5
5BE
330
1F
100
AcDbEntity
  8
0
  6
Continuous
 62
     7
370
    15
100
AcDbLine
 10
-27105.3172735628
 20
-6482.3385646747
 30
0.0
 11
-29933.3457319605
 21
-6482.3385646747
 31
0.0
  0
LINE
  5
5BF
330
1F
100
AcDbEntity
  8
0
  6
Continuous
 62
     7
370
    15
100
AcDbLine
 10
-28443.2342170726
 20
-6332.3385646747
 30
0.0
 11
-30083.3457319605
 21
-6332.3385646747
 31
0.0
  0
LINE
  5
5C0
330
1F
100
AcDbEntity
  8
0
  6
Continuous
 62
     7
370
    15
100
AcDbLine
 10
-26795.0813825911
 20
-6139.6854475584
 30
0.0
 11
-28443.2342170726
 21
-6153.2934886354
 31
0.0
  0
LINE
  5
5C1
330
1F
100
AcDbEntity
  8
0
  6
Continuous
 62
     7
370
    15
100
AcDbLine
 10
-26795.0813825911
 20
-6684.1348548727
 30
0.0
 11
-26795.0813825911
 21
-6139.6854475584
 31
0.0
  0
LINE
  5
5C2
330
1F
100
AcDbEntity
  8
0
  6
Continuous
 62
     7
370
    15
100
AcDbLine
 10
-24123.8279538981
 20
-6684.1348548727
 30
0.0
 11
-26795.0813825911
 21
-6684.1348548727
 31
0.0
  0
LINE
  5
5C3
330
1F
100
AcDbEntity
  8
0
  6
Continuous
 62
     7
370
    15
100
AcDbLine
 10
-24123.8279538981
 20
-6163.8169400896
 30
0.0
 11
-24123.8279538981
 21
-6684.1348548727
 31
0.0
  0
LINE
  5
5C4
330
1F
100
AcDbEntity
  8
0
  6
Continuous
 62
     7
370
    15
100
AcDbLine
 10
-21275.5632190967
 20
-6163.8169400896
 30
0.0
 11
-24123.8279538981
 21
-6163.8169400896
 31
0.0
  0
LINE
  5
5C5
330
1F
100
AcDbEntity
  8
0
  6
Continuous
 62
     7
370
    15
100
AcDbLine
 10
-21275.5632190967
 20
-3213.9203262656
 30
0.0
 11
-21275.5632190967
 21
-6163.8169400896
 31
0.0
  0
LINE
  5
5C6
330
1F
100
AcDbEntity
  8
0
  6
Continuous
 62
     7
370
    15
100
AcDbLine
 10
-14801.725773856
 20
-3213.9203262656
 30
0.0
 11
-21275.5632190967
 21
-3213.9203262656
 31
0.0
  0
LINE
  5
5C7
330
1F
100
AcDbEntity
  8
0
  6
Continuous
 62
     7
370
    15
100
AcDbLine
 10
-9056.2230340037
 20
-3662.107888776
 30
0.0
 11
-14801.725773856
 21
-3662.107888776
 31
0.0
  0
LINE
  5
5C8
330
1F
100
AcDbEntity
  8
0
  6
Continuous
 62
     7
370
    15
100
AcDbLine
 10
-7690.9071490951
 20
-6551.2626681882
 30
0.0
 11
-9056.2230340037
 21
-6551.2626681882
 31
0.0
  0
LINE
  5
5C9
330
1F
100
AcDbEntity
  8
0
  6
Continuous
 62
     7
370
    15
100
AcDbLine
 10
-7017.8236836058
 20
-7436.4781680335
 30
0.0
 11
-7017.8236836058
 21
-7808.2868545938
 31
0.0
  0
LINE
  5
5CA
330
1F
100
AcDbEntity
  8
0
  6
Continuous
 62
     7
370
    15
100
AcDbLine
 10
-7463.8343117793
 20
-7808.2868545938
 30
0.0
 11
-7017.8236836058
 21
-7808.2868545938
 31
0.0
  0
LINE
  5
5CB
330
1F
100
AcDbEntity
  8
0
  6
Continuous
 62
     7
370
    15
100
AcDbLine
 10
-7463.8343117793
 20
-7365.7541750518
 30
0.0
 11
-7463.8343117793
 21
-7808.2868545938
 31
0.0
  0
LINE
  5
5CC
330
1F
100
AcDbEntity
  8
0
  6
Continuous
 62
     7
370
    15
100
AcDbLine
 10
-7463.8343117793
 20
-7365.7541750518
 30
0.0
 11
-7088.5476765875
 21
-7365.7541750518
 31
0.0
  0
LINE
  5
5CD
330
1F
100
AcDbEntity
  8
0
  6
Continuous
 62
     7
370
    15
100
AcDbLine
 10
-7088.5476765875
 20
-7365.7541750518
 30
0.0
 11
-7753.039183451
 21
-6701.2626681882
 31
0.0
  0
LINE
  5
5CE
330
1F
100
AcDbEntity
  8
0
  6
Continuous
 62
     7
370
    15
100
AcDbLine
 10
-7753.039183451
 20
-6701.2626681882
 30
0.0
 11
-7753.039183451
 21
-6898.3306890005
 31
0.0
  0
LINE
  5
5CF
330
1F
100
AcDbEntity
  8
0
  6
Continuous
 62
     7
370
    15
100
AcDbLine
 10
-9119.4520584188
 20
-6898.3306890005
 30
0.0
 11
-7753.039183451
 21
-6898.3306890005
 31
0.0
  0
LINE
  5
5D0
330
1F
100
AcDbEntity
  8
0
  6
Continuous
 62
     7
370
    15
100
AcDbLine
 10
-9119.4520584188
 20
-6898.3306890005
 30
0.0
 11
-9119.4520584188
 21
-7905.0261689474
 31
0.0
  0
LINE
  5
5D1
330
1F
100
AcDbEntity
  8
0
  6
Continuous
 62
     7
370
    15
100
AcDbLine
 10
-11776.2849694926
 20
-7905.0261689474
 30
0.0
 11
-9119.4520584188
 21
-7905.0261689474
 31
0.0
  0
LINE
  5
5D2
330
1F
100
AcDbEntity
  8
0
  6
Continuous
 62
     7
370
    15
100
AcDbLine
 10
-11776.2849694926
 20
-7905.0261689474
 30
0.0
 11
-11776.2849694926
 21
-8122.5
 31
0.0
  0
LINE
  5
5D3
330
1F
100
AcDbEntity
  8
0
  6
Continuous
 62
     7
370
    15
100
AcDbLine
 10
-11992.2346077837
 20
-7905.0261689474
 30
0.0
 11
-11992.2346077837
 21
-8122.5
 31
0.0
  0
LINE
  5
5D4
330
1F
100
AcDbEntity
  8
0
  6
Continuous
 62
     7
370
    15
100
AcDbLine
 10
-14854.9195814083
 20
-7905.0261689474
 30
0.0
 11
-11992.2346077837
 21
-7905.0261689474
 31
0.0
  0
LINE
  5
5D5
330
1F
100
AcDbEntity
  8
0
  6
Continuous
 62
     7
370
    15
100
AcDbLine
 10
-14854.9195814083
 20
-7905.0261689474
 30
0.0
 11
-14854.9195814083
 21
-8122.5
 31
0.0
  0
LINE
  5
5D6
330
1F
100
AcDbEntity
  8
0
  6
Continuous
 62
     7
370
    15
100
AcDbLine
 10
-20797.6235835367
 20
-7119.3170056991
 30
0.0
 11
-16399.6232701728
 21
-7119.3170056991
 31
0.0
  0
LINE
  5
5D7
330
1F
100
AcDbEntity
  8
0
  6
Continuous
 62
     7
370
    15
100
AcDbLine
 10
-20797.6235835367
 20
-7119.3170056991
 30
0.0
 11
-20797.6235835367
 21
-8122.5
 31
0.0
  0
LINE
  5
5D8
330
1F
100
AcDbEntity
  8
0
  6
Continuous
 62
     7
370
    15
100
AcDbLine
 10
-21055.3992068104
 20
-6522.2086364991
 30
0.0
 11
-21055.3992068104
 21
-8122.5
 31
0.0
  0
LINE
  5
5D9
330
1F
100
AcDbEntity
  8
0
  6
Continuous
 62
     7
370
    15
100
AcDbLine
 10
-23710.9907118523
 20
-6522.2086364991
 30
0.0
 11
-21055.3992068104
 21
-6522.2086364991
 31
0.0
  0
LINE
  5
5DA
330
1F
100
AcDbEntity
  8
0
  6
Continuous
 62
     7
370
    15
100
AcDbLine
 10
-16399.6232701728
 20
-7119.3170056991
 30
0.0
 11
-16399.6232701728
 21
-8122.5
 31
0.0
  0
LINE
  5
5DB
330
1F
100
AcDbEntity
  8
0
  6
Continuous
 62
     7
370
    15
100
AcDbLine
 10
-15071.2377949293
 20
-3363.9203262656
 30
0.0
 11
-15071.2377949293
 21
-3812.107888776
 31
0.0
  0
LINE
  5
5DC
330
1F
100
AcDbEntity
  8
0
  6
Continuous
 62
     7
370
    15
100
AcDbLine
 10
-14951.725773856
 20
-3812.107888776
 30
0.0
 11
-15071.2377949293
 21
-3812.107888776
 31
0.0
  0
LINE
  5
5DD
330
1F
100
AcDbEntity
  8
0
  6
Continuous
 62
     7
370
    15
100
AcDbLine
 10
-14951.725773856
 20
-3812.107888776
 30
0.0
 11
-14951.725773856
 21
-3363.9203262656
 31
0.0
  0
LINE
  5
5DE
330
1F
100
AcDbEntity
  8
0
  6
Continuous
 62
     7
370
    15
100
AcDbLine
 10
-14951.725773856
 20
-3363.9203262656
 30
0.0
 11
-15071.2377949293
 21
-3363.9203262656
 31
0.0
  0
LINE
  5
5DF
330
1F
100
AcDbEntity
  8
0
  6
Continuous
 62
     7
370
    15
100
AcDbLine
 10
-28443.2342170726
 20
-6153.2934886354
 30
0.0
 11
-28443.2342170726
 21
-6332.3385646747
 31
0.0
  0
LINE
  5
5E0
330
1F
100
AcDbEntity
  8
0
  6
Continuous
 62
     7
370
    15
100
AcDbLine
 10
-14801.725773856
 20
-3662.107888776
 30
0.0
 11
-14801.725773856
 21
-3213.9203262656
 31
0.0
  0
LINE
  5
5E1
330
1F
100
AcDbEntity
  8
0
  6
Continuous
 62
     7
370
    15
100
AcDbLine
 10
-29933.3457319605
 20
-6482.3385646747
 30
0.0
 11
-29933.3457319605
 21
-8122.5
 31
0.0
  0
LINE
  5
5E2
330
1F
100
AcDbEntity
  8
0
  6
Continuous
 62
     7
370
    15
100
AcDbLine
 10
-9056.2230340037
 20
-6551.2626681882
 30
0.0
 11
-9056.2230340037
 21
-3662.107888776
 31
0.0
  0
LINE
  5
5E3
330
1F
100
AcDbEntity
  8
0
  6
Continuous
 62
     7
370
    15
100
AcDbLine
 10
-26570.3614002815
 20
-15539.5595785548
 30
0.0
 11
-26570.3614002815
 21
-16773.5599401151
 31
0.0
  0
LINE
  5
5E4
330
1F
100
AcDbEntity
  8
0
  6
Continuous
 62
     7
370
    15
100
AcDbLine
 10
-26420.3614002815
 20
-15539.5595785548
 30
0.0
 11
-26420.3614002815
 21
-16748.8705722722
 31
0.0
  0
LINE
  5
5E5
330
1F
100
AcDbEntity
  8
0
  6
Continuous
 62
     7
370
    15
100
AcDbLine
 10
-24995.6385517504
 20
-16748.8705722722
 30
0.0
 11
-24995.6385517504
 21
-16773.5599401151
 31
0.0
  0
LINE
  5
5E6
330
1F
100
AcDbEntity
  8
0
  6
Continuous
 62
     7
370
    15
100
AcDbLine
 10
-26420.3614002815
 20
-16748.8705722722
 30
0.0
 11
-24995.6385517504
 21
-16748.8705722722
 31
0.0
  0
LINE
  5
5E7
330
1F
100
AcDbEntity
  8
0
  6
Continuous
 62
     7
370
    15
100
AcDbLine
 10
23691.0674308736
 20
-12860.4867777721
 30
0.0
 11
23691.0674308736
 21
-14144.6451909179
 31
0.0
  0
LINE
  5
5E8
330
1F
100
AcDbEntity
  8
0
  6
Continuous
 62
     7
370
    15
100
AcDbLine
 10
23841.0674308736
 20
-12860.4867777721
 30
0.0
 11
23841.0674308736
 21
-14144.6451909179
 31
0.0
  0
LINE
  5
5E9
330
1F
100
AcDbEntity
  8
0
  6
Continuous
 62
     7
370
    15
100
AcDbLine
 10
-25066.8457457047
 20
-15539.5595785548
 30
0.0
 11
-25066.8457457047
 21
-16161.8228360545
 31
0.0
  0
LINE
  5
5EA
330
1F
100
AcDbEntity
  8
0
  6
Continuous
 62
     7
370
    15
100
AcDbLine
 10
-25066.8457457047
 20
-16161.8228360545
 30
0.0
 11
-24852.9850271298
 21
-16161.8228360545
 31
0.0
  0
LINE
  5
5EB
330
1F
100
AcDbEntity
  8
0
  6
Continuous
 62
     7
370
    15
100
AcDbLine
 10
-24852.9850271298
 20
-15539.5595785548
 30
0.0
 11
-24852.9850271298
 21
-16161.8228360545
 31
0.0
  0
LINE
  5
5EC
330
1F
100
AcDbEntity
  8
0
  6
Continuous
 62
     7
370
    15
100
AcDbLine
 10
-29372.8792321801
 20
-7730.5274607691
 30
0.0
 11
-29372.8792321801
 21
-8122.5
 31
0.0
  0
LINE
  5
5ED
330
1F
100
AcDbEntity
  8
0
  6
Continuous
 62
     7
370
    15
100
AcDbLine
 10
-29786.2395819938
 20
-7730.5274607691
 30
0.0
 11
-29372.8792321801
 21
-7730.5274607691
 31
0.0
  0
LINE
  5
5EE
330
1F
100
AcDbEntity
  8
0
  6
Continuous
 62
     7
370
    15
100
AcDbLine
 10
-29786.2395819938
 20
-7730.5274607691
 30
0.0
 11
-29786.2395819938
 21
-8122.5
 31
0.0
  0
LINE
  5
5EF
330
1F
100
AcDbEntity
  8
0
  6
Continuous
 62
     7
370
    15
100
AcDbLine
 10
-36312.0000000001
 20
-20550.1117099914
 30
0.0
 11
-36312.0000000001
 21
-7398.1117099914
 31
0.0
  0
LINE
  5
5F0
330
1F
100
AcDbEntity
  8
0
  6
Continuous
 62
     7
370
    15
100
AcDbLine
 10
21030.978372591
 20
-42664.2538737261
 30
0.0
 11
21637.354875863
 21
-42664.2538737261
 31
0.0
  0
LINE
  5
5F1
330
1F
100
AcDbEntity
  8
0
  6
Continuous
 62
     7
370
    15
100
AcDbLine
 10
21030.978372591
 20
-42187.8151925838
 30
0.0
 11
21030.978372591
 21
-42664.2538737261
 31
0.0
  0
LINE
  5
5F2
330
1F
100
AcDbEntity
  8
0
  6
Continuous
 62
     7
370
    15
100
AcDbLine
 10
21637.354875863
 20
-42187.8151925838
 30
0.0
 11
21030.978372591
 21
-42187.8151925838
 31
0.0
  0
LINE
  5
5F3
330
1F
100
AcDbEntity
  8
0
  6
Continuous
 62
     7
370
    15
100
AcDbLine
 10
21637.354875863
 20
-42664.2538737261
 30
0.0
 11
21637.354875863
 21
-42187.8151925838
 31
0.0
  0
LINE
  5
5F4
330
1F
100
AcDbEntity
  8
0
  6
Continuous
 62
     7
370
    15
100
AcDbLine
 10
21030.978372591
 20
-46345.8255007347
 30
0.0
 11
21550.7296611098
 21
-46345.8255007347
 31
0.0
  0
LINE
  5
5F5
330
1F
100
AcDbEntity
  8
0
  6
Continuous
 62
     7
370
    15
100
AcDbLine
 10
21550.7296611098
 20
-46345.8255007347
 30
0.0
 11
21550.7296611098
 21
-45768.3240690471
 31
0.0
  0
LINE
  5
5F6
330
1F
100
AcDbEntity
  8
0
  6
Continuous
 62
     7
370
    15
100
AcDbLine
 10
21030.978372591
 20
-45768.3240690471
 30
0.0
 11
21030.978372591
 21
-46345.8255007347
 31
0.0
  0
LINE
  5
5F7
330
1F
100
AcDbEntity
  8
0
  6
Continuous
 62
     7
370
    15
100
AcDbLine
 10
21550.7296611098
 20
-45768.3240690471
 30
0.0
 11
21030.978372591
 21
-45768.3240690471
 31
0.0
  0
LINE
  5
5F8
330
1F
100
AcDbEntity
  8
0
  6
Continuous
 62
     7
370
    15
100
AcDbLine
 10
21550.7296611098
 20
-44440.0707761655
 30
0.0
 11
20872.1654788769
 21
-44440.0707761655
 31
0.0
  0
LINE
  5
5F9
330
1F
100
AcDbEntity
  8
0
  6
Continuous
 62
     7
370
    15
100
AcDbLine
 10
20872.1654788769
 20
-45046.4472794376
 30
0.0
 11
21550.7296611098
 21
-45046.4472794376
 31
0.0
  0
LINE
  5
5FA
330
1F
100
AcDbEntity
  8
0
  6
Continuous
 62
     7
370
    15
100
AcDbLine
 10
20872.1654788769
 20
-44440.0707761655
 30
0.0
 11
20872.1654788769
 21
-45046.4472794376
 31
0.0
  0
LINE
  5
5FB
330
1F
100
AcDbEntity
  8
0
  6
Continuous
 62
     7
370
    15
100
AcDbLine
 10
21550.7296611098
 20
-45046.4472794376
 30
0.0
 11
21550.7296611098
 21
-44440.0707761655
 31
0.0
  0
LINE
  5
5FC
330
1F
100
AcDbEntity
  8
0
  6
Continuous
 62
     7
370
    15
100
AcDbLine
 10
21637.354875863
 20
-47082.1398261364
 30
0.0
 11
21030.978372591
 21
-47082.1398261364
 31
0.0
  0
LINE
  5
5FD
330
1F
100
AcDbEntity
  8
0
  6
Continuous
 62
     7
370
    15
100
AcDbLine
 10
21637.354875863
 20
-47616.3286504475
 30
0.0
 11
21637.354875863
 21
-47082.1398261364
 31
0.0
  0
LINE
  5
5FE
330
1F
100
AcDbEntity
  8
0
  6
Continuous
 62
     7
370
    15
100
AcDbLine
 10
21030.978372591
 20
-47616.3286504475
 30
0.0
 11
21637.354875863
 21
-47616.3286504475
 31
0.0
  0
LINE
  5
5FF
330
1F
100
AcDbEntity
  8
0
  6
Continuous
 62
     7
370
    15
100
AcDbLine
 10
21030.978372591
 20
-47082.1398261364
 30
0.0
 11
21030.978372591
 21
-47616.3286504475
 31
0.0
  0
LINE
  5
600
330
1F
100
AcDbEntity
  8
0
  6
Continuous
 62
     7
370
    15
100
AcDbLine
 10
21030.978372591
 20
-43819.2567371014
 30
0.0
 11
21637.354875863
 21
-43819.2567371014
 31
0.0
  0
LINE
  5
601
330
1F
100
AcDbEntity
  8
0
  6
Continuous
 62
     7
370
    15
100
AcDbLine
 10
21637.354875863
 20
-43819.2567371014
 30
0.0
 11
21637.354875863
 21
-43184.005162245
 31
0.0
  0
LINE
  5
602
330
1F
100
AcDbEntity
  8
0
  6
Continuous
 62
     7
370
    15
100
AcDbLine
 10
21030.978372591
 20
-43184.005162245
 30
0.0
 11
21030.978372591
 21
-43819.2567371014
 31
0.0
  0
LINE
  5
603
330
1F
100
AcDbEntity
  8
0
  6
Continuous
 62
     7
370
    15
100
AcDbLine
 10
21637.354875863
 20
-43184.005162245
 30
0.0
 11
21030.978372591
 21
-43184.005162245
 31
0.0
  0
LINE
  5
604
330
1F
100
AcDbEntity
  8
0
  6
Continuous
 62
     7
370
    15
100
AcDbLine
 10
17795.1840417334
 20
-41882.2917884801
 30
0.0
 11
21795.1840417334
 21
-41882.2917884801
 31
0.0
  0
LINE
  5
605
330
1F
100
AcDbEntity
  8
0
  6
Continuous
 62
     7
370
    15
100
AcDbLine
 10
21795.1840417334
 20
-41882.2917884801
 30
0.0
 11
21795.1840417334
 21
-47961.1117099914
 31
0.0
  0
LINE
  5
606
330
1F
100
AcDbEntity
  8
0
  6
Continuous
 62
     7
370
    15
100
AcDbLine
 10
21795.1840417334
 20
-47961.1117099914
 30
0.0
 11
17795.1840417334
 21
-47961.1117099914
 31
0.0
  0
LINE
  5
607
330
1F
100
AcDbEntity
  8
0
  6
Continuous
 62
     7
370
    15
100
AcDbLine
 10
17795.1840417334
 20
-47961.1117099914
 30
0.0
 11
17795.1840417334
 21
-41882.2917884801
 31
0.0
  0
LINE
  5
608
330
1F
100
AcDbEntity
  8
0
  6
Continuous
 62
     7
370
    15
100
AcDbLine
 10
23447.9999999999
 20
-49551.1117099914
 30
0.0
 11
23347.9999999999
 21
-49551.1117099914
 31
0.0
  0
LINE
  5
609
330
1F
100
AcDbEntity
  8
0
  6
Continuous
 62
     7
370
    15
100
AcDbLine
 10
23347.9999999999
 20
-49551.1117099914
 30
0.0
 11
23347.9999999999
 21
-40251.1117099914
 31
0.0
  0
LINE
  5
60A
330
1F
100
AcDbEntity
  8
0
  6
Continuous
 62
     7
370
    15
100
AcDbLine
 10
23347.9999999999
 20
-40251.1117099914
 30
0.0
 11
23447.9999999999
 21
-40251.1117099914
 31
0.0
  0
LINE
  5
60B
330
1F
100
AcDbEntity
  8
0
  6
Continuous
 62
     7
370
    15
100
AcDbLine
 10
23447.9999999999
 20
-40251.1117099914
 30
0.0
 11
23447.9999999999
 21
-49551.1117099914
 31
0.0
  0
LINE
  5
60C
330
1F
100
AcDbEntity
  8
0
  6
Continuous
 62
     7
370
    15
100
AcDbLine
 10
-28858.232298437
 20
-29344.0971074018
 30
0.0
 11
-25474.3971504898
 21
-29344.0971074018
 31
0.0
  0
LINE
  5
60D
330
1F
100
AcDbEntity
  8
0
  6
Continuous
 62
     7
370
    15
100
AcDbLine
 10
-25474.3971504898
 20
-29344.0971074018
 30
0.0
 11
-25474.3971504898
 21
-26832.0971074018
 31
0.0
  0
LINE
  5
60E
330
1F
100
AcDbEntity
  8
0
  6
Continuous
 62
     7
370
    15
100
AcDbLine
 10
-25474.3971504898
 20
-26832.0971074018
 30
0.0
 11
-28335.4131347828
 21
-26832.0971074018
 31
0.0
  0
LINE
  5
60F
330
1F
100
AcDbEntity
  8
0
  6
Continuous
 62
     7
370
    15
100
AcDbLine
 10
-29710.7831991814
 20
-26832.0971074018
 30
0.0
 11
-31089.3971504898
 21
-26832.0971074018
 31
0.0
  0
LINE
  5
610
330
1F
100
AcDbEntity
  8
0
  6
Continuous
 62
     7
370
    15
100
AcDbLine
 10
-31089.3971504898
 20
-30832.0971074018
 30
0.0
 11
-31089.3971504898
 21
-26832.0971074018
 31
0.0
  0
LINE
  5
611
330
1F
100
AcDbEntity
  8
0
  6
Continuous
 62
     7
370
    15
100
AcDbLine
 10
-30231.5985250125
 20
-30832.0971074018
 30
0.0
 11
-31089.3971504898
 21
-30832.0971074018
 31
0.0
  0
LINE
  5
612
330
1F
100
AcDbEntity
  8
0
  6
Continuous
 62
     7
370
    15
100
AcDbLine
 10
-28861.7850723658
 20
-29394.0971074018
 30
0.0
 11
-25474.3971504898
 21
-29394.0971074018
 31
0.0
  0
LINE
  5
613
330
1F
100
AcDbEntity
  8
0
  6
Continuous
 62
     7
370
    15
100
AcDbLine
 10
-29245.3971504898
 20
-33456.6608450106
 30
0.0
 11
-29245.3971504898
 21
-34690.0971074018
 31
0.0
  0
LINE
  5
614
330
1F
100
AcDbEntity
  8
0
  6
Continuous
 62
     7
370
    15
100
AcDbLine
 10
-29245.3971504898
 20
-34690.0971074018
 30
0.0
 11
-25474.3971504898
 21
-34690.0971074018
 31
0.0
  0
LINE
  5
615
330
1F
100
AcDbEntity
  8
0
  6
Continuous
 62
     7
370
    15
100
AcDbLine
 10
-25474.3971504898
 20
-29394.0971074018
 30
0.0
 11
-25474.3971504898
 21
-34690.0971074018
 31
0.0
  0
LINE
  5
616
330
1F
100
AcDbEntity
  8
0
  6
Continuous
 62
     7
370
    15
100
AcDbLine
 10
-24644.0000000001
 20
-50861.1117099914
 30
0.0
 11
-28644.0000000001
 21
-50861.1117099914
 31
0.0
  0
LINE
  5
617
330
1F
100
AcDbEntity
  8
0
  6
Continuous
 62
     7
370
    15
100
AcDbLine
 10
-24344.0000000001
 20
-51161.1117099914
 30
0.0
 11
-24527.1668522646
 21
-51161.1117099914
 31
0.0
  0
LINE
  5
618
330
1F
100
AcDbEntity
  8
0
  6
Continuous
 62
     7
370
    15
100
AcDbLine
 10
-24676.8331477355
 20
-51161.1117099914
 30
0.0
 11
-28944.0000000001
 21
-51161.1117099914
 31
0.0
  0
LINE
  5
619
330
1F
100
AcDbEntity
  8
0
  6
Continuous
 62
     7
370
    15
100
AcDbLine
 10
-28644.0000000001
 20
-50861.1117099914
 30
0.0
 11
-28644.0000000001
 21
-45771.1117099914
 31
0.0
  0
LINE
  5
61A
330
1F
100
AcDbEntity
  8
0
  6
Continuous
 62
     7
370
    15
100
AcDbLine
 10
-28944.0000000001
 20
-45471.1117099914
 30
0.0
 11
-24344.0000000001
 21
-45471.1117099914
 31
0.0
  0
LINE
  5
61B
330
1F
100
AcDbEntity
  8
0
  6
Continuous
 62
     7
370
    15
100
AcDbLine
 10
-28944.0000000001
 20
-51161.1117099914
 30
0.0
 11
-28944.0000000001
 21
-45471.1117099914
 31
0.0
  0
LINE
  5
61C
330
1F
100
AcDbEntity
  8
0
  6
Continuous
 62
     7
370
    15
100
AcDbLine
 10
-24344.0000000001
 20
-45471.1117099914
 30
0.0
 11
-24344.0000000001
 21
-51161.1117099914
 31
0.0
  0
LINE
  5
61D
330
1F
100
AcDbEntity
  8
0
  6
Continuous
 62
     7
370
    15
100
AcDbLine
 10
-24644.0000000001
 20
-45771.1117099914
 30
0.0
 11
-24644.0000000001
 21
-50861.1117099914
 31
0.0
  0
LINE
  5
61E
330
1F
100
AcDbEntity
  8
0
  6
Continuous
 62
     7
370
    15
100
AcDbLine
 10
-28644.0000000001
 20
-45771.1117099914
 30
0.0
 11
-24644.0000000001
 21
-45771.1117099914
 31
0.0
  0
ARC
  5
61F
330
1F
100
AcDbEntity
  8
0
  6
Continuous
 62
     7
370
    15
100
AcDbCircle
 10
-602.0000000001
 20
-27031.1117099914
 30
0.0
 40
159.9999999999972
100
AcDbArc
 50
214.7415437882
 51
325.2584562118
  0
ENDSEC
  0
SECTION
  2
OBJECTS
  0
DICTIONARY
  5
C
330
0
100
AcDbDictionary
281
     1
  3
ACAD_GROUP
350
D
  3
ACAD_LAYOUT
350
1A
  3
ACAD_MLINESTYLE
350
17
  3
ACAD_PLOTSETTINGS
350
19
  3
ACAD_PLOTSTYLENAME
350
E
  3
ACAD_SCALELIST
350
47
  0
DICTIONARY
  5
D
102
{ACAD_REACTORS
330
C
102
}
330
C
100
AcDbDictionary
281
     1
  0
DICTIONARY
  5
1A
102
{ACAD_REACTORS
330
C
102
}
330
C
100
AcDbDictionary
281
     1
  3
Layout1
350
1E
  3
Layout2
350
26
  3
Model
350
22
  0
DICTIONARY
  5
17
102
{ACAD_REACTORS
330
C
102
}
330
C
100
AcDbDictionary
281
     1
  3
Standard
350
18
  0
DICTIONARY
  5
19
102
{ACAD_REACTORS
330
C
102
}
330
C
100
AcDbDictionary
281
     1
  0
ACDBDICTIONARYWDFLT
  5
E
102
{ACAD_REACTORS
330
C
102
}
330
C
100
AcDbDictionary
281
     1
  3
Normal
350
F
100
AcDbDictionaryWithDefault
340
F
  0
DICTIONARY
  5
47
102
{ACAD_REACTORS
330
C
102
}
330
C
100
AcDbDictionary
281
     1
  3
A0
350
48
  3
A1
350
49
  3
A2
350
4A
  3
A3
350
4B
  3
A4
350
4C
  3
A5
350
4D
  3
A6
350
4E
  3
A7
350
4F
  3
A8
350
50
  3
A9
350
51
  3
B0
350
52
  3
B1
350
53
  3
B2
350
54
  3
B3
350
55
  3
B4
350
56
  3
B5
350
57
  3
B6
350
58
  3
B7
350
59
  3
B8
350
5A
  3
B9
350
5B
  3
C0
350
5C
  3
C1
350
5D
  3
C2
350
5E
  3
C3
350
5F
  3
C4
350
60
  3
C5
350
61
  3
C6
350
62
  3
C7
350
63
  3
C8
350
64
  3
C9
350
65
  3
D0
350
66
  3
D1
350
67
  3
D2
350
68
  0
LAYOUT
  5
1E
102
{ACAD_REACTORS
330
1A
102
}
330
1A
100
AcDbPlotSettings
  1

  2
none_device
  4

  6

 40
0.0
 41
0.0
 42
0.0
 43
0.0
 44
0.0
 45
0.0
 46
0.0
 47
0.0
 48
0.0
 49
0.0
140
0.0
141
0.0
142
1.0
143
1.0
 70
   688
 72
     1
 73
     0
 74
     5
  7

 75
    16
147
1.0
148
0.0
149
0.0
100
AcDbLayout
  1
Layout1
 70
     1
 71
     1
 10
0.0
 20
0.0
 11
420.0
 21
297.0
 12
0.0
 22
0.0
 32
0.0
 14
1.0000000000E+20
 24
1.0000000000E+20
 34
1.0000000000E+20
 15
-1.0000000000E+20
 25
-1.0000000000E+20
 35
-1.0000000000E+20
146
0.0
 13
0.0
 23
0.0
 33
0.0
 16
1.0
 26
0.0
 36
0.0
 17
0.0
 27
1.0
 37
0.0
 76
     0
330
1B
  0
LAYOUT
  5
26
102
{ACAD_REACTORS
330
1A
102
}
330
1A
100
AcDbPlotSettings
  1

  2
none_device
  4

  6

 40
0.0
 41
0.0
 42
0.0
 43
0.0
 44
0.0
 45
0.0
 46
0.0
 47
0.0
 48
0.0
 49
0.0
140
0.0
141
0.0
142
1.0
143
1.0
 70
   688
 72
     1
 73
     0
 74
     5
  7

 75
    16
147
1.0
148
0.0
149
0.0
100
AcDbLayout
  1
Layout2
 70
     1
 71
     2
 10
0.0
 20
0.0
 11
0.0
 21
0.0
 12
0.0
 22
0.0
 32
0.0
 14
0.0
 24
0.0
 34
0.0
 15
0.0
 25
0.0
 35
0.0
146
0.0
 13
0.0
 23
0.0
 33
0.0
 16
1.0
 26
0.0
 36
0.0
 17
0.0
 27
1.0
 37
0.0
 76
     0
330
23
  0
LAYOUT
  5
22
102
{ACAD_REACTORS
330
1A
102
}
330
1A
100
AcDbPlotSettings
  1

  2
none_device
  4
ANSI_A_(11.00_x_8.50_Inches)
  6

 40
6.35
 41
19.05
 42
6.35000508
 43
19.05000254
 44
279.4
 45
215.9
 46
131.4495926101
 47
144.66284631
 48
0.0
 49
0.0
140
0.0
141
0.0
142
0.0000726
143
1.0
 70
  1696
 72
     0
 73
     0
 74
     0
  7

 75
     0
147
0.0179189148
148
-1300.4909072572
149
0.0
100
AcDbLayout
  1
Model
 70
     1
 71
     0
 10
0.0
 20
0.0
 11
420.0
 21
297.0
 12
0.0
 22
0.0
 32
0.0
 14
-73969.4340416201
 24
-64739.5
 34
0.0
 15
76030.5659583799
 25
4260.5
 35
0.0
146
0.0
 13
0.0
 23
0.0
 33
0.0
 16
1.0
 26
0.0
 36
0.0
 17
0.0
 27
1.0
 37
0.0
 76
     0
330
1F
331
29
  0
MLINESTYLE
  5
18
102
{ACAD_REACTORS
330
17
102
}
330
17
100
AcDbMlineStyle
  2
Standard
 70
     0
  3

 62
   256
 51
90.0
 52
90.0
 71
     2
 49
0.5
 62
   256
  6
BYLAYER
 49
-0.5
 62
   256
  6
BYLAYER
  0
ACDBPLACEHOLDER
  5
F
102
{ACAD_REACTORS
330
E
102
}
330
E
  0
SCALE
  5
48
102
{ACAD_REACTORS
330
47
102
}
330
47
100
AcDbScale
 70
     0
300
1:1
140
1.0
141
1.0
290
     1
  0
SCALE
  5
49
102
{ACAD_REACTORS
330
47
102
}
330
47
100
AcDbScale
 70
     0
300
1:2
140
1.0
141
2.0
290
     0
  0
SCALE
  5
4A
102
{ACAD_REACTORS
330
47
102
}
330
47
100
AcDbScale
 70
     0
300
1:4
140
1.0
141
4.0
290
     0
  0
SCALE
  5
4B
102
{ACAD_REACTORS
330
47
102
}
330
47
100
AcDbScale
 70
     0
300
1:5
140
1.0
141
5.0
290
     0
  0
SCALE
  5
4C
102
{ACAD_REACTORS
330
47
102
}
330
47
100
AcDbScale
 70
     0
300
1:8
140
1.0
141
8.0
290
     0
  0
SCALE
  5
4D
102
{ACAD_REACTORS
330
47
102
}
330
47
100
AcDbScale
 70
     0
300
1:10
140
1.0
141
10.0
290
     0
  0
SCALE
  5
4E
102
{ACAD_REACTORS
330
47
102
}
330
47
100
AcDbScale
 70
     0
300
1:16
140
1.0
141
16.0
290
     0
  0
SCALE
  5
4F
102
{ACAD_REACTORS
330
47
102
}
330
47
100
AcDbScale
 70
     0
300
1:20
140
1.0
141
20.0
290
     0
  0
SCALE
  5
50
102
{ACAD_REACTORS
330
47
102
}
330
47
100
AcDbScale
 70
     0
300
1:30
140
1.0
141
30.0
290
     0
  0
SCALE
  5
51
102
{ACAD_REACTORS
330
47
102
}
330
47
100
AcDbScale
 70
     0
300
1:40
140
1.0
141
40.0
290
     0
  0
SCALE
  5
52
102
{ACAD_REACTORS
330
47
102
}
330
47
100
AcDbScale
 70
     0
300
1:50
140
1.0
141
50.0
290
     0
  0
SCALE
  5
53
102
{ACAD_REACTORS
330
47
102
}
330
47
100
AcDbScale
 70
     0
300
1:100
140
1.0
141
100.0
290
     0
  0
SCALE
  5
54
102
{ACAD_REACTORS
330
47
102
}
330
47
100
AcDbScale
 70
     0
300
2:1
140
2.0
141
1.0
290
     0
  0
SCALE
  5
55
102
{ACAD_REACTORS
330
47
102
}
330
47
100
AcDbScale
 70
     0
300
4:1
140
4.0
141
1.0
290
     0
  0
SCALE
  5
56
102
{ACAD_REACTORS
330
47
102
}
330
47
100
AcDbScale
 70
     0
300
8:1
140
8.0
141
1.0
290
     0
  0
SCALE
  5
57
102
{ACAD_REACTORS
330
47
102
}
330
47
100
AcDbScale
 70
     0
300
10:1
140
10.0
141
1.0
290
     0
  0
SCALE
  5
58
102
{ACAD_REACTORS
330
47
102
}
330
47
100
AcDbScale
 70
     0
300
100:1
140
100.0
141
1.0
290
     0
  0
SCALE
  5
59
102
{ACAD_REACTORS
330
47
102
}
330
47
100
AcDbScale
 70
     0
300
1/128" = 1'-0"
140
0.0078125
141
12.0
290
     0
  0
SCALE
  5
5A
102
{ACAD_REACTORS
330
47
102
}
330
47
100
AcDbScale
 70
     0
300
1/64" = 1'-0"
140
0.015625
141
12.0
290
     0
  0
SCALE
  5
5B
102
{ACAD_REACTORS
330
47
102
}
330
47
100
AcDbScale
 70
     0
300
1/32" = 1'-0"
140
0.03125
141
12.0
290
     0
  0
SCALE
  5
5C
102
{ACAD_REACTORS
330
47
102
}
330
47
100
AcDbScale
 70
     0
300
1/16" = 1'-0"
140
0.0625
141
12.0
290
     0
  0
SCALE
  5
5D
102
{ACAD_REACTORS
330
47
102
}
330
47
100
AcDbScale
 70
     0
300
3/32" = 1'-0"
140
0.09375
141
12.0
290
     0
  0
SCALE
  5
5E
102
{ACAD_REACTORS
330
47
102
}
330
47
100
AcDbScale
 70
     0
300
1/8" = 1'-0"
140
0.125
141
12.0
290
     0
  0
SCALE
  5
5F
102
{ACAD_REACTORS
330
47
102
}
330
47
100
AcDbScale
 70
     0
300
3/16" = 1'-0"
140
0.1875
141
12.0
290
     0
  0
SCALE
  5
60
102
{ACAD_REACTORS
330
47
102
}
330
47
100
AcDbScale
 70
     0
300
1/4" = 1'-0"
140
0.25
141
12.0
290
     0
  0
SCALE
  5
61
102
{ACAD_REACTORS
330
47
102
}
330
47
100
AcDbScale
 70
     0
300
3/8" = 1'-0"
140
0.375
141
12.0
290
     0
  0
SCALE
  5
62
102
{ACAD_REACTORS
330
47
102
}
330
47
100
AcDbScale
 70
     0
300
1/2" = 1'-0"
140
0.5
141
12.0
290
     0
  0
SCALE
  5
63
102
{ACAD_REACTORS
330
47
102
}
330
47
100
AcDbScale
 70
     0
300
3/4" = 1'-0"
140
0.75
141
12.0
290
     0
  0
SCALE
  5
64
102
{ACAD_REACTORS
330
47
102
}
330
47
100
AcDbScale
 70
     0
300
1" = 1'-0"
140
1.0
141
12.0
290
     0
  0
SCALE
  5
65
102
{ACAD_REACTORS
330
47
102
}
330
47
100
AcDbScale
 70
     0
300
1-1/2" = 1'-0"
140
1.5
141
12.0
290
     0
  0
SCALE
  5
66
102
{ACAD_REACTORS
330
47
102
}
330
47
100
AcDbScale
 70
     0
300
3" = 1'-0"
140
3.0
141
12.0
290
     0
  0
SCALE
  5
67
102
{ACAD_REACTORS
330
47
102
}
330
47
100
AcDbScale
 70
     0
300
6" = 1'-0"
140
6.0
141
12.0
290
     0
  0
SCALE
  5
68
102
{ACAD_REACTORS
330
47
102
}
330
47
100
AcDbScale
 70
     0
300
1'-0" = 1'-0"
140
12.0
141
12.0
290
     0
  0
ENDSEC
  0
EOF
